SplineFontDB: 3.2
FontName: Samaano-Thin-Slanted
FullName: Samaano Thin Slanted
FamilyName: Samaano
Weight: Thin
Copyright: Copyright 2024 The Samaano Project Authors (https://github.com/mitradranirban/samaano-fonts)
UComments: "2024-8-27: Created with FontForge (http://fontforge.org)"
Version: 1.511
ItalicAngle: -20
UnderlinePosition: 0
UnderlineWidth: 102
Ascent: 1638
Descent: 410
InvalidEm: 0
UFOAscent: 1638
UFODescent: -410
LayerCount: 2
Layer: 0 0 "Back" 1
Layer: 1 0 "public.default" 0 "glyphs"
StyleMap: 0x0001
FSType: 256
OS2Version: 0
OS2_WeightWidthSlopeOnly: 0
OS2_UseTypoMetrics: 0
CreationTime: 1729874398
ModificationTime: 1730308483
PfmFamily: 49
TTFWeight: 100
TTFWidth: 5
LineGap: 0
VLineGap: 0
Panose: 2 7 2 9 2 2 2 2 4 4
OS2TypoAscent: 2457
OS2TypoAOffset: 0
OS2TypoDescent: -615
OS2TypoDOffset: 0
OS2TypoLinegap: 0
OS2WinAscent: 2834
OS2WinAOffset: 0
OS2WinDescent: 978
OS2WinDOffset: 0
HheadAscent: 2457
HheadAOffset: 0
HheadDescent: -615
HheadDOffset: 0
OS2CapHeight: 1548
OS2XHeight: 1023
OS2FamilyClass: 1031
OS2Vendor: 'anir'
OS2CodePages: 00000193.00000000
Lookup: 4 0 1 "ligaStandardLigaturesinLatinlookup0" { "ligaStandardLigaturesinLatinlookup0 subtable"  } ['liga' ('latn' <'dflt' > 'DFLT' <'dflt' > ) ]
Lookup: 4 0 0 "nuktNuktaFormsinDevanagari2lookup0" { "nuktNuktaFormsinDevanagari2lookup0 subtable"  } ['nukt' ('dev2' <'dflt' > 'DFLT' <'dflt' > ) ]
Lookup: 4 0 0 "akhnAkhandinDevanagari2lookup0" { "akhnAkhandinDevanagari2lookup0 subtable"  } ['akhn' ('dev2' <'dflt' > 'DFLT' <'dflt' > ) ]
Lookup: 4 0 0 "rphfRephForminDevanagari2lookup0" { "rphfRephForminDevanagari2lookup0 subtable"  } ['rphf' ('dev2' <'dflt' > 'DFLT' <'dflt' > ) ]
Lookup: 4 0 0 "blwfBelowBaseFormsinDevanagari2lookup0" { "blwfBelowBaseFormsinDevanagari2lookup0 subtable"  } ['blwf' ('dev2' <'dflt' > 'DFLT' <'dflt' > ) ]
Lookup: 4 0 0 "halfHalfFormsinDevanagari2lookup0" { "halfHalfFormsinDevanagari2lookup0 subtable"  } ['half' ('dev2' <'dflt' > 'DFLT' <'dflt' > ) ]

StartChar: .notdef
Encoding: 0 0 0
GlifName: _notdef
Width: 1024
VWidth: 0
Flags: W
LayerCount: 2
Fore
SplineSet
-285.456054688 -100 m 257
 712.543945312 -100 l 257
 1309.45605469 1540 l 257
 311.456054688 1540 l 257
 -285.456054688 -100 l 257
-182.337890625 -20 m 257
 357.065429688 1462 l 257
 488.37109375 743 l 257
 -182.337890625 -20 l 257
-90.337890625 -20 m 257
 498.345703125 666 l 257
 589.662109375 -20 l 257
 -90.337890625 -20 l 257
481.43359375 1474 m 257
 1112.43359375 1474 l 257
 558.216796875 825 l 257
 481.43359375 1474 l 257
568.19140625 748 m 257
 1208.79785156 1475 l 257
 664.662109375 -20 l 257
 568.19140625 748 l 257
EndSplineSet
EndChar

StartChar: A
Encoding: 65 65 1
GlifName: A_
Width: 1024
VWidth: 0
Flags: HW
AnchorPoint: "top" 1021.54 1629 basechar 0
AnchorPoint: "base" 567.535 -44 basechar 0
LayerCount: 2
Fore
SplineSet
107.82421875 16 m 257
 166.82421875 16 l 257
 726.24609375 1553 l 257
 667.24609375 1553 l 257
 107.82421875 16 l 257
704.044921875 1492 m 257
 1421.04492188 1492 l 257
 1443.24609375 1553 l 257
 726.24609375 1553 l 257
 704.044921875 1492 l 257
508.05078125 970 m 257
 486.578125 911 l 257
 1209.578125 911 l 257
 1231.05078125 970 l 257
 508.05078125 970 l 257
863.8203125 5 m 257
 923.8203125 5 l 257
 1487.24609375 1553 l 257
 1427.24609375 1553 l 257
 863.8203125 5 l 257
EndSplineSet
EndChar

StartChar: AE
Encoding: 198 198 2
GlifName: A_E_
Width: 1024
VWidth: 0
Flags: W
LayerCount: 2
Fore
SplineSet
279.489257812 62 m 257
 256.922851562 0 l 257
 676.922851562 0 l 257
 699.489257812 62 l 257
 279.489257812 62 l 257
-195.077148438 0 m 257
 -133.077148438 0 l 257
 431.077148438 1550 l 257
 369.077148438 1550 l 257
 -195.077148438 0 l 257
390.875 1489 m 257
 1196.875 1489 l 257
 1219.07714844 1550 l 257
 413.077148438 1550 l 257
 390.875 1489 l 257
225.264648438 1023 m 257
 203.790039062 964 l 257
 953.790039062 964 l 257
 975.264648438 1023 l 257
 225.264648438 1023 l 257
230.922851562 0 m 257
 290.922851562 0 l 257
 855.077148438 1550 l 257
 795.077148438 1550 l 257
 230.922851562 0 l 257
EndSplineSet
EndChar

StartChar: B
Encoding: 66 66 14
GlifName: B_
Width: 1024
VWidth: 0
Flags: HW
AnchorPoint: "top" 709.227 1645 basechar 0
AnchorPoint: "base" 69.2266 -99 basechar 0
LayerCount: 2
Fore
SplineSet
27 0 m 257
 84 0 l 257
 649.24609375 1553 l 257
 592.24609375 1553 l 257
 27 0 l 257
666.771484375 1494 m 257
 1334.34179688 1023 l 257
 1355.453125 1081 l 257
 687.154296875 1550 l 257
 666.771484375 1494 l 257
441.1796875 811 m 257
 1334.34179688 1023 l 257
 1354.72460938 1079 l 257
 462.654296875 870 l 257
 441.1796875 811 l 257
150.56640625 62 m 257
 128 0 l 257
 1153.96289062 434 l 257
 1177.98632812 500 l 257
 150.56640625 62 l 257
412.521484375 746 m 257
 1153.5078125 430 l 257
 1179.34960938 501 l 257
 435.087890625 808 l 257
 412.521484375 746 l 257
397.654296875 870 m 257
 376.1796875 811 l 257
 441.1796875 811 l 257
 462.654296875 870 l 257
 397.654296875 870 l 257
375.087890625 808 m 257
 353.25 748 l 257
 413.25 748 l 257
 435.087890625 808 l 257
 375.087890625 808 l 257
90.56640625 62 m 257
 68 0 l 257
 128 0 l 257
 150.56640625 62 l 257
 90.56640625 62 l 257
628.24609375 1553 m 257
 606.771484375 1494 l 257
 666.771484375 1494 l 257
 688.24609375 1553 l 257
 628.24609375 1553 l 257
EndSplineSet
EndChar

StartChar: C
Encoding: 67 67 15
GlifName: C_
Width: 1024
VWidth: 0
Flags: HW
AnchorPoint: "top" 1007.62 1625 basechar 0
AnchorPoint: "base" 540.623 -39 basechar 0
LayerCount: 2
Fore
SplineSet
636.24609375 1553 m 257
 71 0 l 257
 131 0 l 257
 696.24609375 1553 l 257
 636.24609375 1553 l 257
665.24609375 1553 m 257
 644.135742188 1495 l 257
 1497.13574219 1495 l 257
 1518.24609375 1553 l 257
 665.24609375 1553 l 257
126.110351562 58 m 257
 105 0 l 257
 951 0 l 257
 972.110351562 58 l 257
 126.110351562 58 l 257
EndSplineSet
EndChar

StartChar: D
Encoding: 68 68 21
GlifName: D_
Width: 1024
VWidth: 0
Flags: HW
AnchorPoint: "base" 161 -96 basechar 0
AnchorPoint: "top" 752.171 1641 basechar 0
LayerCount: 2
Fore
SplineSet
661.24609375 1553 m 257
 96 0 l 257
 156 0 l 257
 721.24609375 1553 l 257
 661.24609375 1553 l 257
800.154296875 1550 m 257
 779.407226562 1493 l 257
 1275.77539062 961 l 257
 1298.34179688 1023 l 257
 800.154296875 1550 l 257
257.110351562 58 m 257
 236 0 l 257
 1277.41113281 960 l 257
 1300.34179688 1023 l 257
 257.110351562 58 l 257
721.24609375 1553 m 257
 699.407226562 1493 l 257
 779.407226562 1493 l 257
 801.24609375 1553 l 257
 721.24609375 1553 l 257
179.110351562 58 m 257
 158 0 l 257
 236 0 l 257
 257.110351562 58 l 257
 179.110351562 58 l 257
EndSplineSet
EndChar

StartChar: Dcroat
Encoding: 272 272 23
GlifName: D_croat
Width: 1024
VWidth: 0
Flags: W
LayerCount: 2
Fore
SplineSet
157.141601562 935 m 257
 135.666992188 876 l 257
 611.666992188 876 l 257
 633.141601562 935 l 257
 157.141601562 935 l 257
486.983398438 1550 m 257
 -77.1708984375 0 l 257
 -15.1708984375 0 l 257
 548.983398438 1550 l 257
 486.983398438 1550 l 257
812.983398438 1550 m 257
 790.416992188 1488 l 257
 1058.5859375 906 l 257
 1101.17089844 1023 l 257
 812.983398438 1550 l 257
279.03125 61 m 257
 256.829101562 0 l 257
 1061.86230469 915 l 257
 1101.17089844 1023 l 257
 279.03125 61 l 257
532.983398438 1550 m 257
 510.416992188 1488 l 257
 790.416992188 1488 l 257
 812.983398438 1550 l 257
 532.983398438 1550 l 257
-12.96875 61 m 257
 -35.1708984375 0 l 257
 256.829101562 0 l 257
 279.03125 61 l 257
 -12.96875 61 l 257
EndSplineSet
EndChar

StartChar: E
Encoding: 69 69 24
GlifName: E_
Width: 1024
VWidth: 0
Flags: HW
AnchorPoint: "top" 1007.12 1633 basechar 0
AnchorPoint: "base" 565.123 -80 basechar 0
LayerCount: 2
Fore
SplineSet
670.154296875 1550 m 257
 106 0 l 257
 165 0 l 257
 729.154296875 1550 l 257
 670.154296875 1550 l 257
707.24609375 1553 m 257
 691.315429688 1490 l 257
 1445.31542969 1490 l 257
 1468.24609375 1553 l 257
 707.24609375 1553 l 257
170.837890625 60 m 257
 149 0 l 257
 918 0 l 257
 939.837890625 60 l 257
 170.837890625 60 l 257
460.650390625 859 m 257
 438.448242188 798 l 257
 962.448242188 798 l 257
 984.650390625 859 l 257
 460.650390625 859 l 257
EndSplineSet
EndChar

StartChar: Eng
Encoding: 330 330 33
GlifName: E_ng
Width: 1024
VWidth: 0
Flags: W
LayerCount: 2
Fore
SplineSet
108.625 -374 m 257
 93.9228515625 -408 l 257
 480.922851562 -408 l 257
 495.625 -374 l 257
 108.625 -374 l 257
372.73828125 1490 m 257
 -169.577148438 0 l 257
 -125.577148438 0 l 257
 416.73828125 1490 l 257
 372.73828125 1490 l 257
1111.64257812 1476 m 257
 425.922851562 -408 l 257
 481.922851562 -408 l 257
 1167.64257812 1476 l 257
 1111.64257812 1476 l 257
394.577148438 1550 m 257
 371.875 1478 l 257
 1170.875 1478 l 257
 1193.57714844 1550 l 257
 394.577148438 1550 l 257
EndSplineSet
EndChar

StartChar: Eth
Encoding: 208 208 35
GlifName: E_th
Width: 1024
VWidth: 0
Flags: W
LayerCount: 2
Fore
SplineSet
155.641601562 935 m 257
 133.075195312 873 l 257
 440.075195312 873 l 257
 462.641601562 935 l 257
 155.641601562 935 l 257
487.575195312 1553 m 257
 -77.6708984375 0 l 257
 -16.6708984375 0 l 257
 548.575195312 1553 l 257
 487.575195312 1553 l 257
813.575195312 1553 m 257
 788.4609375 1484 l 257
 1080.19628906 964 l 257
 1101.67089844 1023 l 257
 813.575195312 1553 l 257
278.166992188 60 m 257
 256.329101562 0 l 257
 1080.19628906 964 l 257
 1101.67089844 1023 l 257
 278.166992188 60 l 257
527.575195312 1553 m 257
 502.4609375 1484 l 257
 788.4609375 1484 l 257
 813.575195312 1553 l 257
 527.575195312 1553 l 257
-7.8330078125 60 m 257
 -29.6708984375 0 l 257
 256.329101562 0 l 257
 278.166992188 60 l 257
 -7.8330078125 60 l 257
EndSplineSet
EndChar

StartChar: Euro
Encoding: 8364 8364 36
GlifName: E_uro
Width: 1024
VWidth: 0
Flags: W
LayerCount: 2
Fore
SplineSet
21.2392578125 520 m 257
 -3.875 451 l 257
 633.125 451 l 257
 658.239257812 520 l 257
 21.2392578125 520 l 257
155.533203125 856 m 257
 130.783203125 788 l 257
 739.783203125 788 l 257
 764.533203125 856 l 257
 155.533203125 856 l 257
472.31640625 1023 m 257
 165.125 179 l 257
 245.125 179 l 257
 552.31640625 1023 l 257
 472.31640625 1023 l 257
1012.33789062 1633 m 257
 472.31640625 1023 l 257
 552.31640625 1023 l 257
 1027.875 1607 l 257
 1012.33789062 1633 l 257
165.125 179 m 257
 296.203125 -406 l 257
 356.203125 -406 l 257
 245.125 179 l 257
 165.125 179 l 257
EndSplineSet
EndChar

StartChar: F
Encoding: 70 70 37
GlifName: F_
Width: 1024
VWidth: 0
Flags: HW
LayerCount: 2
Fore
SplineSet
671.24609375 1553 m 257
 106 0 l 257
 164 0 l 257
 729.24609375 1553 l 257
 671.24609375 1553 l 257
729.24609375 1553 m 257
 708.86328125 1497 l 257
 1462.86328125 1497 l 257
 1483.24609375 1553 l 257
 729.24609375 1553 l 257
470.470703125 864 m 257
 449.360351562 806 l 257
 1039.36035156 806 l 257
 1060.47070312 864 l 257
 470.470703125 864 l 257
EndSplineSet
EndChar

StartChar: G
Encoding: 71 71 38
GlifName: G_
Width: 1024
VWidth: 0
Flags: HW
AnchorPoint: "top" 1014.26 1653 basechar 0
AnchorPoint: "base" 556.256 -50 basechar 0
LayerCount: 2
Fore
SplineSet
671.51171875 1529 m 257
 115 0 l 257
 174 0 l 257
 730.51171875 1529 l 257
 671.51171875 1529 l 257
724.51171875 1529 m 257
 702.671875 1469 l 257
 1407.67089844 1469 l 257
 1429.51171875 1529 l 257
 724.51171875 1529 l 257
167.837890625 60 m 257
 146 0 l 257
 909 0 l 257
 930.837890625 60 l 257
 167.837890625 60 l 257
1052.1875 561 m 257
 854.552734375 18 l 257
 915.552734375 18 l 257
 1113.1875 561 l 257
 1052.1875 561 l 257
EndSplineSet
EndChar

StartChar: H
Encoding: 72 72 42
GlifName: H_
Width: 1024
VWidth: 0
Flags: HW
AnchorPoint: "top" 1004.62 1626 basechar 0
AnchorPoint: "base" 550.623 -54 basechar 0
LayerCount: 2
Fore
SplineSet
679.24609375 1553 m 257
 114 0 l 257
 173 0 l 257
 738.24609375 1553 l 257
 679.24609375 1553 l 257
1414.24609375 1553 m 257
 849 0 l 257
 910 0 l 257
 1475.24609375 1553 l 257
 1414.24609375 1553 l 257
491.944335938 923 m 257
 470.470703125 864 l 257
 1187.47070312 864 l 257
 1208.94433594 923 l 257
 491.944335938 923 l 257
EndSplineSet
EndChar

StartChar: Hbar
Encoding: 294 294 43
GlifName: H_bar
Width: 1024
VWidth: 0
Flags: W
LayerCount: 2
Fore
SplineSet
379.547851562 1540 m 257
 -180.966796875 0 l 257
 -120.966796875 0 l 257
 439.547851562 1540 l 257
 379.547851562 1540 l 257
1115.54785156 1540 m 257
 555.033203125 0 l 257
 615.033203125 0 l 257
 1175.54785156 1540 l 257
 1115.54785156 1540 l 257
231.375 1023 m 257
 208.081054688 959 l 257
 920.081054688 959 l 257
 943.375 1023 l 257
 231.375 1023 l 257
280.966796875 1434 m 257
 259.127929688 1374 l 257
 1183.12792969 1374 l 257
 1204.96679688 1434 l 257
 280.966796875 1434 l 257
EndSplineSet
EndChar

StartChar: I
Encoding: 73 73 45
GlifName: I_
Width: 1024
VWidth: 0
Flags: HW
AnchorPoint: "top" 1041.67 1653 basechar 0
AnchorPoint: "base" 495.669 -82 basechar 0
LayerCount: 2
Fore
SplineSet
718.154296875 1550 m 257
 695.952148438 1489 l 257
 1396.95214844 1489 l 257
 1419.15429688 1550 l 257
 718.154296875 1550 l 257
1029.41503906 1515 m 257
 490.375 34 l 257
 549.375 34 l 257
 1088.41503906 1515 l 257
 1029.41503906 1515 l 257
158.022460938 66 m 257
 136.18359375 6 l 257
 892.18359375 6 l 257
 914.022460938 66 l 257
 158.022460938 66 l 257
EndSplineSet
EndChar

StartChar: J
Encoding: 74 74 56
GlifName: J_
Width: 1024
VWidth: 0
Flags: HW
AnchorPoint: "base" 493 -72 basechar 0
AnchorPoint: "top" 1479.89 1625 basechar 0
LayerCount: 2
Fore
SplineSet
1395.78125 1527 m 257
 840 0 l 257
 900 0 l 257
 1455.78125 1527 l 257
 1395.78125 1527 l 257
145.837890625 60 m 257
 124 0 l 257
 866 0 l 257
 887.837890625 60 l 257
 145.837890625 60 l 257
307.076171875 503 m 257
 133.826171875 27 l 257
 193.826171875 27 l 257
 367.076171875 503 l 257
 307.076171875 503 l 257
EndSplineSet
EndChar

StartChar: K
Encoding: 75 75 58
GlifName: K_
Width: 1024
VWidth: 0
Flags: HW
AnchorPoint: "base" 417 -60 basechar 0
AnchorPoint: "top" 1024.99 1642 basechar 0
LayerCount: 2
Fore
SplineSet
737.24609375 1553 m 257
 173.8203125 5 l 257
 233.8203125 5 l 257
 797.24609375 1553 l 257
 737.24609375 1553 l 257
599.4296875 1015 m 257
 573.587890625 944 l 257
 1382.15429688 1550 l 257
 1312.15429688 1550 l 257
 599.4296875 1015 l 257
569.948242188 934 m 257
 517.190429688 844 l 257
 802 0 l 257
 852 0 l 257
 569.948242188 934 l 257
EndSplineSet
EndChar

StartChar: L
Encoding: 76 76 59
GlifName: L_
Width: 1024
VWidth: 0
Flags: W
AnchorPoint: "base" 493 -80 basechar 0
AnchorPoint: "top" 755.102 1622 basechar 0
LayerCount: 2
Fore
SplineSet
697.24609375 1553 m 257
 132 0 l 257
 192 0 l 257
 757.24609375 1553 l 257
 697.24609375 1553 l 257
169.203125 61 m 257
 147 0 l 257
 892 0 l 257
 914.203125 61 l 257
 169.203125 61 l 257
EndSplineSet
EndChar

StartChar: Lcaron
Encoding: 317 317 61
GlifName: L_caron
Width: 1024
VWidth: 0
Flags: W
LayerCount: 2
Fore
SplineSet
583.9921875 1542 m 257
 22.75 0 l 257
 84.75 0 l 257
 645.9921875 1542 l 257
 583.9921875 1542 l 257
73.31640625 62 m 257
 50.75 0 l 257
 858.75 0 l 257
 881.31640625 62 l 257
 73.31640625 62 l 257
961.25 1496 m 257
 876.80859375 1264 l 257
 916.80859375 1264 l 257
 1001.25 1496 l 257
 961.25 1496 l 257
EndSplineSet
EndChar

StartChar: Lslash
Encoding: 321 321 63
GlifName: L_slash
Width: 1024
VWidth: 0
Flags: W
LayerCount: 2
Fore
SplineSet
644.095703125 1542 m 257
 82.853515625 0 l 257
 142.853515625 0 l 257
 704.095703125 1542 l 257
 644.095703125 1542 l 257
130.146484375 64 m 257
 106.853515625 0 l 257
 917.853515625 0 l 257
 941.146484375 64 l 257
 130.146484375 64 l 257
256.154296875 902 m 257
 323.05078125 866 l 257
 830.572265625 1068 l 257
 763.67578125 1104 l 257
 256.154296875 902 l 257
EndSplineSet
EndChar

StartChar: M
Encoding: 77 77 64
GlifName: M_
Width: 1024
VWidth: 0
Flags: HW
AnchorPoint: "base" 505 -48 basechar 0
AnchorPoint: "top" 1014.62 1630 basechar 0
LayerCount: 2
Fore
SplineSet
665.24609375 1553 m 257
 100 0 l 257
 160 0 l 257
 725.24609375 1553 l 257
 665.24609375 1553 l 257
1427.24609375 1553 m 257
 862 0 l 257
 924 0 l 257
 1489.24609375 1553 l 257
 1427.24609375 1553 l 257
665.24609375 1553 m 257
 851.981445312 1033 l 257
 919.981445312 1033 l 257
 725.24609375 1553 l 257
 665.24609375 1553 l 257
1427.24609375 1553 m 257
 851.981445312 1033 l 257
 919.981445312 1033 l 257
 1489.24609375 1553 l 257
 1427.24609375 1553 l 257
EndSplineSet
EndChar

StartChar: N
Encoding: 78 78 65
GlifName: N_
Width: 1024
VWidth: 0
Flags: HW
AnchorPoint: "top" 1012.62 1642 basechar 0
AnchorPoint: "base" 540.623 -48 basechar 0
LayerCount: 2
Fore
SplineSet
663.24609375 1553 m 257
 98 0 l 257
 158 0 l 257
 723.24609375 1553 l 257
 663.24609375 1553 l 257
1431.24609375 1553 m 257
 866 0 l 257
 926 0 l 257
 1491.24609375 1553 l 257
 1431.24609375 1553 l 257
663.24609375 1553 m 257
 866 0 l 257
 926 0 l 257
 723.24609375 1553 l 257
 663.24609375 1553 l 257
EndSplineSet
EndChar

StartChar: O
Encoding: 79 79 69
GlifName: O_
Width: 1024
VWidth: 0
Flags: HW
AnchorPoint: "top" 1021.62 1658 basechar 0
AnchorPoint: "base" 526.623 -66 basechar 0
LayerCount: 2
Fore
SplineSet
677.24609375 1553 m 257
 112 0 l 257
 171 0 l 257
 736.24609375 1553 l 257
 677.24609375 1553 l 257
1418.24609375 1553 m 257
 853 0 l 257
 912 0 l 257
 1477.24609375 1553 l 257
 1418.24609375 1553 l 257
715.24609375 1553 m 257
 693.407226562 1493 l 257
 1425.40722656 1493 l 257
 1447.24609375 1553 l 257
 715.24609375 1553 l 257
174.202148438 61 m 257
 152 0 l 257
 890 0 l 257
 912.202148438 61 l 257
 174.202148438 61 l 257
EndSplineSet
EndChar

StartChar: OE
Encoding: 338 338 70
GlifName: O_E_
Width: 1024
VWidth: 0
Flags: W
LayerCount: 2
Fore
SplineSet
409.623046875 1553 m 257
 -155.623046875 0 l 257
 -96.623046875 0 l 257
 468.623046875 1553 l 257
 409.623046875 1553 l 257
873.623046875 1553 m 257
 308.376953125 0 l 257
 367.376953125 0 l 257
 932.623046875 1553 l 257
 873.623046875 1553 l 257
447.623046875 1553 m 257
 425.784179688 1493 l 257
 1157.78417969 1493 l 257
 1179.62304688 1553 l 257
 447.623046875 1553 l 257
-93.4208984375 61 m 257
 -115.623046875 0 l 257
 622.376953125 0 l 257
 644.579101562 61 l 257
 -93.4208984375 61 l 257
653.02734375 859 m 257
 630.825195312 798 l 257
 853.825195312 798 l 257
 876.02734375 859 l 257
 653.02734375 859 l 257
EndSplineSet
EndChar

StartChar: Oslash
Encoding: 216 216 79
GlifName: O_slash
Width: 1024
VWidth: 0
Flags: W
LayerCount: 2
Fore
SplineSet
1212.01464844 1630 m 257
 -228.727539062 -48 l 257
 -198.5546875 -75 l 257
 1252.72753906 1588 l 257
 1212.01464844 1630 l 257
387.2578125 1540 m 257
 -173.256835938 0 l 257
 -113.256835938 0 l 257
 447.2578125 1540 l 257
 387.2578125 1540 l 257
1127.16503906 1537 m 257
 567.743164062 0 l 257
 626.743164062 0 l 257
 1186.16503906 1537 l 257
 1127.16503906 1537 l 257
416.529296875 1538 m 257
 394.69140625 1478 l 257
 1134.69140625 1478 l 257
 1156.52929688 1538 l 257
 416.529296875 1538 l 257
-105.958984375 75 m 257
 -133.256835938 0 l 257
 567.743164062 0 l 257
 595.041015625 75 l 257
 -105.958984375 75 l 257
EndSplineSet
EndChar

StartChar: P
Encoding: 80 80 82
GlifName: P_
Width: 1024
VWidth: 0
Flags: HW
AnchorPoint: "base" 149 -80 basechar 0
AnchorPoint: "top" 1017.08 1634 basechar 0
LayerCount: 2
Fore
SplineSet
690.694335938 1535 m 257
 132 0 l 257
 191 0 l 257
 749.694335938 1535 l 257
 690.694335938 1535 l 257
696.154296875 1550 m 257
 667.764648438 1472 l 257
 1427.76464844 1472 l 257
 1456.15429688 1550 l 257
 696.154296875 1550 l 257
1390.05859375 1536 m 257
 1148.38183594 872 l 257
 1209.38183594 872 l 257
 1451.05859375 1536 l 257
 1390.05859375 1536 l 257
515.856445312 931 m 257
 494.018554688 871 l 257
 1181.01855469 871 l 257
 1202.85644531 931 l 257
 515.856445312 931 l 257
EndSplineSet
EndChar

StartChar: Q
Encoding: 81 81 83
GlifName: Q_
Width: 1024
VWidth: 0
Flags: HW
LayerCount: 2
Fore
SplineSet
677.24609375 1553 m 257
 112 0 l 257
 170 0 l 257
 735.24609375 1553 l 257
 677.24609375 1553 l 257
1419.24609375 1553 m 257
 854 0 l 257
 912 0 l 257
 1477.24609375 1553 l 257
 1419.24609375 1553 l 257
717.24609375 1553 m 257
 696.499023438 1496 l 257
 1406.49902344 1496 l 257
 1427.24609375 1553 l 257
 717.24609375 1553 l 257
174.56640625 62 m 257
 152 0 l 257
 864 0 l 257
 886.56640625 62 l 257
 174.56640625 62 l 257
620.731445312 13 m 257
 647.75 -204 l 257
 723.9453125 -165 l 257
 682.926757812 52 l 257
 620.731445312 13 l 257
EndSplineSet
EndChar

StartChar: R
Encoding: 82 82 84
GlifName: R_
Width: 1024
VWidth: 0
Flags: HW
AnchorPoint: "base" 469 -36 basechar 0
AnchorPoint: "top" 1024.08 1634 basechar 0
LayerCount: 2
Fore
SplineSet
686.154296875 1550 m 257
 122 0 l 257
 182 0 l 257
 746.154296875 1550 l 257
 686.154296875 1550 l 257
728.154296875 1550 m 257
 706.6796875 1491 l 257
 1398.6796875 1491 l 257
 1420.15429688 1550 l 257
 728.154296875 1550 l 257
1386.15429688 1550 m 257
 1139.38183594 872 l 257
 1201.38183594 872 l 257
 1448.15429688 1550 l 257
 1386.15429688 1550 l 257
490.127929688 929 m 257
 467.92578125 868 l 257
 1187.92578125 868 l 257
 1210.12792969 929 l 257
 490.127929688 929 l 257
732.473632812 875 m 257
 846 0 l 257
 902 0 l 257
 790.473632812 875 l 257
 732.473632812 875 l 257
EndSplineSet
EndChar

StartChar: S
Encoding: 83 83 87
GlifName: S_
Width: 1024
VWidth: 0
Flags: HW
AnchorPoint: "top" 993.623 1638 basechar 0
AnchorPoint: "base" 545.623 -54 basechar 0
LayerCount: 2
Fore
SplineSet
691.24609375 1553 m 257
 669.771484375 1494 l 257
 1267.77148438 1494 l 257
 1289.24609375 1553 l 257
 691.24609375 1553 l 257
687.2421875 1542 m 257
 500.161132812 1028 l 257
 559.161132812 1028 l 257
 746.2421875 1542 l 257
 687.2421875 1542 l 257
175.837890625 60 m 257
 154 0 l 257
 862 0 l 257
 883.837890625 60 l 257
 175.837890625 60 l 257
839 0 m 257
 898 0 l 257
 1027.20898438 355 l 257
 968.208984375 355 l 257
 839 0 l 257
500.161132812 1028 m 257
 968.208984375 355 l 257
 1027.20898438 355 l 257
 559.161132812 1028 l 257
 500.161132812 1028 l 257
EndSplineSet
EndChar

StartChar: T
Encoding: 84 84 92
GlifName: T_
Width: 1024
VWidth: 0
Flags: HW
AnchorPoint: "top" 1066.81 1634 basechar 0
AnchorPoint: "base" 490.807 -70 basechar 0
LayerCount: 2
Fore
SplineSet
685.24609375 1553 m 257
 663.771484375 1494 l 257
 1447.77148438 1494 l 257
 1469.24609375 1553 l 257
 685.24609375 1553 l 257
1034.32324219 1512 m 257
 488.3671875 12 l 257
 546.3671875 12 l 257
 1092.32324219 1512 l 257
 1034.32324219 1512 l 257
EndSplineSet
EndChar

StartChar: Thorn
Encoding: 222 222 94
GlifName: T_horn
Width: 1024
VWidth: 0
Flags: W
LayerCount: 2
Fore
SplineSet
467.579101562 1542 m 257
 -90.3876953125 9 l 257
 -30.3876953125 9 l 257
 527.579101562 1542 l 257
 467.579101562 1542 l 257
405.66015625 1240 m 257
 386.369140625 1187 l 257
 1074.36914062 1187 l 257
 1093.66015625 1240 l 257
 405.66015625 1240 l 257
1054.38769531 1242 m 257
 795.60546875 531 l 257
 855.60546875 531 l 257
 1114.38769531 1242 l 257
 1054.38769531 1242 l 257
172.336914062 544 m 257
 150.498046875 484 l 257
 836.498046875 484 l 257
 858.336914062 544 l 257
 172.336914062 544 l 257
EndSplineSet
EndChar

StartChar: U
Encoding: 85 85 95
GlifName: U_
Width: 1024
VWidth: 0
Flags: HW
AnchorPoint: "top" 1042.62 1626 basechar 0
AnchorPoint: "base" 518.623 -122 basechar 0
LayerCount: 2
Fore
SplineSet
722.24609375 1553 m 257
 157 0 l 257
 219 0 l 257
 784.24609375 1553 l 257
 722.24609375 1553 l 257
1372.24609375 1553 m 257
 807 0 l 257
 867 0 l 257
 1432.24609375 1553 l 257
 1372.24609375 1553 l 257
226.202148438 61 m 257
 204 0 l 257
 824 0 l 257
 846.202148438 61 l 257
 226.202148438 61 l 257
EndSplineSet
EndChar

StartChar: V
Encoding: 86 86 107
GlifName: V_
Width: 1024
VWidth: 0
Flags: HW
AnchorPoint: "top" 982.623 1642 basechar 0
AnchorPoint: "base" 530.623 -78 basechar 0
LayerCount: 2
Fore
SplineSet
671.24609375 1553 m 257
 514 0 l 257
 574 0 l 257
 735.24609375 1553 l 257
 671.24609375 1553 l 257
1413.24609375 1553 m 257
 514 0 l 257
 574 0 l 257
 1483.24609375 1553 l 257
 1413.24609375 1553 l 257
EndSplineSet
EndChar

StartChar: W
Encoding: 87 87 108
GlifName: W_
Width: 1024
VWidth: 0
Flags: HW
AnchorPoint: "base" 477 -92 basechar 0
AnchorPoint: "top" 1050.98 1626 basechar 0
LayerCount: 2
Fore
SplineSet
667.154296875 1550 m 257
 103 0 l 257
 163 0 l 257
 727.154296875 1550 l 257
 667.154296875 1550 l 257
1418.96679688 1533 m 257
 865.3671875 12 l 257
 925.3671875 12 l 257
 1478.96679688 1533 l 257
 1418.96679688 1533 l 257
856.161132812 1028 m 257
 482 0 l 257
 542 0 l 257
 916.161132812 1028 l 257
 856.161132812 1028 l 257
132.837890625 60 m 257
 111 0 l 257
 921 0 l 257
 942.837890625 60 l 257
 132.837890625 60 l 257
EndSplineSet
EndChar

StartChar: X
Encoding: 88 88 113
GlifName: X_
Width: 1024
VWidth: 0
Flags: HW
LayerCount: 2
Fore
SplineSet
619.24609375 1553 m 257
 896 0 l 257
 970 0 l 257
 691.24609375 1553 l 257
 619.24609375 1553 l 257
70 0 m 257
 128 0 l 257
 1439.24609375 1553 l 257
 1363.24609375 1553 l 257
 70 0 l 257
EndSplineSet
EndChar

StartChar: Y
Encoding: 89 89 114
GlifName: Y_
Width: 1024
VWidth: 0
Flags: HW
AnchorPoint: "top" 1076.06 1626 basechar 0
AnchorPoint: "base" 508.059 -74 basechar 0
LayerCount: 2
Fore
SplineSet
805.752929688 895 m 257
 480 0 l 257
 539 0 l 257
 864.752929688 895 l 257
 805.752929688 895 l 257
735.154296875 1550 m 257
 483.650390625 859 l 257
 544.650390625 859 l 257
 796.154296875 1550 l 257
 735.154296875 1550 l 257
1352.05859375 1536 m 257
 1105.65039062 859 l 257
 1165.65039062 859 l 257
 1412.05859375 1536 l 257
 1352.05859375 1536 l 257
551.48828125 919 m 257
 529.650390625 859 l 257
 1138.65039062 859 l 257
 1160.48828125 919 l 257
 551.48828125 919 l 257
EndSplineSet
EndChar

StartChar: Z
Encoding: 90 90 119
GlifName: Z_
Width: 1024
VWidth: 0
Flags: HW
AnchorPoint: "top" 1061.15 1646 basechar 0
AnchorPoint: "base" 657.154 -50 basechar 0
LayerCount: 2
Fore
SplineSet
662.154296875 1550 m 257
 640.6796875 1491 l 257
 1468.6796875 1491 l 257
 1490.15429688 1550 l 257
 662.154296875 1550 l 257
120.837890625 60 m 257
 99 0 l 257
 926 0 l 257
 947.837890625 60 l 257
 120.837890625 60 l 257
1408.6796875 1491 m 257
 120.837890625 60 l 257
 180.837890625 60 l 257
 1468.6796875 1491 l 257
 1408.6796875 1491 l 257
EndSplineSet
EndChar

StartChar: a
Encoding: 97 97 123
GlifName: a
Width: 1024
VWidth: 0
Flags: HW
AnchorPoint: "top" 888.342 1116 basechar 0
AnchorPoint: "base" 525.342 -74 basechar 0
LayerCount: 2
Fore
SplineSet
540.705078125 1024 m 257
 516.319335938 957 l 257
 1165.31933594 957 l 257
 1189.34179688 1023 l 257
 540.705078125 1024 l 257
1151.34179688 1023 m 257
 779 0 l 257
 856 0 l 257
 1228.34179688 1023 l 257
 1151.34179688 1023 l 257
389.381835938 600 m 257
 366.81640625 538 l 257
 990.81640625 538 l 257
 1013.38183594 600 l 257
 389.381835938 600 l 257
382.010742188 577 m 257
 172 0 l 257
 243 0 l 257
 453.010742188 577 l 257
 382.010742188 577 l 257
207.93359375 74 m 257
 181 0 l 257
 845 0 l 257
 871.93359375 74 l 257
 207.93359375 74 l 257
EndSplineSet
EndChar

StartChar: acute
Encoding: 180 180 127
GlifName: acute
Width: 1024
VWidth: 0
Flags: W
LayerCount: 2
Fore
SplineSet
585.822265625 1553 m 257
 364.46484375 1302 l 257
 435.72265625 1256 l 257
 659.53515625 1511 l 257
 585.822265625 1553 l 257
EndSplineSet
EndChar

StartChar: acutecomb
Encoding: 769 769 128
GlifName: acutecomb
Width: 0
VWidth: 0
GlyphClass: 4
Flags: HW
AnchorPoint: "top" 231.554 628 mark 0
LayerCount: 2
Fore
SplineSet
358.408203125 949 m 257
 212.072265625 764 l 257
 252.697265625 730 l 257
 399.033203125 915 l 257
 358.408203125 949 l 257
EndSplineSet
EndChar

StartChar: ae
Encoding: 230 230 130
GlifName: ae
Width: 1024
VWidth: 0
Flags: W
LayerCount: 2
Fore
SplineSet
227.170898438 1023 m 257
 204.604492188 961 l 257
 1094.60449219 961 l 257
 1117.17089844 1023 l 257
 227.170898438 1023 l 257
697.170898438 1023 m 257
 324.829101562 0 l 257
 384.829101562 0 l 257
 757.170898438 1023 l 257
 697.170898438 1023 l 257
96.84765625 599 m 257
 74.6455078125 538 l 257
 914.645507812 538 l 257
 936.84765625 599 l 257
 96.84765625 599 l 257
88.1123046875 575 m 257
 -121.170898438 0 l 257
 -61.1708984375 0 l 257
 148.112304688 575 l 257
 88.1123046875 575 l 257
-100.96875 61 m 257
 -123.170898438 0 l 257
 796.829101562 0 l 257
 819.03125 61 l 257
 -100.96875 61 l 257
1085.17089844 1023 m 257
 908.645507812 538 l 257
 970.645507812 538 l 257
 1147.17089844 1023 l 257
 1085.17089844 1023 l 257
EndSplineSet
EndChar

StartChar: ampersand
Encoding: 38 38 134
GlifName: ampersand
Width: 1024
VWidth: 0
Flags: W
LayerCount: 2
Fore
SplineSet
593.708984375 1534 m 257
 569.029296875 43 l 257
 649.76171875 56 l 257
 671.708984375 1534 l 257
 593.708984375 1534 l 257
1113.32324219 1467 m 257
 1138.4375 1536 l 257
 672.4375 1536 l 257
 647.323242188 1467 l 257
 1113.32324219 1467 l 257
1061.875 1485 m 257
 887.533203125 1006 l 257
 945.533203125 1006 l 257
 1119.875 1485 l 257
 1061.875 1485 l 257
263.727539062 1045 m 257
 241.889648438 985 l 257
 937.889648438 985 l 257
 959.727539062 1045 l 257
 263.727539062 1045 l 257
263.727539062 1045 m 257
 -107.885742188 24 l 257
 -17.8857421875 24 l 257
 353.727539062 1045 l 257
 263.727539062 1045 l 257
-90.779296875 71 m 257
 -114.4375 6 l 257
 693.5625 6 l 257
 717.220703125 71 l 257
 -90.779296875 71 l 257
EndSplineSet
EndChar

StartChar: asciicircum
Encoding: 94 94 138
GlifName: asciicircum
Width: 1024
VWidth: 0
Flags: W
LayerCount: 2
Fore
SplineSet
735.48046875 1023 m 257
 663.48046875 1023 l 257
 175.2734375 407 l 257
 216.8984375 373 l 257
 735.48046875 1023 l 257
672.02734375 1030 m 257
 753.623046875 364 l 257
 848.7265625 400 l 257
 746.02734375 1030 l 257
 672.02734375 1030 l 257
EndSplineSet
EndChar

StartChar: asciitilde
Encoding: 126 126 139
GlifName: asciitilde
Width: 1024
VWidth: 0
Flags: W
LayerCount: 2
Fore
SplineSet
372.732421875 766 m 257
 354.53515625 716 l 257
 678.693359375 645 l 257
 696.890625 695 l 257
 372.732421875 766 l 257
112.3515625 710 m 257
 105.240234375 652 l 257
 354.53515625 716 l 257
 372.732421875 766 l 257
 112.3515625 710 l 257
696.890625 695 m 257
 678.693359375 645 l 257
 915.65234375 796 l 257
 918.759765625 843 l 257
 696.890625 695 l 257
EndSplineSet
EndChar

StartChar: asterisk
Encoding: 42 42 140
GlifName: asterisk
Width: 1024
VWidth: 0
Flags: W
LayerCount: 2
Fore
SplineSet
689.986328125 1297 m 257
 323.10546875 289 l 257
 423.10546875 289 l 257
 789.986328125 1297 l 257
 689.986328125 1297 l 257
291.57421875 1153 m 257
 750.240234375 424 l 257
 844.447265625 496 l 257
 376.689453125 1222 l 257
 291.57421875 1153 l 257
1008.68164062 1200 m 257
 -12.66015625 449 l 257
 25.142578125 399 l 257
 1036.66015625 1134 l 257
 1008.68164062 1200 l 257
EndSplineSet
EndChar

StartChar: at
Encoding: 64 64 141
GlifName: at
Width: 1024
VWidth: 0
Flags: HW
LayerCount: 2
Fore
SplineSet
454.341796875 1023 m 257
 429.955078125 956 l 257
 1327.95410156 956 l 257
 1352.34179688 1023 l 257
 454.341796875 1023 l 257
957.654296875 598 m 257
 740 0 l 257
 808 0 l 257
 1025.65429688 598 l 257
 957.654296875 598 l 257
538.74609375 601 m 257
 520.548828125 551 l 257
 944.548828125 551 l 257
 962.74609375 601 l 257
 538.74609375 601 l 257
530.37890625 589 m 257
 320.3671875 12 l 257
 374.3671875 12 l 257
 584.37890625 589 l 257
 530.37890625 589 l 257
341.662109375 76 m 257
 314 0 l 257
 808 0 l 257
 835.662109375 76 l 257
 341.662109375 76 l 257
400.341796875 1023 m 257
 -53.1640625 -223 l 257
 12.8359375 -223 l 257
 466.341796875 1023 l 257
 400.341796875 1023 l 257
-39.150390625 -179 m 257
 -67.904296875 -258 l 257
 880.095703125 -258 l 257
 908.849609375 -179 l 257
 -39.150390625 -179 l 257
1287.98242188 1033 m 257
 912 0 l 257
 998 0 l 257
 1373.98242188 1033 l 257
 1287.98242188 1033 l 257
781.662109375 76 m 257
 754 0 l 257
 944 0 l 257
 971.662109375 76 l 257
 781.662109375 76 l 257
EndSplineSet
EndChar

StartChar: b
Encoding: 98 98 143
GlifName: b
Width: 1024
VWidth: 0
Flags: HW
AnchorPoint: "base" 469 -72 basechar 0
AnchorPoint: "top" 745.98 1622 basechar 0
LayerCount: 2
Fore
SplineSet
694.05859375 1536 m 257
 135 0 l 257
 195 0 l 257
 754.05859375 1536 l 257
 694.05859375 1536 l 257
553.98046875 1033 m 257
 531.779296875 972 l 257
 1195.77929688 972 l 257
 1217.98046875 1033 l 257
 553.98046875 1033 l 257
1204.98046875 1033 m 257
 829 0 l 257
 889 0 l 257
 1264.98046875 1033 l 257
 1204.98046875 1033 l 257
191.837890625 60 m 257
 170 0 l 257
 867 0 l 257
 888.837890625 60 l 257
 191.837890625 60 l 257
EndSplineSet
EndChar

StartChar: backslash
Encoding: 92 92 144
GlifName: backslash
Width: 1024
VWidth: 0
Flags: W
LayerCount: 2
Fore
SplineSet
474.577148438 1550 m 257
 466.422851562 0 l 257
 544.422851562 0 l 257
 557.577148438 1550 l 257
 474.577148438 1550 l 257
EndSplineSet
EndChar

StartChar: bar
Encoding: 124 124 145
GlifName: bar
Width: 1024
VWidth: 0
Flags: W
LayerCount: 2
Fore
SplineSet
749.52734375 1435 m 257
 194.47265625 -90 l 257
 274.47265625 -90 l 257
 829.52734375 1435 l 257
 749.52734375 1435 l 257
EndSplineSet
EndChar

StartChar: braceleft
Encoding: 123 123 146
GlifName: braceleft
Width: 1024
VWidth: 0
Flags: W
LayerCount: 2
Fore
SplineSet
691.794921875 1544 m 257
 434.83203125 838 l 257
 518.83203125 838 l 257
 775.794921875 1544 l 257
 691.794921875 1544 l 257
296.1484375 424 m 257
 37.73046875 -286 l 257
 127.73046875 -286 l 257
 386.1484375 424 l 257
 296.1484375 424 l 257
91.96484375 690 m 257
 70.126953125 630 l 257
 518.83203125 838 l 257
 434.83203125 838 l 257
 91.96484375 690 l 257
91.96484375 690 m 257
 70.126953125 630 l 257
 294.513671875 425 l 257
 387.513671875 425 l 257
 91.96484375 690 l 257
714.26953125 1603 m 257
 659.310546875 1452 l 257
 971.71484375 1574 l 257
 986.26953125 1603 l 257
 714.26953125 1603 l 257
91.869140625 -140 m 257
 38.3671875 -287 l 257
 314.3671875 -287 l 257
 319.09765625 -274 l 257
 91.869140625 -140 l 257
EndSplineSet
EndChar

StartChar: braceright
Encoding: 125 125 147
GlifName: braceright
Width: 1024
VWidth: 0
Flags: W
LayerCount: 2
Fore
SplineSet
985.931640625 1544 m 257
 885.931640625 1544 l 257
 628.96875 838 l 257
 728.96875 838 l 257
 985.931640625 1544 l 257
564.28515625 424 m 257
 471.28515625 424 l 257
 212.865234375 -286 l 257
 305.865234375 -286 l 257
 564.28515625 424 l 257
948.1015625 690 m 257
 723.96875 838 l 257
 624.96875 838 l 257
 926.26171875 630 l 257
 948.1015625 690 l 257
948.1015625 690 m 257
 471.28515625 424 l 257
 564.28515625 424 l 257
 926.26171875 630 l 257
 948.1015625 690 l 257
1008.40625 1603 m 257
 733.40625 1603 l 257
 726.849609375 1574 l 257
 953.4453125 1452 l 257
 1008.40625 1603 l 257
344.005859375 -140 m 257
 19.234375 -274 l 257
 15.59375 -284 l 257
 291.59375 -284 l 257
 344.005859375 -140 l 257
EndSplineSet
EndChar

StartChar: bracketleft
Encoding: 91 91 148
GlifName: bracketleft
Width: 1024
VWidth: 0
Flags: W
LayerCount: 2
Fore
SplineSet
704.979492188 1542 m 257
 55.65625 -242 l 257
 112.65625 -242 l 257
 761.979492188 1542 l 257
 704.979492188 1542 l 257
759.34375 1543 m 257
 736.77734375 1481 l 257
 945.77734375 1481 l 257
 968.34375 1543 l 257
 759.34375 1543 l 257
118.58984375 -168 m 257
 91.65625 -242 l 257
 323.65625 -242 l 257
 350.58984375 -168 l 257
 118.58984375 -168 l 257
EndSplineSet
EndChar

StartChar: bracketright
Encoding: 93 93 149
GlifName: bracketright
Width: 1024
VWidth: 0
Flags: W
LayerCount: 2
Fore
SplineSet
911.662109375 1542 m 257
 262.337890625 -242 l 257
 324.337890625 -242 l 257
 973.662109375 1542 l 257
 911.662109375 1542 l 257
700.025390625 1543 m 257
 676.3671875 1478 l 257
 904.3671875 1478 l 257
 928.025390625 1543 l 257
 700.025390625 1543 l 257
78.365234375 -165 m 257
 50.337890625 -242 l 257
 289.337890625 -242 l 257
 317.365234375 -165 l 257
 78.365234375 -165 l 257
EndSplineSet
EndChar

StartChar: breve
Encoding: 728 728 150
GlifName: breve
Width: 1024
VWidth: 0
Flags: W
LayerCount: 2
Fore
SplineSet
659.7109375 1550 m 257
 634.232421875 1480 l 257
 824.7109375 1550 l 257
 859.2890625 1645 l 257
 659.7109375 1550 l 257
335.7109375 1550 m 257
 310.232421875 1480 l 257
 634.232421875 1480 l 257
 659.7109375 1550 l 257
 335.7109375 1550 l 257
193.828125 1630 m 257
 164.7109375 1550 l 257
 310.232421875 1480 l 257
 335.7109375 1550 l 257
 193.828125 1630 l 257
EndSplineSet
EndChar

StartChar: brokenbar
Encoding: 166 166 151
GlifName: brokenbar
Width: 1024
VWidth: 0
Flags: W
LayerCount: 2
Fore
SplineSet
131.853515625 -332 m 257
 175.853515625 -332 l 257
 544.918945312 682 l 257
 500.918945312 682 l 257
 131.853515625 -332 l 257
547.227539062 790 m 257
 584.227539062 790 l 257
 892.146484375 1636 l 257
 855.146484375 1636 l 257
 547.227539062 790 l 257
EndSplineSet
EndChar

StartChar: bullet
Encoding: 8226 8226 152
GlifName: bullet
Width: 1024
VWidth: 0
Flags: W
LayerCount: 2
Fore
SplineSet
465.02734375 1009 m 257
 404.97265625 844 l 257
 558.97265625 844 l 257
 619.02734375 1009 l 257
 465.02734375 1009 l 257
EndSplineSet
EndChar

StartChar: c
Encoding: 99 99 153
GlifName: c
Width: 1024
VWidth: 0
Flags: HW
AnchorPoint: "base" 448 -69 basechar 0
AnchorPoint: "top" 932.342 1114 basechar 0
LayerCount: 2
Fore
SplineSet
536.341796875 1023 m 257
 515.958984375 967 l 257
 1211.95898438 967 l 257
 1232.34179688 1023 l 257
 536.341796875 1023 l 257
524.146484375 984 m 257
 166 0 l 257
 226 0 l 257
 584.146484375 984 l 257
 524.146484375 984 l 257
235.837890625 60 m 257
 214 0 l 257
 854 0 l 257
 875.837890625 60 l 257
 235.837890625 60 l 257
EndSplineSet
EndChar

StartChar: caron
Encoding: 711 711 155
GlifName: caron
Width: 1024
VWidth: 0
Flags: W
LayerCount: 2
Fore
SplineSet
397.44140625 1068 m 257
 375.458984375 1395 l 257
 342.271484375 1378 l 257
 361.44140625 1068 l 257
 397.44140625 1068 l 257
364.078125 1067 m 257
 401.078125 1067 l 257
 681.728515625 1382 l 257
 647.279296875 1400 l 257
 364.078125 1067 l 257
EndSplineSet
EndChar

StartChar: cedilla
Encoding: 184 184 160
GlifName: cedilla
Width: 1024
VWidth: 0
Flags: W
LayerCount: 2
Fore
SplineSet
422.764648438 236 m 257
 336.8671875 0 l 257
 394.8671875 0 l 257
 480.764648438 236 l 257
 422.764648438 236 l 257
236.952148438 -291 m 257
 214.75 -352 l 257
 660.75 -352 l 257
 682.952148438 -291 l 257
 236.952148438 -291 l 257
750.25 56 m 257
 614.852539062 -316 l 257
 673.852539062 -316 l 257
 809.25 56 l 257
 750.25 56 l 257
363.25 56 m 257
 342.8671875 0 l 257
 788.8671875 0 l 257
 809.25 56 l 257
 363.25 56 l 257
EndSplineSet
EndChar

StartChar: cent
Encoding: 162 162 161
GlifName: cent
Width: 1024
VWidth: 0
Flags: W
LayerCount: 2
Fore
SplineSet
847.40625 1183 m 257
 787.40625 1183 l 257
 325.52734375 -86 l 257
 385.52734375 -86 l 257
 847.40625 1183 l 257
349.170898438 1023 m 257
 328.424804688 966 l 257
 1024.42480469 966 l 257
 1045.17089844 1023 l 257
 349.170898438 1023 l 257
336.975585938 984 m 257
 -21.1708984375 0 l 257
 43.8291015625 0 l 257
 401.975585938 984 l 257
 336.975585938 984 l 257
50.03125 61 m 257
 27.8291015625 0 l 257
 666.829101562 0 l 257
 689.03125 61 l 257
 50.03125 61 l 257
EndSplineSet
EndChar

StartChar: circumflex
Encoding: 710 710 162
GlifName: circumflex
Width: 1024
VWidth: 0
Flags: W
LayerCount: 2
Fore
SplineSet
624.55859375 2308 m 257
 588.55859375 2308 l 257
 343.728515625 1998 l 257
 364.541015625 1981 l 257
 624.55859375 2308 l 257
592.287109375 2310 m 257
 632.720703125 1976 l 257
 680.271484375 1994 l 257
 629.287109375 2310 l 257
 592.287109375 2310 l 257
EndSplineSet
EndChar

StartChar: colon
Encoding: 58 58 163
GlifName: colon
Width: 1024
VWidth: 0
Flags: HW
LayerCount: 2
Fore
SplineSet
503.69140625 164 m 257
 446.548828125 7 l 257
 582.548828125 7 l 257
 639.69140625 164 l 257
 503.69140625 164 l 257
645.275390625 553 m 257
 588.1328125 396 l 257
 724.1328125 396 l 257
 781.275390625 553 l 257
 645.275390625 553 l 257
EndSplineSet
EndChar

StartChar: comma
Encoding: 44 44 164
GlifName: comma
Width: 1024
VWidth: 0
Flags: W
LayerCount: 2
Fore
SplineSet
472.571289062 165 m 257
 415.428710938 8 l 257
 551.428710938 8 l 257
 608.571289062 165 l 257
 472.571289062 165 l 257
545.65234375 135 m 257
 418.483398438 -99 l 257
 450.649414062 -148 l 257
 555.979492188 26 l 257
 545.65234375 135 l 257
EndSplineSet
EndChar

StartChar: copyright
Encoding: 169 169 165
GlifName: copyright
Width: 1024
VWidth: 0
Flags: W
LayerCount: 2
Fore
SplineSet
292.803710938 1540 m 257
 -267.7109375 0 l 257
 -207.7109375 0 l 257
 352.803710938 1540 l 257
 292.803710938 1540 l 257
1231.7109375 1537 m 257
 672.2890625 0 l 257
 732.2890625 0 l 257
 1291.7109375 1537 l 257
 1231.7109375 1537 l 257
344.075195312 1538 m 257
 321.508789062 1476 l 257
 1265.50878906 1476 l 257
 1288.07519531 1538 l 257
 344.075195312 1538 l 257
-233.873046875 60 m 257
 -255.7109375 0 l 257
 714.2890625 0 l 257
 736.126953125 60 l 257
 -233.873046875 60 l 257
413.961914062 1197 m 257
 391.395507812 1135 l 257
 825.395507812 1135 l 257
 847.961914062 1197 l 257
 413.961914062 1197 l 257
398.310546875 1154 m 257
 102.0390625 340 l 257
 162.0390625 340 l 257
 458.310546875 1154 l 257
 398.310546875 1154 l 257
107.862304688 356 m 257
 85.2958984375 294 l 257
 525.295898438 294 l 257
 547.862304688 356 l 257
 107.862304688 356 l 257
EndSplineSet
EndChar

StartChar: currency
Encoding: 164 164 166
GlifName: currency
Width: 1024
VWidth: 0
Flags: W
LayerCount: 2
Fore
SplineSet
284.533203125 1182 m 257
 -87.4453125 160 l 257
 -27.4453125 160 l 257
 344.533203125 1182 l 257
 284.533203125 1182 l 257
1043.25976562 1184 m 257
 670.5546875 160 l 257
 730.5546875 160 l 257
 1103.25976562 1184 l 257
 1043.25976562 1184 l 257
348.3515625 1187 m 257
 326.513671875 1127 l 257
 1026.51367188 1127 l 257
 1048.3515625 1187 l 257
 348.3515625 1187 l 257
-18.87890625 222 m 257
 -41.4453125 160 l 257
 678.5546875 160 l 257
 701.12109375 222 l 257
 -18.87890625 222 l 257
235.646484375 1251 m 257
 194.154296875 1137 l 257
 338.154296875 1137 l 257
 379.646484375 1251 l 257
 235.646484375 1251 l 257
1068.0078125 1241 m 257
 1026.51367188 1127 l 257
 1168.51367188 1127 l 257
 1210.0078125 1241 l 257
 1068.0078125 1241 l 257
-144.515625 223 m 257
 -186.0078125 109 l 257
 -42.0078125 109 l 257
 -0.515625 223 l 257
 -144.515625 223 l 257
698.392578125 220 m 257
 656.900390625 106 l 257
 800.900390625 106 l 257
 842.392578125 220 l 257
 698.392578125 220 l 257
EndSplineSet
EndChar

StartChar: d
Encoding: 100 100 167
GlifName: d
Width: 1024
VWidth: 0
Flags: HW
AnchorPoint: "base" 484 -69 basechar 0
AnchorPoint: "top" 1478.78 1648 basechar 0
LayerCount: 2
Fore
SplineSet
1387.78125 1527 m 257
 832 0 l 257
 892 0 l 257
 1447.78125 1527 l 257
 1387.78125 1527 l 257
548.341796875 1023 m 257
 527.595703125 966 l 257
 1217.59570312 966 l 257
 1238.34179688 1023 l 257
 548.341796875 1023 l 257
504.341796875 1023 m 257
 132 0 l 257
 192 0 l 257
 564.341796875 1023 l 257
 504.341796875 1023 l 257
193.474609375 59 m 257
 172 0 l 257
 844 0 l 257
 865.474609375 59 l 257
 193.474609375 59 l 257
EndSplineSet
EndChar

StartChar: dagger
Encoding: 8224 8224 168
GlifName: dagger
Width: 1024
VWidth: 0
Flags: W
LayerCount: 2
Fore
SplineSet
300.6640625 1251 m 257
 282.1015625 1200 l 257
 888.1015625 1200 l 257
 906.6640625 1251 l 257
 300.6640625 1251 l 257
681.490234375 1550 m 257
 117.3359375 0 l 257
 183.3359375 0 l 257
 747.490234375 1550 l 257
 681.490234375 1550 l 257
EndSplineSet
EndChar

StartChar: daggerdbl
Encoding: 8225 8225 169
GlifName: daggerdbl
Width: 1024
VWidth: 0
Flags: W
LayerCount: 2
Fore
SplineSet
140.391601562 823 m 257
 121.829101562 772 l 257
 727.829101562 772 l 257
 746.391601562 823 l 257
 140.391601562 823 l 257
296.170898438 1251 m 257
 277.608398438 1200 l 257
 883.608398438 1200 l 257
 902.170898438 1251 l 257
 296.170898438 1251 l 257
685.998046875 1550 m 257
 121.84375 0 l 257
 183.84375 0 l 257
 747.998046875 1550 l 257
 685.998046875 1550 l 257
EndSplineSet
EndChar

StartChar: dcaron
Encoding: 271 271 170
GlifName: dcaron
Width: 1024
VWidth: 0
Flags: W
LayerCount: 2
Fore
SplineSet
1041.53320312 1527 m 257
 485.75 0 l 257
 545.75 0 l 257
 1101.53320312 1527 l 257
 1041.53320312 1527 l 257
202.091796875 1023 m 257
 179.890625 962 l 257
 855.890625 962 l 257
 878.091796875 1023 l 257
 202.091796875 1023 l 257
158.091796875 1023 m 257
 -214.25 0 l 257
 -156.25 0 l 257
 216.091796875 1023 l 257
 158.091796875 1023 l 257
-176.412109375 60 m 257
 -198.25 0 l 257
 497.75 0 l 257
 519.587890625 60 l 257
 -176.412109375 60 l 257
1188.25 1496 m 257
 1103.80859375 1264 l 257
 1153.80859375 1264 l 257
 1238.25 1496 l 257
 1188.25 1496 l 257
EndSplineSet
EndChar

StartChar: dcroat
Encoding: 273 273 171
GlifName: dcroat
Width: 1024
VWidth: 0
Flags: W
LayerCount: 2
Fore
SplineSet
1106.48046875 1527 m 257
 550.69921875 0 l 257
 610.69921875 0 l 257
 1166.48046875 1527 l 257
 1106.48046875 1527 l 257
253.041015625 1023 m 257
 230.837890625 962 l 257
 922.837890625 962 l 257
 945.041015625 1023 l 257
 253.041015625 1023 l 257
221.041015625 1023 m 257
 -151.30078125 0 l 257
 -91.30078125 0 l 257
 281.041015625 1023 l 257
 221.041015625 1023 l 257
-81.099609375 61 m 257
 -103.30078125 0 l 257
 562.69921875 0 l 257
 584.900390625 61 l 257
 -81.099609375 61 l 257
867.30078125 1260 m 257
 846.19140625 1202 l 257
 1154.19140625 1202 l 257
 1175.30078125 1260 l 257
 867.30078125 1260 l 257
EndSplineSet
EndChar

StartChar: degree
Encoding: 176 176 172
GlifName: degree
Width: 1024
VWidth: 0
Flags: W
LayerCount: 2
Fore
SplineSet
429.3984375 1439 m 257
 679.3984375 1439 l 257
 603.692382812 1231 l 257
 353.692382812 1231 l 257
 429.3984375 1439 l 257
388.233398438 1488 m 257
 275.766601562 1179 l 257
 635.766601562 1179 l 257
 748.233398438 1488 l 257
 388.233398438 1488 l 257
EndSplineSet
EndChar

StartChar: dieresis
Encoding: 168 168 173
GlifName: dieresis
Width: 1024
VWidth: 0
Flags: W
LayerCount: 2
Fore
SplineSet
353.19921875 1023 m 257
 316.80078125 923 l 257
 428.80078125 923 l 257
 465.19921875 1023 l 257
 353.19921875 1023 l 257
595.19921875 1023 m 257
 558.80078125 923 l 257
 670.80078125 923 l 257
 707.19921875 1023 l 257
 595.19921875 1023 l 257
EndSplineSet
EndChar

StartChar: divide
Encoding: 247 247 174
GlifName: divide
Width: 1024
VWidth: 0
Flags: W
LayerCount: 2
Fore
SplineSet
343.422851562 264 m 257
 320.493164062 201 l 257
 422.493164062 201 l 257
 445.422851562 264 l 257
 343.422851562 264 l 257
640.706054688 1111 m 257
 617.412109375 1047 l 257
 708.412109375 1047 l 257
 731.706054688 1111 l 257
 640.706054688 1111 l 257
110.283203125 662 m 257
 87.716796875 600 l 257
 913.716796875 600 l 257
 936.283203125 662 l 257
 110.283203125 662 l 257
EndSplineSet
EndChar

StartChar: dollar
Encoding: 36 36 175
GlifName: dollar
Width: 1024
VWidth: 0
Flags: W
LayerCount: 2
Fore
SplineSet
479.075195312 1539 m 257
 449.229492188 1457 l 257
 1047.22949219 1457 l 257
 1077.07519531 1539 l 257
 479.075195312 1539 l 257
480.166992188 1542 m 257
 293.0859375 1028 l 257
 377.0859375 1028 l 257
 564.166992188 1542 l 257
 480.166992188 1542 l 257
-27.9609375 69 m 257
 -53.0751953125 0 l 257
 654.924804688 0 l 257
 680.0390625 69 l 257
 -27.9609375 69 l 257
610.924804688 0 m 257
 690.924804688 0 l 257
 820.133789062 355 l 257
 740.133789062 355 l 257
 610.924804688 0 l 257
293.0859375 1028 m 257
 739.133789062 355 l 257
 820.133789062 355 l 257
 377.0859375 1028 l 257
 293.0859375 1028 l 257
809.379882812 1636 m 257
 135.670898438 -215 l 257
 205.670898438 -215 l 257
 879.379882812 1636 l 257
 809.379882812 1636 l 257
EndSplineSet
EndChar

StartChar: dotaccent
Encoding: 729 729 176
GlifName: dotaccent
Width: 1024
VWidth: 0
Flags: W
AnchorPoint: "top" -28 1468 mark 0
LayerCount: 2
Fore
SplineSet
474.380859375 1078 m 257
 437.619140625 977 l 257
 549.619140625 977 l 257
 586.380859375 1078 l 257
 474.380859375 1078 l 257
EndSplineSet
EndChar

StartChar: dotbelowcomb
Encoding: 803 803 177
GlifName: dotbelowcomb
Width: 0
VWidth: 0
GlyphClass: 4
Flags: HW
AnchorPoint: "base" -133.201 -187 mark 0
LayerCount: 2
Fore
SplineSet
-145.552734375 -290 m 257
 -172.849609375 -365 l 257
 -92.849609375 -365 l 257
 -65.552734375 -290 l 257
 -145.552734375 -290 l 257
EndSplineSet
EndChar

StartChar: dotlessi
Encoding: 305 305 178
GlifName: dotlessi
Width: 1024
VWidth: 0
Flags: W
AnchorPoint: "top" 912 1155 basechar 0
AnchorPoint: "base" 482 -93 basechar 0
LayerCount: 2
Fore
SplineSet
852.670898438 1023 m 257
 499.255859375 52 l 257
 559.255859375 52 l 257
 912.670898438 1023 l 257
 852.670898438 1023 l 257
133.166992188 60 m 257
 111.329101562 0 l 257
 853.329101562 0 l 257
 875.166992188 60 l 257
 133.166992188 60 l 257
533.670898438 1023 m 257
 511.46875 962 l 257
 847.46875 962 l 257
 869.670898438 1023 l 257
 533.670898438 1023 l 257
EndSplineSet
EndChar

StartChar: e
Encoding: 101 101 179
GlifName: e
Width: 1024
VWidth: 0
Flags: W
AnchorPoint: "top" 713 1133 basechar 0
AnchorPoint: "base" 366 -87 basechar 0
LayerCount: 2
Fore
SplineSet
404.170898438 1023 m 257
 371.608398438 972 l 257
 1010.60839844 972 l 257
 1043.17089844 1023 l 257
 404.170898438 1023 l 257
352.170898438 1023 m 257
 -20.1708984375 0 l 257
 37.8291015625 0 l 257
 410.170898438 1023 l 257
 352.170898438 1023 l 257
44.03125 61 m 257
 21.8291015625 0 l 257
 666.829101562 0 l 257
 689.03125 61 l 257
 44.03125 61 l 257
184.998046875 506 m 257
 171.16015625 446 l 257
 800.16015625 446 l 257
 821.998046875 506 l 257
 184.998046875 506 l 257
985.170898438 1023 m 257
 774.795898438 445 l 257
 833.795898438 445 l 257
 1044.17089844 1023 l 257
 985.170898438 1023 l 257
EndSplineSet
EndChar

StartChar: eight
Encoding: 56 56 187
GlifName: eight
Width: 1024
VWidth: 0
Flags: HW
LayerCount: 2
Fore
SplineSet
619.654296875 1550 m 257
 55.5 0 l 257
 968.5 0 l 257
 1532.65429688 1550 l 257
 619.654296875 1550 l 257
1233.70898438 899 m 257
 927.24609375 57 l 257
 139.24609375 57 l 257
 445.708984375 899 l 257
 1233.70898438 899 l 257
1256.54785156 959 m 257
 466.547851562 959 l 257
 659.452148438 1489 l 257
 1449.45214844 1489 l 257
 1256.54785156 959 l 257
EndSplineSet
EndChar

StartChar: ellipsis
Encoding: 8230 8230 188
GlifName: ellipsis
Width: 1024
VWidth: 0
Flags: W
LayerCount: 2
Fore
SplineSet
200.74609375 114 m 257
 159.25390625 0 l 257
 301.25390625 0 l 257
 342.74609375 114 l 257
 200.74609375 114 l 257
456.74609375 114 m 257
 415.25390625 0 l 257
 559.25390625 0 l 257
 600.74609375 114 l 257
 456.74609375 114 l 257
722.74609375 114 m 257
 681.25390625 0 l 257
 823.25390625 0 l 257
 864.74609375 114 l 257
 722.74609375 114 l 257
EndSplineSet
EndChar

StartChar: emdash
Encoding: 8212 8212 190
GlifName: emdash
Width: 1024
VWidth: 0
Flags: W
LayerCount: 2
Fore
SplineSet
-9.28125 600 m 257
 1014.71875 600 l 257
 1033.28125 651 l 257
 9.28125 651 l 257
 -9.28125 600 l 257
EndSplineSet
EndChar

StartChar: endash
Encoding: 8211 8211 191
GlifName: endash
Width: 1024
VWidth: 0
Flags: W
LayerCount: 2
Fore
SplineSet
84.44140625 600 m 257
 910.44140625 600 l 257
 939.55859375 680 l 257
 113.55859375 680 l 257
 84.44140625 600 l 257
EndSplineSet
EndChar

StartChar: eng
Encoding: 331 331 192
GlifName: eng
Width: 1024
VWidth: 0
Flags: W
LayerCount: 2
Fore
SplineSet
109.53125 -366 m 257
 89.8291015625 -408 l 257
 476.829101562 -408 l 257
 496.53125 -366 l 257
 109.53125 -366 l 257
386.659179688 990 m 257
 26.3291015625 0 l 257
 83.3291015625 0 l 257
 443.659179688 990 l 257
 386.659179688 990 l 257
921.564453125 976 m 257
 417.829101562 -408 l 257
 477.829101562 -408 l 257
 981.564453125 976 l 257
 921.564453125 976 l 257
219.670898438 1023 m 257
 200.96875 970 l 257
 978.96875 970 l 257
 997.670898438 1023 l 257
 219.670898438 1023 l 257
EndSplineSet
EndChar

StartChar: equal
Encoding: 61 61 194
GlifName: equal
Width: 1024
VWidth: 0
Flags: HW
LayerCount: 2
Fore
SplineSet
403.911132812 824 m 257
 367.514648438 724 l 257
 1183.51464844 724 l 257
 1219.91113281 824 l 257
 403.911132812 824 l 257
300.543945312 540 m 257
 267.786132812 450 l 257
 1083.78613281 450 l 257
 1116.54394531 540 l 257
 300.543945312 540 l 257
EndSplineSet
EndChar

StartChar: eth
Encoding: 240 240 195
GlifName: eth
Width: 1024
VWidth: 0
Flags: W
LayerCount: 2
Fore
SplineSet
740.462890625 1550 m 257
 780.30859375 0 l 257
 828.30859375 0 l 257
 796.462890625 1550 l 257
 740.462890625 1550 l 257
480.650390625 1023 m 257
 459.17578125 964 l 257
 783.17578125 964 l 257
 804.650390625 1023 l 257
 480.650390625 1023 l 257
440.650390625 1023 m 257
 68.30859375 0 l 257
 128.30859375 0 l 257
 500.650390625 1023 l 257
 440.650390625 1023 l 257
135.783203125 59 m 257
 114.30859375 0 l 257
 780.30859375 0 l 257
 801.783203125 59 l 257
 135.783203125 59 l 257
611.69140625 1416 m 257
 588.033203125 1351 l 257
 932.033203125 1351 l 257
 955.69140625 1416 l 257
 611.69140625 1416 l 257
EndSplineSet
EndChar

StartChar: exclam
Encoding: 33 33 196
GlifName: exclam
Width: 1024
VWidth: 0
Flags: W
LayerCount: 2
Fore
SplineSet
230.7734375 9 m 257
 297.7734375 9 l 257
 333.443359375 107 l 257
 266.443359375 107 l 257
 230.7734375 9 l 257
350.705078125 344 m 257
 422.705078125 344 l 257
 793.2265625 1362 l 257
 721.2265625 1362 l 257
 350.705078125 344 l 257
EndSplineSet
EndChar

StartChar: exclamdown
Encoding: 161 161 197
GlifName: exclamdown
Width: 1024
VWidth: 0
Flags: W
LayerCount: 2
Fore
SplineSet
814.5234375 1520 m 257
 754.5234375 1520 l 257
 664.258789062 1272 l 257
 724.258789062 1272 l 257
 814.5234375 1520 l 257
633.998046875 1035 m 257
 579.998046875 1035 l 257
 209.4765625 17 l 257
 267.4765625 17 l 257
 633.998046875 1035 l 257
EndSplineSet
EndChar

StartChar: f
Encoding: 102 102 198
GlifName: f
Width: 1024
VWidth: 0
Flags: W
AnchorPoint: "base" 70 -447 basechar 0
AnchorPoint: "top" 757 1122 basechar 0
LayerCount: 2
Fore
SplineSet
573.056640625 1023 m 257
 52.943359375 -406 l 257
 112.943359375 -406 l 257
 633.056640625 1023 l 257
 573.056640625 1023 l 257
573.056640625 1023 m 257
 551.217773438 963 l 257
 949.217773438 963 l 257
 971.056640625 1023 l 257
 573.056640625 1023 l 257
158.869140625 462 m 257
 137.03125 402 l 257
 615.03125 402 l 257
 636.869140625 462 l 257
 158.869140625 462 l 257
EndSplineSet
EndChar

StartChar: five
Encoding: 53 53 199
GlifName: five
Width: 1024
VWidth: 0
Flags: HW
LayerCount: 2
Fore
SplineSet
1233.20898438 899 m 257
 927.110351562 58 l 257
 69.1103515625 58 l 257
 48 0 l 257
 966 0 l 257
 1315.04785156 959 l 257
 458.047851562 959 l 257
 652.043945312 1492 l 257
 1519.04394531 1492 l 257
 1540.15429688 1550 l 257
 613.154296875 1550 l 257
 376.208984375 899 l 257
 1233.20898438 899 l 257
EndSplineSet
EndChar

StartChar: four
Encoding: 52 52 200
GlifName: four
Width: 1024
VWidth: 0
Flags: HW
LayerCount: 2
Fore
SplineSet
369.982421875 761 m 257
 1150.98242188 761 l 257
 876.548828125 7 l 257
 933.548828125 7 l 257
 1495.15429688 1550 l 257
 1435.15429688 1550 l 257
 1169.8203125 821 l 257
 451.8203125 821 l 257
 717.154296875 1550 l 257
 657.154296875 1550 l 257
 369.982421875 761 l 257
EndSplineSet
EndChar

StartChar: g
Encoding: 103 103 201
GlifName: g
Width: 1024
VWidth: 0
Flags: W
AnchorPoint: "base" 265 -486 basechar 0
AnchorPoint: "top" 757 1167 basechar 0
LayerCount: 2
Fore
SplineSet
464.330078125 1023 m 257
 91.98828125 0 l 257
 151.98828125 0 l 257
 524.330078125 1023 l 257
 464.330078125 1023 l 257
504.330078125 1023 m 257
 482.12890625 962 l 257
 998.12890625 962 l 257
 1020.33007812 1023 l 257
 504.330078125 1023 l 257
982.330078125 1023 m 257
 460.396484375 -411 l 257
 520.396484375 -411 l 257
 1042.33007812 1023 l 257
 982.330078125 1023 l 257
176.099609375 58 m 257
 154.98828125 0 l 257
 611.98828125 0 l 257
 633.099609375 58 l 257
 176.099609375 58 l 257
3.142578125 -354 m 257
 -18.330078125 -413 l 257
 470.669921875 -413 l 257
 492.142578125 -354 l 257
 3.142578125 -354 l 257
EndSplineSet
EndChar

StartChar: germandbls
Encoding: 223 223 205
GlifName: germandbls
Width: 1024
VWidth: 0
Flags: W
LayerCount: 2
Fore
SplineSet
96.466796875 1084 m 257
 74.2646484375 1023 l 257
 325.264648438 1023 l 257
 347.466796875 1084 l 257
 96.466796875 1084 l 257
451.077148438 1550 m 257
 -113.077148438 0 l 257
 -49.0771484375 0 l 257
 515.077148438 1550 l 257
 451.077148438 1550 l 257
503.077148438 1550 m 257
 480.510742188 1488 l 257
 1087.51074219 1488 l 257
 1110.07714844 1550 l 257
 503.077148438 1550 l 257
1076.07714844 1550 m 257
 884.264648438 1023 l 257
 945.264648438 1023 l 257
 1137.07714844 1550 l 257
 1076.07714844 1550 l 257
902.458984375 1062 m 257
 664.458984375 1062 l 257
 578.5625 826 l 257
 816.5625 826 l 257
 902.458984375 1062 l 257
822.569335938 848 m 257
 577.6171875 175 l 257
 635.6171875 175 l 257
 880.569335938 848 l 257
 822.569335938 848 l 257
298.985351562 187 m 257
 278.602539062 131 l 257
 621.602539062 131 l 257
 641.985351562 187 l 257
 298.985351562 187 l 257
EndSplineSet
EndChar

StartChar: glyph094D
Encoding: 65536 -1 206
GlifName: glyph094D_
Width: 1024
VWidth: 0
Flags: W
LayerCount: 2
Fore
SplineSet
259.295898438 -16 m 257
 237.09375 -77 l 257
 581.09375 -77 l 257
 603.295898438 -16 l 257
 259.295898438 -16 l 257
554.27734375 -71 m 257
 737.979492188 -418 l 257
 786.90625 -366 l 257
 603.659179688 -15 l 257
 554.27734375 -71 l 257
EndSplineSet
EndChar

StartChar: grave
Encoding: 96 96 207
GlifName: grave
Width: 1024
VWidth: 0
Flags: W
LayerCount: 2
Fore
SplineSet
457.665039062 1286 m 257
 458.31640625 1057 l 257
 566.334960938 1112 l 257
 557.319335938 1340 l 257
 457.665039062 1286 l 257
EndSplineSet
EndChar

StartChar: gravecomb
Encoding: 768 768 208
GlifName: gravecomb
Width: 0
VWidth: 0
GlyphClass: 4
Flags: HW
AnchorPoint: "top" 347.904 611 mark 0
LayerCount: 2
Fore
SplineSet
227.202148438 877 m 257
 276.952148438 673 l 257
 356.606445312 727 l 257
 307.220703125 932 l 257
 227.202148438 877 l 257
EndSplineSet
EndChar

StartChar: greater
Encoding: 62 62 209
GlifName: greater
Width: 1024
VWidth: 0
Flags: HW
LayerCount: 2
Fore
SplineSet
1151.02929688 632 m 257
 473.702148438 1013 l 257
 451.5 952 l 257
 1128.09863281 569 l 257
 1151.02929688 632 l 257
1151.02929688 632 m 257
 170.698242188 186 l 257
 147.404296875 122 l 257
 1128.09863281 569 l 257
 1151.02929688 632 l 257
EndSplineSet
EndChar

StartChar: guillemotleft
Encoding: 171 171 210
GlifName: guillemotleft
Width: 1024
VWidth: 0
Flags: W
LayerCount: 2
Fore
SplineSet
47.58984375 509 m 257
 34.123046875 472 l 257
 574.854492188 757 l 257
 584.681640625 784 l 257
 47.58984375 509 l 257
47.58984375 509 m 257
 34.123046875 472 l 257
 274.733398438 122 l 257
 296.564453125 160 l 257
 47.58984375 509 l 257
472.141601562 527 m 257
 461.5859375 498 l 257
 975.317382812 783 l 257
 989.876953125 823 l 257
 472.141601562 527 l 257
471.141601562 527 m 257
 460.22265625 497 l 257
 689.733398438 122 l 257
 716.560546875 149 l 257
 471.141601562 527 l 257
EndSplineSet
EndChar

StartChar: guillemotright
Encoding: 187 187 211
GlifName: guillemotright
Width: 1024
VWidth: 0
Flags: W
LayerCount: 2
Fore
SplineSet
977.514648438 509 m 257
 640.606445312 784 l 257
 630.779296875 757 l 257
 963.047851562 472 l 257
 977.514648438 509 l 257
977.514648438 509 m 257
 474.489257812 160 l 257
 468.658203125 122 l 257
 963.047851562 472 l 257
 977.514648438 509 l 257
566.06640625 527 m 257
 263.801757812 823 l 257
 249.2421875 783 l 257
 556.510742188 498 l 257
 566.06640625 527 l 257
567.06640625 527 m 257
 46.4853515625 149 l 257
 53.658203125 122 l 257
 556.147460938 497 l 257
 567.06640625 527 l 257
EndSplineSet
EndChar

StartChar: guilsinglleft
Encoding: 8249 8249 212
GlifName: guilsinglleft
Width: 1024
VWidth: 0
Flags: W
LayerCount: 2
Fore
SplineSet
52.408203125 652 m 257
 22.1982421875 569 l 257
 977.415039062 946 l 257
 1001.80175781 1013 l 257
 52.408203125 652 l 257
52.408203125 652 m 257
 22.1982421875 569 l 257
 671.50390625 122 l 257
 699.529296875 199 l 257
 52.408203125 652 l 257
EndSplineSet
EndChar

StartChar: guilsinglright
Encoding: 8250 8250 213
GlifName: guilsinglright
Width: 1024
VWidth: 0
Flags: W
LayerCount: 2
Fore
SplineSet
1013.8125 632 m 257
 336.485351562 1013 l 257
 314.283203125 952 l 257
 990.881835938 569 l 257
 1013.8125 632 l 257
1013.8125 632 m 257
 33.4814453125 186 l 257
 10.1875 122 l 257
 990.881835938 569 l 257
 1013.8125 632 l 257
EndSplineSet
EndChar

StartChar: h
Encoding: 104 104 214
GlifName: h
Width: 1024
VWidth: 0
Flags: W
AnchorPoint: "top" 590 1631 basechar 0
AnchorPoint: "base" 341 -52 basechar 0
LayerCount: 2
Fore
SplineSet
540.8828125 1525 m 257
 -11.98828125 6 l 257
 47.01171875 6 l 257
 599.8828125 1525 l 257
 540.8828125 1525 l 257
399.98828125 1028 m 257
 378.150390625 968 l 257
 967.150390625 968 l 257
 988.98828125 1028 l 257
 399.98828125 1028 l 257
976.98828125 1028 m 257
 602.828125 0 l 257
 661.828125 0 l 257
 1035.98828125 1028 l 257
 976.98828125 1028 l 257
EndSplineSet
EndChar

StartChar: hbar
Encoding: 295 295 215
GlifName: hbar
Width: 1024
VWidth: 0
Flags: W
LayerCount: 2
Fore
SplineSet
547.615234375 1541 m 257
 -11.0791015625 6 l 257
 48.9208984375 6 l 257
 607.615234375 1541 l 257
 547.615234375 1541 l 257
393.079101562 1023 m 257
 372.333007812 966 l 257
 1006.33300781 966 l 257
 1027.07910156 1023 l 257
 393.079101562 1023 l 257
976.079101562 1023 m 257
 603.737304688 0 l 257
 662.737304688 0 l 257
 1035.07910156 1023 l 257
 976.079101562 1023 l 257
370.850585938 1429 m 257
 349.012695312 1369 l 257
 805.012695312 1369 l 257
 826.850585938 1429 l 257
 370.850585938 1429 l 257
EndSplineSet
EndChar

StartChar: hookabovecomb
Encoding: 777 777 217
GlifName: hookabovecomb
Width: 0
VWidth: 0
GlyphClass: 4
Flags: HW
AnchorPoint: "top" 447.573 1095 mark 0
LayerCount: 2
Fore
SplineSet
345.573242188 1774 m 257
 345.573242188 1703 l 257
 800.573242188 1703 l 257
 800.573242188 1774 l 257
 345.573242188 1774 l 257
740.573242188 1774 m 257
 740.573242188 1432 l 257
 805.573242188 1432 l 257
 805.573242188 1774 l 257
 740.573242188 1774 l 257
433.573242188 1453 m 257
 433.573242188 1386 l 257
 804.573242188 1386 l 257
 804.573242188 1453 l 257
 433.573242188 1453 l 257
433.573242188 1453 m 257
 433.573242188 1190 l 257
 495.573242188 1190 l 257
 495.573242188 1453 l 257
 433.573242188 1453 l 257
EndSplineSet
EndChar

StartChar: hungarumlaut
Encoding: 733 733 218
GlifName: hungarumlaut
Width: 1024
VWidth: 0
Flags: W
LayerCount: 2
Fore
SplineSet
235.3671875 122 m 257
 300.3671875 122 l 257
 390.6328125 370 l 257
 325.6328125 370 l 257
 235.3671875 122 l 257
638.3671875 122 m 257
 698.3671875 122 l 257
 788.6328125 370 l 257
 728.6328125 370 l 257
 638.3671875 122 l 257
EndSplineSet
EndChar

StartChar: hyphen
Encoding: 45 45 219
GlifName: hyphen
Width: 1024
VWidth: 0
Flags: W
LayerCount: 2
Fore
SplineSet
116.833984375 793 m 257
 81.166015625 695 l 257
 907.166015625 695 l 257
 942.833984375 793 l 257
 116.833984375 793 l 257
EndSplineSet
EndChar

StartChar: i
Encoding: 105 105 220
GlifName: i
Width: 1024
VWidth: 0
Flags: W
AnchorPoint: "base" 509 -68 basechar 0
LayerCount: 2
Fore
SplineSet
852.670898438 1023 m 257
 499.255859375 52 l 257
 559.255859375 52 l 257
 912.670898438 1023 l 257
 852.670898438 1023 l 257
133.166992188 60 m 257
 111.329101562 0 l 257
 853.329101562 0 l 257
 875.166992188 60 l 257
 133.166992188 60 l 257
764.579101562 1292 m 257
 721.629882812 1174 l 257
 834.629882812 1174 l 257
 877.579101562 1292 l 257
 764.579101562 1292 l 257
533.670898438 1023 m 257
 511.46875 962 l 257
 847.46875 962 l 257
 869.670898438 1023 l 257
 533.670898438 1023 l 257
EndSplineSet
EndChar

StartChar: j
Encoding: 106 106 230
GlifName: j
Width: 1024
VWidth: 0
Flags: W
AnchorPoint: "base" 226 -447 basechar 0
AnchorPoint: "top" 1114 1317 basechar 0
LayerCount: 2
Fore
SplineSet
995.6640625 1023 m 257
 473.73046875 -411 l 257
 531.73046875 -411 l 257
 1053.6640625 1023 l 257
 995.6640625 1023 l 257
-73.33984375 -348 m 257
 -94.44921875 -406 l 257
 495.55078125 -406 l 257
 516.66015625 -348 l 257
 -73.33984375 -348 l 257
51.138671875 -6 m 257
 -84.259765625 -378 l 257
 -24.259765625 -378 l 257
 111.138671875 -6 l 257
 51.138671875 -6 l 257
1058.44921875 1201 m 257
 1036.9765625 1142 l 257
 1096.9765625 1142 l 257
 1118.44921875 1201 l 257
 1058.44921875 1201 l 257
EndSplineSet
EndChar

StartChar: k
Encoding: 107 107 232
GlifName: k
Width: 1024
VWidth: 0
Flags: W
AnchorPoint: "base" 343 -24 basechar 0
AnchorPoint: "top" 607 1638 basechar 0
LayerCount: 2
Fore
SplineSet
530.61328125 1535 m 257
 -26.2607421875 5 l 257
 33.7392578125 5 l 257
 590.61328125 1535 l 257
 530.61328125 1535 l 257
174.150390625 421 m 257
 149.036132812 352 l 257
 1050.26074219 1023 l 257
 990.260742188 1023 l 257
 174.150390625 421 l 257
490.668945312 612 m 257
 433.017578125 569 l 257
 782.918945312 0 l 257
 843.918945312 0 l 257
 490.668945312 612 l 257
EndSplineSet
EndChar

StartChar: l
Encoding: 108 108 233
GlifName: l
Width: 1024
VWidth: 0
Flags: W
AnchorPoint: "base" 361 -87 basechar 0
AnchorPoint: "top" 967 1630 basechar 0
LayerCount: 2
Fore
SplineSet
82.0830078125 72 m 257
 55.876953125 0 l 257
 689.876953125 0 l 257
 716.083007812 72 l 257
 82.0830078125 72 l 257
908.123046875 1553 m 257
 363.623046875 57 l 257
 423.623046875 57 l 257
 968.123046875 1553 l 257
 908.123046875 1553 l 257
682.123046875 1553 m 257
 660.6484375 1494 l 257
 895.6484375 1494 l 257
 917.123046875 1553 l 257
 682.123046875 1553 l 257
EndSplineSet
EndChar

StartChar: lcaron
Encoding: 318 318 235
GlifName: lcaron
Width: 1024
VWidth: 0
Flags: W
LayerCount: 2
Fore
SplineSet
19.31640625 62 m 257
 -3.25 0 l 257
 630.75 0 l 257
 653.31640625 62 l 257
 19.31640625 62 l 257
856.904296875 1550 m 257
 309.4921875 46 l 257
 367.4921875 46 l 257
 914.904296875 1550 l 257
 856.904296875 1550 l 257
558.904296875 1550 m 257
 536.703125 1489 l 257
 848.703125 1489 l 257
 870.904296875 1550 l 257
 558.904296875 1550 l 257
975.25 1496 m 257
 890.80859375 1264 l 257
 942.80859375 1264 l 257
 1027.25 1496 l 257
 975.25 1496 l 257
EndSplineSet
EndChar

StartChar: less
Encoding: 60 60 237
GlifName: less
Width: 1024
VWidth: 0
Flags: HW
LayerCount: 2
Fore
SplineSet
340.30859375 652 m 257
 310.098632812 569 l 257
 1265.31542969 946 l 257
 1289.70214844 1013 l 257
 340.30859375 652 l 257
340.30859375 652 m 257
 310.098632812 569 l 257
 959.404296875 122 l 257
 987.4296875 199 l 257
 340.30859375 652 l 257
EndSplineSet
EndChar

StartChar: logicalnot
Encoding: 172 172 238
GlifName: logicalnot
Width: 1024
VWidth: 0
Flags: W
LayerCount: 2
Fore
SplineSet
739.919921875 935 m 257
 632.548828125 640 l 257
 685.548828125 640 l 257
 792.919921875 935 l 257
 739.919921875 935 l 257
252.919921875 935 m 257
 231.080078125 875 l 257
 765.080078125 875 l 257
 786.919921875 935 l 257
 252.919921875 935 l 257
EndSplineSet
EndChar

StartChar: lslash
Encoding: 322 322 239
GlifName: lslash
Width: 1024
VWidth: 0
Flags: W
LayerCount: 2
Fore
SplineSet
-16.244140625 60 m 257
 -38.08203125 0 l 257
 595.91796875 0 l 257
 617.755859375 60 l 257
 -16.244140625 60 l 257
884.1640625 1553 m 257
 326.92578125 22 l 257
 386.92578125 22 l 257
 944.1640625 1553 l 257
 884.1640625 1553 l 257
588.1640625 1553 m 257
 566.32421875 1493 l 257
 888.32421875 1493 l 257
 910.1640625 1553 l 257
 588.1640625 1553 l 257
960.08203125 1039 m 257
 258.423828125 702 l 257
 360.423828125 702 l 257
 1062.08203125 1039 l 257
 960.08203125 1039 l 257
EndSplineSet
EndChar

StartChar: m
Encoding: 109 109 240
GlifName: m
Width: 1024
VWidth: 0
Flags: W
AnchorPoint: "base" 307 -108 basechar 0
AnchorPoint: "top" 715 1116 basechar 0
LayerCount: 2
Fore
SplineSet
272.251953125 993 m 257
 -89.1708984375 0 l 257
 -29.1708984375 0 l 257
 332.251953125 993 l 257
 272.251953125 993 l 257
648.608398438 972 m 257
 294.829101562 0 l 257
 354.829101562 0 l 257
 708.608398438 972 l 257
 648.608398438 972 l 257
1036.06445312 976 m 257
 680.829101562 0 l 257
 740.829101562 0 l 257
 1096.06445312 976 l 257
 1036.06445312 976 l 257
209.170898438 1023 m 257
 188.424804688 966 l 257
 1092.42480469 966 l 257
 1113.17089844 1023 l 257
 209.170898438 1023 l 257
EndSplineSet
EndChar

StartChar: macron
Encoding: 175 175 241
GlifName: macron
Width: 1024
VWidth: 0
Flags: W
LayerCount: 2
Fore
SplineSet
240.189453125 1015 m 257
 223.810546875 970 l 257
 783.810546875 970 l 257
 800.189453125 1015 l 257
 240.189453125 1015 l 257
EndSplineSet
EndChar

StartChar: mu
Encoding: 181 181 243
GlifName: mu
Width: 1024
VWidth: 0
Flags: W
LayerCount: 2
Fore
SplineSet
1022.41015625 935 m 257
 682.09765625 0 l 257
 742.09765625 0 l 257
 1082.41015625 935 l 257
 1022.41015625 935 l 257
165.935546875 60 m 257
 144.09765625 0 l 257
 712.09765625 0 l 257
 733.935546875 60 l 257
 165.935546875 60 l 257
438.41015625 935 m 257
 -58.41015625 -430 l 257
 3.58984375 -430 l 257
 500.41015625 935 l 257
 438.41015625 935 l 257
EndSplineSet
EndChar

StartChar: multiply
Encoding: 215 215 244
GlifName: multiply
Width: 1024
VWidth: 0
Flags: W
LayerCount: 2
Fore
SplineSet
-87.080078125 295 m 257
 8.919921875 295 l 257
 1111.08007812 1323 l 257
 1029.08007812 1323 l 257
 -87.080078125 295 l 257
284.716796875 1322 m 257
 656.37109375 288 l 257
 744.37109375 288 l 257
 368.716796875 1322 l 257
 284.716796875 1322 l 257
EndSplineSet
EndChar

StartChar: n
Encoding: 110 110 245
GlifName: n
Width: 1024
VWidth: 0
Flags: W
AnchorPoint: "base" 295 -57 basechar 0
AnchorPoint: "top" 720 1113 basechar 0
LayerCount: 2
Fore
SplineSet
387.159179688 990 m 257
 26.8291015625 0 l 257
 87.8291015625 0 l 257
 448.159179688 990 l 257
 387.159179688 990 l 257
922.064453125 976 m 257
 566.829101562 0 l 257
 626.829101562 0 l 257
 982.064453125 976 l 257
 922.064453125 976 l 257
219.170898438 1023 m 257
 198.788085938 967 l 257
 976.788085938 967 l 257
 997.170898438 1023 l 257
 219.170898438 1023 l 257
EndSplineSet
EndChar

StartChar: nine
Encoding: 57 57 248
GlifName: nine
Width: 1024
VWidth: 0
Flags: HW
LayerCount: 2
Fore
SplineSet
1192.25292969 759 m 257
 937.474609375 59 l 257
 95.474609375 59 l 257
 74 0 l 257
 972 0 l 257
 1537.24609375 1553 l 257
 617.24609375 1553 l 257
 612.877929688 1541 l 257
 328.252929688 759 l 257
 1192.25292969 759 l 257
1210.72753906 818 m 257
 409.727539062 818 l 257
 656.135742188 1495 l 257
 1457.13574219 1495 l 257
 1210.72753906 818 l 257
EndSplineSet
EndChar

StartChar: numbersign
Encoding: 35 35 250
GlifName: numbersign
Width: 1024
VWidth: 0
Flags: W
LayerCount: 2
Fore
SplineSet
407.477539062 1184 m 257
 12.5703125 99 l 257
 71.5703125 99 l 257
 466.477539062 1184 l 257
 407.477539062 1184 l 257
905.389648438 1192 m 257
 506.114257812 95 l 257
 577.114257812 95 l 257
 976.389648438 1192 l 257
 905.389648438 1192 l 257
214.6875 995 m 257
 193.577148438 937 l 257
 994.577148438 937 l 257
 1015.6875 995 l 257
 214.6875 995 l 257
35.974609375 493 m 257
 8.3125 417 l 257
 818.3125 417 l 257
 845.974609375 493 l 257
 35.974609375 493 l 257
EndSplineSet
EndChar

StartChar: o
Encoding: 111 111 251
GlifName: o
Width: 1024
VWidth: 0
Flags: W
AnchorPoint: "top" 744 1128 basechar 0
AnchorPoint: "base" 335 -50 basechar 0
LayerCount: 2
Fore
SplineSet
289.170898438 1023 m 257
 -83.1708984375 0 l 257
 -24.1708984375 0 l 257
 348.170898438 1023 l 257
 289.170898438 1023 l 257
1046.17089844 1023 m 257
 673.829101562 0 l 257
 734.829101562 0 l 257
 1107.17089844 1023 l 257
 1046.17089844 1023 l 257
350.170898438 1023 m 257
 329.788085938 967 l 257
 1030.78808594 967 l 257
 1051.17089844 1023 l 257
 350.170898438 1023 l 257
-14.6044921875 62 m 257
 -37.1708984375 0 l 257
 681.829101562 0 l 257
 704.395507812 62 l 257
 -14.6044921875 62 l 257
EndSplineSet
EndChar

StartChar: oe
Encoding: 339 339 256
GlifName: oe
Width: 1024
VWidth: 0
Flags: W
LayerCount: 2
Fore
SplineSet
589.498046875 506 m 257
 567.66015625 446 l 257
 867.66015625 446 l 257
 889.498046875 506 l 257
 589.498046875 506 l 257
1052.67089844 1023 m 257
 842.295898438 445 l 257
 901.295898438 445 l 257
 1111.67089844 1023 l 257
 1052.67089844 1023 l 257
283.670898438 1023 m 257
 -88.6708984375 0 l 257
 -29.6708984375 0 l 257
 342.670898438 1023 l 257
 283.670898438 1023 l 257
738.670898438 1023 m 257
 366.329101562 0 l 257
 427.329101562 0 l 257
 799.670898438 1023 l 257
 738.670898438 1023 l 257
338.670898438 1023 m 257
 317.196289062 964 l 257
 1091.19628906 964 l 257
 1112.67089844 1023 l 257
 338.670898438 1023 l 257
-20.1044921875 62 m 257
 -42.6708984375 0 l 257
 749.329101562 0 l 257
 771.895507812 62 l 257
 -20.1044921875 62 l 257
EndSplineSet
EndChar

StartChar: ogonek
Encoding: 731 731 257
GlifName: ogonek
Width: 1024
VWidth: 0
Flags: W
LayerCount: 2
Fore
SplineSet
188.041992188 -300 m 257
 166.204101562 -360 l 257
 707.204101562 -360 l 257
 729.041992188 -300 l 257
 188.041992188 -300 l 257
315.795898438 51 m 257
 166.204101562 -360 l 257
 226.204101562 -360 l 257
 375.795898438 51 l 257
 315.795898438 51 l 257
315.795898438 51 m 257
 294.321289062 -8 l 257
 836.321289062 -8 l 257
 857.795898438 51 l 257
 315.795898438 51 l 257
EndSplineSet
EndChar

StartChar: one
Encoding: 49 49 262
GlifName: one
Width: 1024
VWidth: 0
Flags: HW
LayerCount: 2
Fore
SplineSet
541.5 0 m 257
 601.5 0 l 257
 1165.65429688 1550 l 257
 1105.65429688 1550 l 257
 541.5 0 l 257
1105.65429688 1550 m 257
 941.521484375 1426 l 257
 982.330078125 1398 l 257
 1165.65429688 1550 l 257
 1105.65429688 1550 l 257
EndSplineSet
EndChar

StartChar: onehalf
Encoding: 189 189 263
GlifName: onehalf
Width: 1024
VWidth: 0
Flags: W
LayerCount: 2
Fore
SplineSet
1021.51757812 1480 m 257
 -100.517578125 10 l 257
 2.482421875 10 l 257
 1124.51757812 1480 l 257
 1021.51757812 1480 l 257
466 1017 m 257
 530 1017 l 257
 723.99609375 1550 l 257
 659.99609375 1550 l 257
 466 1017 l 257
659.99609375 1550 m 257
 517.708984375 1508 l 257
 568.0703125 1498 l 257
 723.99609375 1550 l 257
 659.99609375 1550 l 257
630.595703125 623 m 257
 920.595703125 623 l 257
 832.515625 381 l 257
 545.515625 381 l 257
 406.841796875 0 l 257
 711.841796875 0 l 257
 720.94140625 25 l 257
 438.94140625 25 l 257
 559.416015625 356 l 257
 846.416015625 356 l 257
 952.6953125 648 l 257
 639.6953125 648 l 257
 630.595703125 623 l 257
EndSplineSet
EndChar

StartChar: onequarter
Encoding: 188 188 264
GlifName: onequarter
Width: 1024
VWidth: 0
Flags: W
LayerCount: 2
Fore
SplineSet
1021.51757812 1480 m 257
 -100.517578125 10 l 257
 2.482421875 10 l 257
 1124.51757812 1480 l 257
 1021.51757812 1480 l 257
504.19140625 1045 m 257
 558.19140625 1045 l 257
 741.99609375 1550 l 257
 687.99609375 1550 l 257
 504.19140625 1045 l 257
692.99609375 1550 m 257
 538.591796875 1428 l 257
 545.125 1391 l 257
 718.720703125 1541 l 257
 692.99609375 1550 l 257
522.787109375 379 m 257
 861.787109375 379 l 257
 726.390625 7 l 257
 751.390625 7 l 257
 1028.37109375 768 l 257
 1002.37109375 768 l 257
 871.70703125 409 l 257
 559.70703125 409 l 257
 691.099609375 770 l 257
 665.099609375 770 l 257
 522.787109375 379 l 257
EndSplineSet
EndChar

StartChar: ordfeminine
Encoding: 170 170 265
GlifName: ordfeminine
Width: 1024
VWidth: 0
Flags: W
LayerCount: 2
Fore
SplineSet
459.357421875 1319 m 257
 434.970703125 1252 l 257
 1083.97070312 1252 l 257
 1108.35742188 1319 l 257
 459.357421875 1319 l 257
1070.72070312 1320 m 257
 698.015625 296 l 257
 775.015625 296 l 257
 1147.72070312 1320 l 257
 1070.72070312 1320 l 257
308.033203125 895 m 257
 285.466796875 833 l 257
 909.466796875 833 l 257
 932.033203125 895 l 257
 308.033203125 895 l 257
300.662109375 872 m 257
 90.287109375 294 l 257
 161.287109375 294 l 257
 371.662109375 872 l 257
 300.662109375 872 l 257
126.583984375 369 m 257
 99.287109375 294 l 257
 763.287109375 294 l 257
 790.583984375 369 l 257
 126.583984375 369 l 257
-99.333984375 67 m 257
 -123.720703125 0 l 257
 744.279296875 0 l 257
 768.666015625 67 l 257
 -99.333984375 67 l 257
EndSplineSet
EndChar

StartChar: ordmasculine
Encoding: 186 186 266
GlifName: ordmasculine
Width: 1024
VWidth: 0
Flags: W
LayerCount: 2
Fore
SplineSet
367.920898438 1023 m 257
 -4.4208984375 0 l 257
 54.5791015625 0 l 257
 426.920898438 1023 l 257
 367.920898438 1023 l 257
1124.92089844 1023 m 257
 752.579101562 0 l 257
 813.579101562 0 l 257
 1185.92089844 1023 l 257
 1124.92089844 1023 l 257
428.920898438 1023 m 257
 408.538085938 967 l 257
 1109.53808594 967 l 257
 1129.92089844 1023 l 257
 428.920898438 1023 l 257
64.1455078125 62 m 257
 41.5791015625 0 l 257
 760.579101562 0 l 257
 783.145507812 62 l 257
 64.1455078125 62 l 257
-137.8984375 -70 m 257
 -161.920898438 -136 l 257
 862.079101562 -136 l 257
 886.1015625 -70 l 257
 -137.8984375 -70 l 257
EndSplineSet
EndChar

StartChar: oslash
Encoding: 248 248 267
GlifName: oslash
Width: 1024
VWidth: 0
Flags: W
LayerCount: 2
Fore
SplineSet
1136.74804688 1125 m 257
 -135.821289062 -36 l 257
 -108.196289062 -70 l 257
 1159.82128906 1073 l 257
 1136.74804688 1125 l 257
283.623046875 1023 m 257
 -88.71875 0 l 257
 -28.71875 0 l 257
 343.623046875 1023 l 257
 283.623046875 1023 l 257
1039.62304688 1023 m 257
 667.28125 0 l 257
 727.28125 0 l 257
 1099.62304688 1023 l 257
 1039.62304688 1023 l 257
325.623046875 1023 m 257
 303.784179688 963 l 257
 1049.78417969 963 l 257
 1071.62304688 1023 l 257
 325.623046875 1023 l 257
-21.7890625 63 m 257
 -44.71875 0 l 257
 703.28125 0 l 257
 726.2109375 63 l 257
 -21.7890625 63 l 257
EndSplineSet
EndChar

StartChar: p
Encoding: 112 112 270
GlifName: p
Width: 1024
VWidth: 0
Flags: W
AnchorPoint: "base" -53 -465 basechar 0
AnchorPoint: "top" 859 1232 basechar 0
LayerCount: 2
Fore
SplineSet
509.563476562 1181 m 257
 -68.056640625 -406 l 257
 -8.056640625 -406 l 257
 569.563476562 1181 l 257
 509.563476562 1181 l 257
496.056640625 1023 m 257
 474.58203125 964 l 257
 1060.58203125 964 l 257
 1082.05664062 1023 l 257
 496.056640625 1023 l 257
147.916992188 61 m 257
 125.71484375 0 l 257
 721.71484375 0 l 257
 743.916992188 61 l 257
 147.916992188 61 l 257
1034.05664062 1023 m 257
 661.71484375 0 l 257
 719.71484375 0 l 257
 1092.05664062 1023 l 257
 1034.05664062 1023 l 257
EndSplineSet
EndChar

StartChar: paragraph
Encoding: 182 182 271
GlifName: paragraph
Width: 1024
VWidth: 0
Flags: W
LayerCount: 2
Fore
SplineSet
8.65234375 1044 m 257
 -12.822265625 985 l 257
 551.177734375 985 l 257
 572.65234375 1044 l 257
 8.65234375 1044 l 257
192.822265625 1550 m 257
 -7.361328125 1000 l 257
 54.638671875 1000 l 257
 254.822265625 1550 l 257
 192.822265625 1550 l 257
192.822265625 1550 m 257
 172.07421875 1493 l 257
 992.07421875 1493 l 257
 1012.82226562 1550 l 257
 192.822265625 1550 l 257
742.822265625 1550 m 257
 178.66796875 0 l 257
 242.66796875 0 l 257
 806.822265625 1550 l 257
 742.822265625 1550 l 257
974.822265625 1550 m 257
 410.66796875 0 l 257
 472.66796875 0 l 257
 1036.82226562 1550 l 257
 974.822265625 1550 l 257
EndSplineSet
EndChar

StartChar: parenleft
Encoding: 40 40 272
GlifName: parenleft
Width: 1024
VWidth: 0
Flags: W
LayerCount: 2
Fore
SplineSet
358.584960938 1023 m 257
 51.3935546875 179 l 257
 179.393554688 179 l 257
 486.584960938 1023 l 257
 358.584960938 1023 l 257
945.698242188 1636 m 257
 358.584960938 1023 l 257
 486.584960938 1023 l 257
 972.606445312 1633 l 257
 945.698242188 1636 l 257
51.3935546875 179 m 257
 211.776367188 -309 l 257
 239.776367188 -309 l 257
 179.393554688 179 l 257
 51.3935546875 179 l 257
EndSplineSet
EndChar

StartChar: parenright
Encoding: 41 41 273
GlifName: parenright
Width: 1024
VWidth: 0
Flags: W
LayerCount: 2
Fore
SplineSet
792.404296875 1023 m 257
 485.212890625 179 l 257
 613.212890625 179 l 257
 920.404296875 1023 l 257
 792.404296875 1023 l 257
811.154296875 1635 m 257
 792.404296875 1023 l 257
 920.404296875 1023 l 257
 849.154296875 1635 l 257
 811.154296875 1635 l 257
485.212890625 179 m 257
 103.595703125 -309 l 257
 131.595703125 -309 l 257
 613.212890625 179 l 257
 485.212890625 179 l 257
EndSplineSet
EndChar

StartChar: percent
Encoding: 37 37 274
GlifName: percent
Width: 1024
VWidth: 0
Flags: W
LayerCount: 2
Fore
SplineSet
63.7626953125 444 m 257
 82.935546875 417 l 257
 960.237304688 775 l 257
 950.700195312 801 l 257
 63.7626953125 444 l 257
425.998046875 1148 m 257
 300.428710938 803 l 257
 331.428710938 803 l 257
 456.998046875 1148 l 257
 425.998046875 1148 l 257
427.454101562 1152 m 257
 417.990234375 1126 l 257
 764.990234375 1126 l 257
 774.454101562 1152 l 257
 427.454101562 1152 l 257
308.799804688 826 m 257
 295.333007812 789 l 257
 639.333007812 789 l 257
 652.799804688 826 l 257
 308.799804688 826 l 257
738.454101562 1152 m 257
 607.060546875 791 l 257
 643.060546875 791 l 257
 774.454101562 1152 l 257
 738.454101562 1152 l 257
493.8515625 436 m 257
 369.373046875 94 l 257
 412.373046875 94 l 257
 536.8515625 436 l 257
 493.8515625 436 l 257
495.306640625 440 m 257
 479.65625 397 l 257
 826.65625 397 l 257
 842.306640625 440 l 257
 495.306640625 440 l 257
374.833007812 109 m 257
 363.185546875 77 l 257
 707.185546875 77 l 257
 718.833007812 109 l 257
 374.833007812 109 l 257
808.306640625 440 m 257
 676.9140625 79 l 257
 710.9140625 79 l 257
 842.306640625 440 l 257
 808.306640625 440 l 257
EndSplineSet
EndChar

StartChar: period
Encoding: 46 46 275
GlifName: period
Width: 1024
VWidth: 0
Flags: HW
LayerCount: 2
Fore
SplineSet
481.12890625 113 m 257
 440 0 l 257
 584 0 l 257
 625.12890625 113 l 257
 481.12890625 113 l 257
EndSplineSet
EndChar

StartChar: periodcentered
Encoding: 183 183 276
GlifName: periodcentered
Width: 1024
VWidth: 0
Flags: W
LayerCount: 2
Fore
SplineSet
482.380859375 1056 m 257
 445.619140625 955 l 257
 541.619140625 955 l 257
 578.380859375 1056 l 257
 482.380859375 1056 l 257
EndSplineSet
EndChar

StartChar: perthousand
Encoding: 8240 8240 277
GlifName: perthousand
Width: 1024
VWidth: 0
Flags: W
LayerCount: 2
Fore
SplineSet
642.743164062 436 m 257
 524.088867188 110 l 257
 568.088867188 110 l 257
 686.743164062 436 l 257
 642.743164062 436 l 257
644.198242188 440 m 257
 624.543945312 386 l 257
 970.543945312 386 l 257
 990.198242188 440 l 257
 644.198242188 440 l 257
529.547851562 125 m 257
 512.077148438 77 l 257
 856.077148438 77 l 257
 873.547851562 125 l 257
 529.547851562 125 l 257
942.198242188 440 m 257
 810.805664062 79 l 257
 858.805664062 79 l 257
 990.198242188 440 l 257
 942.198242188 440 l 257
28.0439453125 522 m 257
 48.5703125 463 l 257
 995.956054688 802 l 257
 973.06640625 860 l 257
 28.0439453125 522 l 257
395.889648438 1148 m 257
 277.235351562 822 l 257
 321.235351562 822 l 257
 439.889648438 1148 l 257
 395.889648438 1148 l 257
397.345703125 1152 m 257
 375.506835938 1092 l 257
 721.506835938 1092 l 257
 743.345703125 1152 l 257
 397.345703125 1152 l 257
282.6953125 837 m 257
 265.224609375 789 l 257
 609.224609375 789 l 257
 626.6953125 837 l 257
 282.6953125 837 l 257
697.345703125 1152 m 257
 565.952148438 791 l 257
 611.952148438 791 l 257
 743.345703125 1152 l 257
 697.345703125 1152 l 257
240.743164062 436 m 257
 122.088867188 110 l 257
 168.088867188 110 l 257
 286.743164062 436 l 257
 240.743164062 436 l 257
242.198242188 440 m 257
 222.543945312 386 l 257
 570.543945312 386 l 257
 590.198242188 440 l 257
 242.198242188 440 l 257
127.547851562 125 m 257
 110.077148438 77 l 257
 454.077148438 77 l 257
 471.547851562 125 l 257
 127.547851562 125 l 257
542.198242188 440 m 257
 410.805664062 79 l 257
 458.805664062 79 l 257
 590.198242188 440 l 257
 542.198242188 440 l 257
EndSplineSet
EndChar

StartChar: plus
Encoding: 43 43 278
GlifName: plus
Width: 1024
VWidth: 0
Flags: W
LayerCount: 2
Fore
SplineSet
607.431640625 1221 m 257
 223.078125 165 l 257
 333.078125 165 l 257
 717.431640625 1221 l 257
 607.431640625 1221 l 257
79.744140625 796 m 257
 42.255859375 693 l 257
 944.255859375 693 l 257
 981.744140625 796 l 257
 79.744140625 796 l 257
EndSplineSet
EndChar

StartChar: plusminus
Encoding: 177 177 279
GlifName: plusminus
Width: 1024
VWidth: 0
Flags: W
LayerCount: 2
Fore
SplineSet
-24.095703125 110 m 257
 -46.662109375 48 l 257
 779.337890625 48 l 257
 801.904296875 110 l 257
 -24.095703125 110 l 257
747.275390625 1221 m 257
 385.853515625 228 l 257
 446.853515625 228 l 257
 808.275390625 1221 l 257
 747.275390625 1221 l 257
168.662109375 744 m 257
 147.55078125 686 l 257
 1049.55078125 686 l 257
 1070.66210938 744 l 257
 168.662109375 744 l 257
EndSplineSet
EndChar

StartChar: q
Encoding: 113 113 280
GlifName: q
Width: 1024
VWidth: 0
Flags: W
LayerCount: 2
Fore
SplineSet
1004.19824219 1188 m 257
 424.030273438 -406 l 257
 484.030273438 -406 l 257
 1064.19824219 1188 l 257
 1004.19824219 1188 l 257
340.143554688 1023 m 257
 317.577148438 961 l 257
 965.577148438 961 l 257
 988.143554688 1023 l 257
 340.143554688 1023 l 257
-5.4521484375 57 m 257
 -26.1982421875 0 l 257
 589.801757812 0 l 257
 610.547851562 57 l 257
 -5.4521484375 57 l 257
332.143554688 1023 m 257
 -40.1982421875 0 l 257
 17.8017578125 0 l 257
 390.143554688 1023 l 257
 332.143554688 1023 l 257
450.595703125 -344 m 257
 428.030273438 -406 l 257
 560.030273438 -406 l 257
 582.595703125 -344 l 257
 450.595703125 -344 l 257
EndSplineSet
EndChar

StartChar: question
Encoding: 63 63 281
GlifName: question
Width: 1024
VWidth: 0
Flags: HW
LayerCount: 2
Fore
SplineSet
416.772460938 134 m 257
 368 0 l 257
 480 0 l 257
 528.772460938 134 l 257
 416.772460938 134 l 257
744.87109375 1519 m 257
 711.021484375 1426 l 257
 1347.02148438 1426 l 257
 1380.87109375 1519 l 257
 744.87109375 1519 l 257
1297.05078125 1514 m 257
 1097.59570312 966 l 257
 1183.59570312 966 l 257
 1383.05078125 1514 l 257
 1297.05078125 1514 l 257
737.4296875 1015 m 257
 713.043945312 948 l 257
 1177.04394531 948 l 257
 1201.4296875 1015 l 257
 737.4296875 1015 l 257
735.973632812 1011 m 257
 510.676757812 392 l 257
 606.676757812 392 l 257
 831.973632812 1011 l 257
 735.973632812 1011 l 257
EndSplineSet
EndChar

StartChar: questiondown
Encoding: 191 191 282
GlifName: questiondown
Width: 1024
VWidth: 0
Flags: W
LayerCount: 2
Fore
SplineSet
929.98828125 1273 m 257
 1019.52539062 1519 l 257
 961.525390625 1519 l 257
 871.624023438 1272 l 257
 929.98828125 1273 l 257
642.654296875 0 m 257
 664.856445312 61 l 257
 28.8564453125 61 l 257
 6.654296875 0 l 257
 642.654296875 0 l 257
64.474609375 5 m 257
 263.9296875 553 l 257
 203.9296875 553 l 257
 4.474609375 5 l 257
 64.474609375 5 l 257
650.095703125 504 m 257
 672.661132812 566 l 257
 208.661132812 566 l 257
 186.095703125 504 l 257
 650.095703125 504 l 257
651.55078125 508 m 257
 876.848632812 1127 l 257
 818.848632812 1127 l 257
 593.55078125 508 l 257
 651.55078125 508 l 257
EndSplineSet
EndChar

StartChar: quotedbl
Encoding: 34 34 283
GlifName: quotedbl
Width: 1024
VWidth: 0
Flags: W
LayerCount: 2
Fore
SplineSet
234.868164062 1326 m 257
 300.868164062 1326 l 257
 391.131835938 1574 l 257
 325.131835938 1574 l 257
 234.868164062 1326 l 257
638.868164062 1326 m 257
 698.868164062 1326 l 257
 789.131835938 1574 l 257
 729.131835938 1574 l 257
 638.868164062 1326 l 257
EndSplineSet
EndChar

StartChar: quotedblbase
Encoding: 8222 8222 284
GlifName: quotedblbase
Width: 1024
VWidth: 0
Flags: W
LayerCount: 2
Fore
SplineSet
424.404296875 126 m 257
 381.456054688 8 l 257
 490.456054688 8 l 257
 533.404296875 126 l 257
 424.404296875 126 l 257
381.456054688 8 m 257
 265.595703125 -118 l 257
 315.591796875 -129 l 257
 490.456054688 8 l 257
 381.456054688 8 l 257
649.404296875 126 m 257
 606.456054688 8 l 257
 715.456054688 8 l 257
 758.404296875 126 l 257
 649.404296875 126 l 257
606.456054688 8 m 257
 490.595703125 -118 l 257
 540.591796875 -129 l 257
 715.456054688 8 l 257
 606.456054688 8 l 257
EndSplineSet
EndChar

StartChar: quotedblleft
Encoding: 8220 8220 285
GlifName: quotedblleft
Width: 1024
VWidth: 0
Flags: W
LayerCount: 2
Fore
SplineSet
450.240234375 1953 m 257
 491.732421875 2067 l 257
 367.732421875 2067 l 257
 326.240234375 1953 l 257
 450.240234375 1953 l 257
419.802734375 2004 m 257
 529.759765625 2144 l 257
 468.677734375 2174 l 257
 369.4609375 2069 l 257
 419.802734375 2004 l 257
618.240234375 1953 m 257
 659.732421875 2067 l 257
 535.732421875 2067 l 257
 494.240234375 1953 l 257
 618.240234375 1953 l 257
587.802734375 2004 m 257
 697.759765625 2144 l 257
 636.677734375 2174 l 257
 537.4609375 2069 l 257
 587.802734375 2004 l 257
EndSplineSet
EndChar

StartChar: quotedblright
Encoding: 8221 8221 286
GlifName: quotedblright
Width: 1024
VWidth: 0
Flags: W
LayerCount: 2
Fore
SplineSet
568.759765625 2174 m 257
 527.265625 2060 l 257
 651.265625 2060 l 257
 692.759765625 2174 l 257
 568.759765625 2174 l 257
600.197265625 2123 m 257
 490.240234375 1983 l 257
 550.322265625 1953 l 257
 649.5390625 2058 l 257
 600.197265625 2123 l 257
409.759765625 2174 m 257
 368.265625 2060 l 257
 492.265625 2060 l 257
 533.759765625 2174 l 257
 409.759765625 2174 l 257
441.197265625 2123 m 257
 331.240234375 1983 l 257
 391.322265625 1953 l 257
 490.5390625 2058 l 257
 441.197265625 2123 l 257
EndSplineSet
EndChar

StartChar: quoteleft
Encoding: 8216 8216 287
GlifName: quoteleft
Width: 1024
VWidth: 0
Flags: W
LayerCount: 2
Fore
SplineSet
495.89453125 1913 m 257
 555.94921875 2078 l 257
 423.94921875 2078 l 257
 365.349609375 1917 l 257
 495.89453125 1913 l 257
516.58203125 2066 m 257
 658.650390625 2275 l 257
 592.291015625 2285 l 257
 422.212890625 2054 l 257
 516.58203125 2066 l 257
EndSplineSet
EndChar

StartChar: quoteright
Encoding: 8217 8217 288
GlifName: quoteright
Width: 1024
VWidth: 0
Flags: W
LayerCount: 2
Fore
SplineSet
490.858398438 2168 m 257
 450.09375 2056 l 257
 566.09375 2056 l 257
 606.858398438 2168 l 257
 490.858398438 2168 l 257
539.666992188 2140 m 257
 417.141601562 1927 l 257
 454.762695312 1882 l 257
 566.09375 2056 l 257
 539.666992188 2140 l 257
EndSplineSet
EndChar

StartChar: quotesinglbase
Encoding: 8218 8218 289
GlifName: quotesinglbase
Width: 1024
VWidth: 0
Flags: W
LayerCount: 2
Fore
SplineSet
536.904296875 126 m 257
 493.956054688 8 l 257
 602.956054688 8 l 257
 645.904296875 126 l 257
 536.904296875 126 l 257
493.956054688 8 m 257
 378.095703125 -118 l 257
 428.091796875 -129 l 257
 602.956054688 8 l 257
 493.956054688 8 l 257
EndSplineSet
EndChar

StartChar: quotesingle
Encoding: 39 39 290
GlifName: quotesingle
Width: 1024
VWidth: 0
Flags: W
LayerCount: 2
Fore
SplineSet
512.575195312 1496 m 257
 447.424804688 1317 l 257
 511.424804688 1317 l 257
 576.575195312 1496 l 257
 512.575195312 1496 l 257
EndSplineSet
EndChar

StartChar: r
Encoding: 114 114 291
GlifName: r
Width: 1024
VWidth: 0
Flags: W
AnchorPoint: "top" 675 1114 basechar 0
AnchorPoint: "base" 77 -91 basechar 0
LayerCount: 2
Fore
SplineSet
225.170898438 1023 m 257
 202.604492188 961 l 257
 934.604492188 961 l 257
 957.170898438 1023 l 257
 225.170898438 1023 l 257
426.795898438 989 m 257
 66.8291015625 0 l 257
 126.829101562 0 l 257
 486.795898438 989 l 257
 426.795898438 989 l 257
880.064453125 976 m 257
 761.41015625 650 l 257
 821.41015625 650 l 257
 940.064453125 976 l 257
 880.064453125 976 l 257
EndSplineSet
EndChar

StartChar: registered
Encoding: 174 174 294
GlifName: registered
Width: 1024
VWidth: 0
Flags: W
LayerCount: 2
Fore
SplineSet
492.90625 1032 m 257
 299.637695312 501 l 257
 336.637695312 501 l 257
 529.90625 1032 l 257
 492.90625 1032 l 257
517.90625 1032 m 257
 504.075195312 994 l 257
 733.075195312 994 l 257
 746.90625 1032 l 257
 517.90625 1032 l 257
717.90625 1032 m 257
 634.193359375 802 l 257
 672.193359375 802 l 257
 755.90625 1032 l 257
 717.90625 1032 l 257
446.935546875 848 m 257
 429.829101562 801 l 257
 667.829101562 801 l 257
 684.935546875 848 l 257
 446.935546875 848 l 257
479.741210938 809 m 257
 566.274414062 500 l 257
 609.274414062 500 l 257
 514.741210938 809 l 257
 479.741210938 809 l 257
321.803710938 1540 m 257
 -238.7109375 0 l 257
 -176.7109375 0 l 257
 383.803710938 1540 l 257
 321.803710938 1540 l 257
1200.7109375 1537 m 257
 641.2890625 0 l 257
 703.2890625 0 l 257
 1262.7109375 1537 l 257
 1200.7109375 1537 l 257
360.075195312 1538 m 257
 338.237304688 1478 l 257
 1210.23730469 1478 l 257
 1232.07519531 1538 l 257
 360.075195312 1538 l 257
-181.508789062 61 m 257
 -203.7109375 0 l 257
 688.2890625 0 l 257
 710.491210938 61 l 257
 -181.508789062 61 l 257
EndSplineSet
EndChar

StartChar: ring
Encoding: 730 730 295
GlifName: ring
Width: 1024
VWidth: 0
Flags: W
LayerCount: 2
Fore
SplineSet
411.49609375 1302 m 257
 701.49609375 1302 l 257
 609.412109375 1049 l 257
 319.412109375 1049 l 257
 411.49609375 1302 l 257
388.05078125 1331 m 257
 275.94921875 1023 l 257
 635.94921875 1023 l 257
 748.05078125 1331 l 257
 388.05078125 1331 l 257
EndSplineSet
EndChar

StartChar: s
Encoding: 115 115 296
GlifName: s
Width: 1024
VWidth: 0
Flags: W
AnchorPoint: "top" 703 1113 basechar 0
AnchorPoint: "base" 344 -69 basechar 0
LayerCount: 2
Fore
SplineSet
394.170898438 1023 m 257
 372.696289062 964 l 257
 980.696289062 964 l 257
 1002.17089844 1023 l 257
 394.170898438 1023 l 257
394.170898438 1023 m 257
 289.7109375 736 l 257
 349.7109375 736 l 257
 454.170898438 1023 l 257
 394.170898438 1023 l 257
43.3037109375 59 m 257
 21.8291015625 0 l 257
 627.829101562 0 l 257
 649.303710938 59 l 257
 43.3037109375 59 l 257
674.65625 299 m 257
 570.196289062 12 l 257
 632.196289062 12 l 257
 736.65625 299 l 257
 674.65625 299 l 257
289.7109375 736 m 257
 674.65625 299 l 257
 736.65625 299 l 257
 349.7109375 736 l 257
 289.7109375 736 l 257
EndSplineSet
EndChar

StartChar: section
Encoding: 167 167 301
GlifName: section
Width: 1024
VWidth: 0
Flags: W
LayerCount: 2
Fore
SplineSet
396.139648438 1237 m 257
 374.665039062 1178 l 257
 972.665039062 1178 l 257
 994.139648438 1237 l 257
 396.139648438 1237 l 257
396.139648438 1237 m 257
 166.110351562 605 l 257
 229.110351562 605 l 257
 459.139648438 1237 l 257
 396.139648438 1237 l 257
-89.8857421875 -200 m 257
 -111.723632812 -260 l 257
 596.276367188 -260 l 257
 618.114257812 -200 l 257
 -89.8857421875 -200 l 257
563.639648438 -259 m 257
 623.639648438 -259 l 257
 752.485351562 95 l 257
 692.485351562 95 l 257
 563.639648438 -259 l 257
166.474609375 606 m 257
 688.9375 88 l 257
 749.9375 88 l 257
 224.474609375 606 l 257
 166.474609375 606 l 257
537.723632812 1626 m 257
 515.885742188 1566 l 257
 1113.88574219 1566 l 257
 1135.72363281 1626 l 257
 537.723632812 1626 l 257
538.815429688 1629 m 257
 396.139648438 1237 l 257
 459.139648438 1237 l 257
 601.815429688 1629 l 257
 538.815429688 1629 l 257
5.9375 88 m 257
 -11.896484375 39 l 257
 696.103515625 39 l 257
 713.9375 88 l 257
 5.9375 88 l 257
688.9375 88 m 257
 749.9375 88 l 257
 878.783203125 442 l 257
 817.783203125 442 l 257
 688.9375 88 l 257
396.139648438 1237 m 257
 818.783203125 442 l 257
 878.783203125 442 l 257
 459.139648438 1237 l 257
 396.139648438 1237 l 257
EndSplineSet
EndChar

StartChar: semicolon
Encoding: 59 59 302
GlifName: semicolon
Width: 1024
VWidth: 0
Flags: HW
LayerCount: 2
Fore
SplineSet
503.69140625 164 m 257
 446.547851562 7 l 257
 582.547851562 7 l 257
 639.69140625 164 l 257
 503.69140625 164 l 257
577.135742188 135 m 257
 449.966796875 -99 l 257
 482.1328125 -148 l 257
 587.462890625 26 l 257
 577.135742188 135 l 257
627.077148438 503 m 257
 569.93359375 346 l 257
 705.93359375 346 l 257
 763.077148438 503 l 257
 627.077148438 503 l 257
EndSplineSet
EndChar

StartChar: seven
Encoding: 55 55 303
GlifName: seven
Width: 1024
VWidth: 0
Flags: HW
LayerCount: 2
Fore
SplineSet
599.63671875 1495 m 257
 1450.63671875 1495 l 257
 906.5 0 l 257
 968.5 0 l 257
 1533.74609375 1553 l 257
 620.74609375 1553 l 257
 599.63671875 1495 l 257
EndSplineSet
EndChar

StartChar: six
Encoding: 54 54 304
GlifName: six
Width: 1024
VWidth: 0
Flags: HW
LayerCount: 2
Fore
SplineSet
604.154296875 1550 m 257
 113.158203125 201 l 257
 40 0 l 257
 979 0 l 257
 1277.09179688 819 l 257
 400.091796875 819 l 257
 643.587890625 1488 l 257
 1525.58789062 1488 l 257
 1548.15429688 1550 l 257
 604.154296875 1550 l 257
1193.25292969 759 m 257
 939.9296875 63 l 257
 130.9296875 63 l 257
 384.252929688 759 l 257
 1193.25292969 759 l 257
EndSplineSet
EndChar

StartChar: slash
Encoding: 47 47 305
GlifName: slash
Width: 1024
VWidth: 0
Flags: HW
LayerCount: 2
Fore
SplineSet
1292.67480469 1480 m 257
 170.640625 10 l 257
 273.640625 10 l 257
 1395.67480469 1480 l 257
 1292.67480469 1480 l 257
EndSplineSet
EndChar

StartChar: sterling
Encoding: 163 163 307
GlifName: sterling
Width: 1024
VWidth: 0
Flags: W
LayerCount: 2
Fore
SplineSet
815.302734375 1543 m 257
 793.1015625 1482 l 257
 982.1015625 1482 l 257
 1004.30273438 1543 l 257
 815.302734375 1543 l 257
195.953125 770 m 257
 172.294921875 705 l 257
 898.294921875 705 l 257
 921.953125 770 l 257
 195.953125 770 l 257
790.939453125 1542 m 257
 229.697265625 0 l 257
 305.697265625 0 l 257
 866.939453125 1542 l 257
 790.939453125 1542 l 257
45.90234375 72 m 257
 19.697265625 0 l 257
 745.697265625 0 l 257
 771.90234375 72 l 257
 45.90234375 72 l 257
EndSplineSet
EndChar

StartChar: t
Encoding: 116 116 308
GlifName: t
Width: 1024
VWidth: 0
Flags: W
AnchorPoint: "top" 767 1642 basechar 0
AnchorPoint: "base" 308 -121 basechar 0
LayerCount: 2
Fore
SplineSet
699.33984375 1529 m 257
 142.829101562 0 l 257
 202.829101562 0 l 257
 759.33984375 1529 l 257
 699.33984375 1529 l 257
176.666992188 60 m 257
 154.829101562 0 l 257
 546.829101562 0 l 257
 568.666992188 60 l 257
 176.666992188 60 l 257
207.170898438 1023 m 257
 186.060546875 965 l 257
 860.060546875 965 l 257
 881.170898438 1023 l 257
 207.170898438 1023 l 257
EndSplineSet
EndChar

StartChar: tcaron
Encoding: 357 357 309
GlifName: tcaron
Width: 1024
VWidth: 0
Flags: W
LayerCount: 2
Fore
SplineSet
670.26171875 1529 m 257
 113.75 0 l 257
 173.75 0 l 257
 730.26171875 1529 l 257
 670.26171875 1529 l 257
147.587890625 60 m 257
 125.75 0 l 257
 517.75 0 l 257
 539.587890625 60 l 257
 147.587890625 60 l 257
178.091796875 1023 m 257
 156.982421875 965 l 257
 830.982421875 965 l 257
 852.091796875 1023 l 257
 178.091796875 1023 l 257
848.25 1496 m 257
 783.099609375 1317 l 257
 845.099609375 1317 l 257
 910.25 1496 l 257
 848.25 1496 l 257
EndSplineSet
EndChar

StartChar: thorn
Encoding: 254 254 310
GlifName: thorn
Width: 1024
VWidth: 0
Flags: W
LayerCount: 2
Fore
SplineSet
470.84765625 1034 m 257
 -53.26953125 -406 l 257
 4.73046875 -406 l 257
 528.84765625 1034 l 257
 470.84765625 1034 l 257
389.26953125 667 m 257
 366.703125 605 l 257
 1054.703125 605 l 257
 1077.26953125 667 l 257
 389.26953125 667 l 257
83.365234375 -135 m 257
 61.52734375 -195 l 257
 763.52734375 -195 l 257
 785.365234375 -135 l 257
 83.365234375 -135 l 257
1009.62695312 646 m 257
 712.626953125 -170 l 257
 772.626953125 -170 l 257
 1069.62695312 646 l 257
 1009.62695312 646 l 257
EndSplineSet
EndChar

StartChar: three
Encoding: 51 51 311
GlifName: three
Width: 1024
VWidth: 0
Flags: HW
LayerCount: 2
Fore
SplineSet
369.881835938 736 m 257
 1171.88183594 736 l 257
 922.926757812 52 l 257
 78.9267578125 52 l 257
 66.087890625 -8 l 257
 961.087890625 -8 l 257
 1528.15429688 1550 l 257
 654.154296875 1550 l 257
 633.407226562 1493 l 257
 1445.40722656 1493 l 257
 1191.72070312 796 l 257
 391.720703125 796 l 257
 369.881835938 736 l 257
EndSplineSet
EndChar

StartChar: threequarters
Encoding: 190 190 312
GlifName: threequarters
Width: 1024
VWidth: 0
Flags: W
LayerCount: 2
Fore
SplineSet
1057.57617188 1483 m 257
 -50.0078125 6 l 257
 -33.576171875 -67 l 257
 1074.0078125 1410 l 257
 1057.57617188 1483 l 257
354.779296875 1272 m 257
 672.779296875 1272 l 257
 604.353515625 1084 l 257
 268.353515625 1084 l 257
 243.23828125 1015 l 257
 625.23828125 1015 l 257
 821.0546875 1553 l 257
 452.0546875 1553 l 257
 426.94140625 1484 l 257
 748.94140625 1484 l 257
 696.529296875 1340 l 257
 379.529296875 1340 l 257
 354.779296875 1272 l 257
581.55859375 340 m 257
 884.55859375 340 l 257
 763.357421875 7 l 257
 806.357421875 7 l 257
 1053.85742188 687 l 257
 1009.85742188 687 l 257
 900.30078125 386 l 257
 645.30078125 386 l 257
 755.583984375 689 l 257
 708.583984375 689 l 257
 581.55859375 340 l 257
EndSplineSet
EndChar

StartChar: tilde
Encoding: 732 732 313
GlifName: tilde
Width: 1024
VWidth: 0
Flags: W
LayerCount: 2
Fore
SplineSet
372.734375 279 m 257
 354.53515625 229 l 257
 678.693359375 158 l 257
 696.892578125 208 l 257
 372.734375 279 l 257
112.3515625 223 m 257
 105.240234375 165 l 257
 354.53515625 229 l 257
 372.734375 279 l 257
 112.3515625 223 l 257
696.892578125 208 m 257
 678.693359375 158 l 257
 915.65234375 309 l 257
 918.759765625 356 l 257
 696.892578125 208 l 257
EndSplineSet
EndChar

StartChar: tildecomb
Encoding: 771 771 314
GlifName: tildecomb
Width: 0
VWidth: 0
GlyphClass: 4
Flags: HW
AnchorPoint: "top" 603.63 1478 mark 0
LayerCount: 2
Fore
SplineSet
448.36328125 1633 m 261
 430.165039062 1583 l 261
 754.323242188 1512 l 261
 772.521484375 1562 l 261
 448.36328125 1633 l 261
187.981445312 1577 m 261
 180.87109375 1519 l 261
 430.165039062 1583 l 261
 448.36328125 1633 l 261
 187.981445312 1577 l 261
772.521484375 1562 m 261
 754.323242188 1512 l 261
 991.282226562 1663 l 261
 994.388671875 1710 l 261
 772.521484375 1562 l 261
EndSplineSet
EndChar

StartChar: two
Encoding: 50 50 315
GlifName: two
Width: 1024
VWidth: 0
Flags: HW
LayerCount: 2
Fore
SplineSet
655.131835938 1484 m 257
 1389.13183594 1484 l 257
 1179.48535156 908 l 257
 452.485351562 908 l 257
 122.000976562 0 l 257
 895.000976562 0 l 257
 916.475585938 59 l 257
 203.475585938 59 l 257
 491.010742188 849 l 257
 1218.01074219 849 l 257
 1470.96972656 1544 l 257
 676.969726562 1544 l 257
 655.131835938 1484 l 257
EndSplineSet
EndChar

StartChar: u
Encoding: 117 117 316
GlifName: u
Width: 1024
VWidth: 0
Flags: W
AnchorPoint: "top" 689 1128 basechar 0
AnchorPoint: "base" 355 -74 basechar 0
LayerCount: 2
Fore
SplineSet
384.35546875 1034 m 257
 8.009765625 0 l 257
 68.009765625 0 l 257
 444.35546875 1034 l 257
 384.35546875 1034 l 257
957.990234375 1033 m 257
 582.009765625 0 l 257
 640.009765625 0 l 257
 1015.99023438 1033 l 257
 957.990234375 1033 l 257
76.2109375 61 m 257
 54.009765625 0 l 257
 756.009765625 0 l 257
 778.2109375 61 l 257
 76.2109375 61 l 257
EndSplineSet
EndChar

StartChar: underscore
Encoding: 95 95 325
GlifName: underscore
Width: 1024
VWidth: 0
Flags: W
LayerCount: 2
Fore
SplineSet
7.279296875 0 m 257
 -7.279296875 -40 l 257
 1016.72070312 -40 l 257
 1031.27929688 0 l 257
 7.279296875 0 l 257
EndSplineSet
EndChar

StartChar: uni00B2
Encoding: 178 178 327
GlifName: uni00B_2
Width: 1024
VWidth: 0
Flags: W
LayerCount: 2
Fore
SplineSet
416.134765625 1522 m 257
 769.134765625 1522 l 257
 690.880859375 1307 l 257
 340.880859375 1307 l 257
 217.859375 969 l 257
 589.859375 969 l 257
 597.865234375 991 l 257
 254.865234375 991 l 257
 361.873046875 1285 l 257
 711.873046875 1285 l 257
 806.140625 1544 l 257
 424.140625 1544 l 257
 416.134765625 1522 l 257
EndSplineSet
EndChar

StartChar: uni00B3
Encoding: 179 179 328
GlifName: uni00B_3
Width: 1024
VWidth: 0
Flags: W
LayerCount: 2
Fore
SplineSet
271.450195312 1246 m 257
 728.450195312 1246 l 257
 634.91015625 989 l 257
 152.91015625 989 l 257
 150.90234375 967 l 257
 660.90234375 967 l 257
 873.09765625 1550 l 257
 374.09765625 1550 l 257
 366.454101562 1529 l 257
 829.454101562 1529 l 257
 734.458007812 1268 l 257
 279.458007812 1268 l 257
 271.450195312 1246 l 257
EndSplineSet
EndChar

StartChar: uni00B9
Encoding: 185 185 329
GlifName: uni00B_9
Width: 1024
VWidth: 0
Flags: W
LayerCount: 2
Fore
SplineSet
355.9609375 887.5 m 257
 385.9609375 887.5 l 257
 668.0390625 1662.5 l 257
 638.0390625 1662.5 l 257
 355.9609375 887.5 l 257
638.0390625 1662.5 m 257
 555.97265625 1600.5 l 257
 576.376953125 1586.5 l 257
 668.0390625 1662.5 l 257
 638.0390625 1662.5 l 257
EndSplineSet
EndChar

StartChar: uni0192
Encoding: 402 402 342
GlifName: uni0192
Width: 1024
VWidth: 0
Flags: W
LayerCount: 2
Fore
SplineSet
695.056640625 1023 m 257
 174.943359375 -406 l 257
 235.943359375 -406 l 257
 756.056640625 1023 l 257
 695.056640625 1023 l 257
722.056640625 1023 m 257
 701.310546875 966 l 257
 1146.31054688 966 l 257
 1167.05664062 1023 l 257
 722.056640625 1023 l 257
270.173828125 559 m 257
 248.700195312 500 l 257
 879.700195312 500 l 257
 901.173828125 559 l 257
 270.173828125 559 l 257
-120.854492188 -345 m 257
 -143.056640625 -406 l 257
 228.943359375 -406 l 257
 251.145507812 -345 l 257
 -120.854492188 -345 l 257
EndSplineSet
EndChar

StartChar: uni0237
Encoding: 567 567 385
GlifName: uni0237
Width: 1024
VWidth: 0
Flags: W
AnchorPoint: "top" 720 1182 basechar 0
LayerCount: 2
Fore
SplineSet
1028.05664062 1023 m 257
 506.123046875 -411 l 257
 564.123046875 -411 l 257
 1086.05664062 1023 l 257
 1028.05664062 1023 l 257
-40.947265625 -348 m 257
 -62.056640625 -406 l 257
 527.943359375 -406 l 257
 549.052734375 -348 l 257
 -40.947265625 -348 l 257
83.53125 -6 m 257
 -51.8662109375 -378 l 257
 8.1337890625 -378 l 257
 143.53125 -6 l 257
 83.53125 -6 l 257
EndSplineSet
EndChar

StartChar: uni02C9
Encoding: 713 713 389
GlifName: uni02C_9
Width: 1024
VWidth: 0
Flags: W
LayerCount: 2
Fore
SplineSet
246.55859375 1630 m 257
 217.44140625 1550 l 257
 777.44140625 1550 l 257
 806.55859375 1630 l 257
 246.55859375 1630 l 257
EndSplineSet
EndChar

StartChar: uni02CA
Encoding: 714 714 390
GlifName: uni02C_A_
Width: 1024
VWidth: 0
Flags: W
LayerCount: 2
Fore
SplineSet
564.85546875 949 m 257
 418.51953125 764 l 257
 459.14453125 730 l 257
 605.48046875 915 l 257
 564.85546875 949 l 257
EndSplineSet
EndChar

StartChar: uni02CB
Encoding: 715 715 391
GlifName: uni02C_B_
Width: 1024
VWidth: 0
Flags: W
LayerCount: 2
Fore
SplineSet
447.297851562 877 m 257
 497.047851562 673 l 257
 576.702148438 727 l 257
 527.31640625 932 l 257
 447.297851562 877 l 257
EndSplineSet
EndChar

StartChar: uni0302
Encoding: 770 770 392
GlifName: uni0302
Width: 0
VWidth: 0
GlyphClass: 4
Flags: HW
AnchorPoint: "top" 494.819 1427 mark 0
LayerCount: 2
Fore
SplineSet
609.819335938 1677 m 257
 573.819335938 1677 l 257
 328.819335938 1367 l 257
 349.819335938 1350 l 257
 609.819335938 1677 l 257
576.819335938 1679 m 257
 617.819335938 1345 l 257
 664.819335938 1363 l 257
 613.819335938 1679 l 257
 576.819335938 1679 l 257
EndSplineSet
EndChar

StartChar: uni0304
Encoding: 772 772 393
GlifName: uni0304
Width: 0
VWidth: 0
GlyphClass: 4
Flags: HW
AnchorPoint: "top" 555.617 1532 mark 0
LayerCount: 2
Fore
SplineSet
303.080078125 1602 m 257
 284.154296875 1550 l 257
 844.154296875 1550 l 257
 863.080078125 1602 l 257
 303.080078125 1602 l 257
EndSplineSet
EndChar

StartChar: uni0305
Encoding: 773 773 394
GlifName: uni0305
Width: 0
VWidth: 0
GlyphClass: 4
Flags: HW
AnchorPoint: "top" 590.161 1480 mark 0
LayerCount: 2
Fore
SplineSet
195.161132812 1602 m 257
 195.161132812 1542 l 257
 949.161132812 1542 l 257
 949.161132812 1602 l 257
 195.161132812 1602 l 257
EndSplineSet
EndChar

StartChar: uni0306
Encoding: 774 774 395
GlifName: uni0306
Width: 0
VWidth: 0
GlyphClass: 4
Flags: HW
AnchorPoint: "top" 586.442 1440 mark 0
LayerCount: 2
Fore
SplineSet
729.154296875 1550 m 257
 703.67578125 1480 l 257
 894.154296875 1550 l 257
 928.732421875 1645 l 257
 729.154296875 1550 l 257
405.154296875 1550 m 257
 379.67578125 1480 l 257
 703.67578125 1480 l 257
 729.154296875 1550 l 257
 405.154296875 1550 l 257
263.271484375 1630 m 257
 234.154296875 1550 l 257
 379.67578125 1480 l 257
 405.154296875 1550 l 257
 263.271484375 1630 l 257
EndSplineSet
EndChar

StartChar: uni0307
Encoding: 775 775 396
GlifName: uni0307
Width: 0
VWidth: 0
GlyphClass: 4
Flags: HW
AnchorPoint: "top" 610.199 1542 mark 0
LayerCount: 2
Fore
SplineSet
576.580078125 1738 m 257
 539.818359375 1637 l 257
 651.818359375 1637 l 257
 688.580078125 1738 l 257
 576.580078125 1738 l 257
EndSplineSet
EndChar

StartChar: uni0308
Encoding: 776 776 397
GlifName: uni0308
Width: 0
VWidth: 0
GlyphClass: 4
Flags: HW
AnchorPoint: "top" 618.199 1592 mark 0
LayerCount: 2
Fore
SplineSet
455.580078125 1738 m 257
 418.818359375 1637 l 257
 530.818359375 1637 l 257
 567.580078125 1738 l 257
 455.580078125 1738 l 257
697.580078125 1738 m 257
 660.818359375 1637 l 257
 772.818359375 1637 l 257
 809.580078125 1738 l 257
 697.580078125 1738 l 257
EndSplineSet
EndChar

StartChar: uni030A
Encoding: 778 778 398
GlifName: uni030A_
Width: 0
VWidth: 0
GlyphClass: 4
Flags: HW
AnchorPoint: "top" 550.02 1509 mark 0
LayerCount: 2
Fore
SplineSet
515.698242188 1818 m 257
 805.698242188 1818 l 257
 713.61328125 1565 l 257
 423.61328125 1565 l 257
 515.698242188 1818 l 257
492.252929688 1847 m 257
 379.786132812 1538 l 257
 739.786132812 1538 l 257
 852.252929688 1847 l 257
 492.252929688 1847 l 257
EndSplineSet
EndChar

StartChar: uni030C
Encoding: 780 780 400
GlifName: uni030C_
Width: 0
VWidth: 0
GlyphClass: 4
Flags: HW
AnchorPoint: "top" 423.625 1130 mark 0
LayerCount: 2
Fore
SplineSet
467.06640625 1286 m 257
 445.083984375 1613 l 257
 411.896484375 1596 l 257
 431.06640625 1286 l 257
 467.06640625 1286 l 257
433.703125 1285 m 257
 470.703125 1285 l 257
 751.353515625 1600 l 257
 716.904296875 1618 l 257
 433.703125 1285 l 257
EndSplineSet
EndChar

StartChar: uni030F
Encoding: 783 783 401
GlifName: uni030F_
Width: 0
VWidth: 0
GlyphClass: 4
Flags: HW
AnchorPoint: "top" 601.826 1352 mark 0
LayerCount: 2
Fore
SplineSet
607.326171875 1754 m 261
 727.326171875 1518 l 261
 818.326171875 1564 l 261
 699.326171875 1801 l 261
 607.326171875 1754 l 261
389.326171875 1754 m 261
 509.326171875 1518 l 261
 600.326171875 1564 l 261
 481.326171875 1801 l 261
 389.326171875 1754 l 261
EndSplineSet
EndChar

StartChar: uni0311
Encoding: 785 785 402
GlifName: uni0311
Width: 0
VWidth: 0
GlyphClass: 4
Flags: HW
AnchorPoint: "top" 545.059 1485 mark 0
LayerCount: 2
Fore
SplineSet
394.05859375 1577 m 257
 394.05859375 1645 l 257
 229.05859375 1577 l 257
 229.05859375 1480 l 257
 394.05859375 1577 l 257
718.05859375 1577 m 257
 718.05859375 1645 l 257
 394.05859375 1645 l 257
 394.05859375 1577 l 257
 718.05859375 1577 l 257
889.05859375 1495 m 257
 889.05859375 1577 l 257
 718.05859375 1645 l 257
 718.05859375 1577 l 257
 889.05859375 1495 l 257
EndSplineSet
EndChar

StartChar: uni031B
Encoding: 795 795 403
GlifName: uni031B_
Width: 0
VWidth: 0
GlyphClass: 4
Flags: HW
LayerCount: 2
Fore
SplineSet
248.26953125 965 m 257
 248.26953125 808 l 257
 384.26953125 808 l 257
 384.26953125 965 l 257
 248.26953125 965 l 257
332.26953125 935 m 257
 290.26953125 701 l 257
 340.26953125 652 l 257
 382.26953125 826 l 257
 332.26953125 935 l 257
EndSplineSet
EndChar

StartChar: uni0326
Encoding: 806 806 404
GlifName: uni0326
Width: 0
VWidth: 0
GlyphClass: 4
Flags: HW
AnchorPoint: "base" -22.7686 -5 mark 0
LayerCount: 2
Fore
SplineSet
-34 0 m 257
 -82.0439453125 -132 l 257
 29.9560546875 -132 l 257
 78 0 l 257
 -34 0 l 257
-82.0439453125 -132 m 257
 -167.537109375 -246 l 257
 -113.364257812 -273 l 257
 29.9560546875 -132 l 257
 -82.0439453125 -132 l 257
EndSplineSet
EndChar

StartChar: uni0327
Encoding: 807 807 405
GlifName: uni0327
Width: 0
VWidth: 0
GlyphClass: 4
Flags: HW
AnchorPoint: "base" -516.886 90 mark 0
LayerCount: 2
Fore
SplineSet
-160.485351562 180 m 257
 -247.837890625 -60 l 257
 -189.837890625 -60 l 257
 -102.485351562 180 l 257
 -160.485351562 180 l 257
-346.297851562 -347 m 257
 -367.771484375 -406 l 257
 78.228515625 -406 l 257
 99.7021484375 -347 l 257
 -346.297851562 -347 l 257
167 0 m 257
 31.603515625 -372 l 257
 90.603515625 -372 l 257
 226 0 l 257
 167 0 l 257
-220 0 m 257
 -241.837890625 -60 l 257
 204.162109375 -60 l 257
 226 0 l 257
 -220 0 l 257
EndSplineSet
EndChar

StartChar: uni0328
Encoding: 808 808 406
GlifName: uni0328
Width: 0
VWidth: 0
GlyphClass: 4
Flags: HW
AnchorPoint: "base" -241.796 0 mark 0
LayerCount: 2
Fore
SplineSet
-398.75390625 -351 m 257
 -420.591796875 -411 l 257
 120.408203125 -411 l 257
 142.24609375 -351 l 257
 -398.75390625 -351 l 257
-271 0 m 257
 -420.591796875 -411 l 257
 -360.591796875 -411 l 257
 -211 0 l 257
 -271 0 l 257
-271 0 m 257
 -292.474609375 -59 l 257
 249.525390625 -59 l 257
 271 0 l 257
 -271 0 l 257
EndSplineSet
EndChar

StartChar: uni0331
Encoding: 817 817 407
GlifName: uni0331
Width: 0
VWidth: 0
GlyphClass: 4
Flags: HW
AnchorPoint: "base" -78.2578 -163 mark 0
LayerCount: 2
Fore
SplineSet
-354.25 -204 m 257
 -370.265625 -248 l 257
 189.734375 -248 l 257
 205.75 -204 l 257
 -354.25 -204 l 257
EndSplineSet
EndChar

StartChar: uni0900
Encoding: 2304 2304 408
GlifName: uni0900
Width: 0
VWidth: 0
GlyphClass: 4
Flags: HW
LayerCount: 2
Fore
SplineSet
439.48046875 2121 m 257
 264.046875 1639 l 257
 324.046875 1639 l 257
 499.48046875 2121 l 257
 439.48046875 2121 l 257
453.844726562 2122 m 257
 431.641601562 2061 l 257
 1044.64160156 2061 l 257
 1066.84472656 2122 l 257
 453.844726562 2122 l 257
651.958984375 1919 m 257
 607.19140625 1796 l 257
 724.19140625 1796 l 257
 768.958984375 1919 l 257
 651.958984375 1919 l 257
1044.84472656 2122 m 257
 867.954101562 1636 l 257
 927.954101562 1636 l 257
 1104.84472656 2122 l 257
 1044.84472656 2122 l 257
EndSplineSet
EndChar

StartChar: uni0901
Encoding: 2305 2305 409
GlifName: uni0901
Width: 0
VWidth: 0
GlyphClass: 4
Flags: HW
LayerCount: 2
Fore
SplineSet
424.073242188 2124 m 257
 247.546875 1639 l 257
 307.546875 1639 l 257
 484.073242188 2124 l 257
 424.073242188 2124 l 257
304.385742188 1699 m 257
 282.546875 1639 l 257
 916.546875 1639 l 257
 938.385742188 1699 l 257
 304.385742188 1699 l 257
667.109375 1962 m 257
 622.33984375 1839 l 257
 739.33984375 1839 l 257
 784.109375 1962 l 257
 667.109375 1962 l 257
1064.25683594 2130 m 257
 885.546875 1639 l 257
 945.546875 1639 l 257
 1124.25683594 2130 l 257
 1064.25683594 2130 l 257
EndSplineSet
EndChar

StartChar: uni0902
Encoding: 2306 2306 410
GlifName: uni0902
Width: 0
VWidth: 0
GlyphClass: 4
Flags: HW
LayerCount: 2
Fore
SplineSet
558.749023438 1700 m 257
 515.073242188 1580 l 257
 635.073242188 1580 l 257
 678.749023438 1700 l 257
 558.749023438 1700 l 257
EndSplineSet
EndChar

StartChar: uni0903
Encoding: 2307 2307 411
GlifName: uni0903
Width: 1024
VWidth: 0
Flags: W
LayerCount: 2
Fore
SplineSet
330.506835938 410 m 257
 286.831054688 290 l 257
 406.831054688 290 l 257
 450.506835938 410 l 257
 330.506835938 410 l 257
617.168945312 1302 m 257
 573.4921875 1182 l 257
 693.4921875 1182 l 257
 737.168945312 1302 l 257
 617.168945312 1302 l 257
EndSplineSet
EndChar

StartChar: uni0904
Encoding: 2308 2308 412
GlifName: uni0904
Width: 1024
VWidth: 0
Flags: W
LayerCount: 2
Fore
SplineSet
702.421875 2062 m 257
 615.43359375 1823 l 257
 676.43359375 1823 l 257
 763.421875 2062 l 257
 702.421875 2062 l 257
630.083984375 1866 m 257
 609.337890625 1809 l 257
 1292.33789062 1809 l 257
 1313.08398438 1866 l 257
 630.083984375 1866 l 257
1251.9921875 1863 m 257
 1136.25 1545 l 257
 1196.25 1545 l 257
 1311.9921875 1863 l 257
 1251.9921875 1863 l 257
986.0703125 1550 m 257
 963.50390625 1488 l 257
 1260.50390625 1488 l 257
 1283.0703125 1550 l 257
 986.0703125 1550 l 257
1153.421875 1518 m 257
 600.916015625 0 l 257
 661.916015625 0 l 257
 1214.421875 1518 l 257
 1153.421875 1518 l 257
300.0703125 1550 m 257
 277.138671875 1487 l 257
 800.138671875 1487 l 257
 823.0703125 1550 l 257
 300.0703125 1550 l 257
790.0703125 1550 m 257
 238.291015625 34 l 257
 297.291015625 34 l 257
 849.0703125 1550 l 257
 790.0703125 1550 l 257
145.3046875 894 m 257
 123.830078125 835 l 257
 931.830078125 835 l 257
 953.3046875 894 l 257
 145.3046875 894 l 257
-265.42578125 65 m 257
 -289.083984375 0 l 257
 284.916015625 0 l 257
 308.57421875 65 l 257
 -265.42578125 65 l 257
EndSplineSet
EndChar

StartChar: uni0905
Encoding: 2309 2309 413
GlifName: uni0905
Width: 1024
VWidth: 0
Flags: W
LayerCount: 2
Fore
SplineSet
1000.57714844 1550 m 257
 978.010742188 1488 l 257
 1275.01074219 1488 l 257
 1297.57714844 1550 l 257
 1000.57714844 1550 l 257
1168.9296875 1518 m 257
 616.422851562 0 l 257
 677.422851562 0 l 257
 1229.9296875 1518 l 257
 1168.9296875 1518 l 257
315.577148438 1550 m 257
 292.646484375 1487 l 257
 815.646484375 1487 l 257
 838.577148438 1550 l 257
 315.577148438 1550 l 257
805.577148438 1550 m 257
 253.797851562 34 l 257
 312.797851562 34 l 257
 864.577148438 1550 l 257
 805.577148438 1550 l 257
160.8125 894 m 257
 139.337890625 835 l 257
 947.337890625 835 l 257
 968.8125 894 l 257
 160.8125 894 l 257
-249.918945312 65 m 257
 -273.577148438 0 l 257
 300.422851562 0 l 257
 324.081054688 65 l 257
 -249.918945312 65 l 257
EndSplineSet
EndChar

StartChar: uni0906
Encoding: 2310 2310 414
GlifName: uni0906
Width: 1024
VWidth: 0
Flags: W
LayerCount: 2
Fore
SplineSet
798.077148438 1550 m 257
 775.510742188 1488 l 257
 1276.51074219 1488 l 257
 1299.07714844 1550 l 257
 798.077148438 1550 l 257
969.4296875 1518 m 257
 416.922851562 0 l 257
 477.922851562 0 l 257
 1030.4296875 1518 l 257
 969.4296875 1518 l 257
314.077148438 1550 m 257
 291.146484375 1487 l 257
 614.146484375 1487 l 257
 637.077148438 1550 l 257
 314.077148438 1550 l 257
604.077148438 1550 m 257
 52.2978515625 34 l 257
 111.297851562 34 l 257
 663.077148438 1550 l 257
 604.077148438 1550 l 257
159.3125 894 m 257
 137.837890625 835 l 257
 745.837890625 835 l 257
 767.3125 894 l 257
 159.3125 894 l 257
-251.418945312 65 m 257
 -275.077148438 0 l 257
 98.9228515625 0 l 257
 122.581054688 65 l 257
 -251.418945312 65 l 257
1152.4296875 1518 m 257
 599.922851562 0 l 257
 660.922851562 0 l 257
 1213.4296875 1518 l 257
 1152.4296875 1518 l 257
EndSplineSet
EndChar

StartChar: uni0907
Encoding: 2311 2311 415
GlifName: uni0907
Width: 1024
VWidth: 0
Flags: W
LayerCount: 2
Fore
SplineSet
187.481445312 1550 m 257
 164.915039062 1488 l 257
 1198.91503906 1488 l 257
 1221.48144531 1550 l 257
 187.481445312 1550 l 257
871.833984375 1518 m 257
 746.264648438 1173 l 257
 805.264648438 1173 l 257
 930.833984375 1518 l 257
 871.833984375 1518 l 257
235.911132812 1205 m 257
 213.708984375 1144 l 257
 793.708984375 1144 l 257
 815.911132812 1205 l 257
 235.911132812 1205 l 257
227.17578125 1181 m 257
 104.881835938 845 l 257
 162.881835938 845 l 257
 285.17578125 1181 l 257
 227.17578125 1181 l 257
117.985351562 881 m 257
 95.4189453125 819 l 257
 741.418945312 819 l 257
 763.985351562 881 l 257
 117.985351562 881 l 257
729.985351562 881 m 257
 513.05859375 285 l 257
 573.05859375 285 l 257
 789.985351562 881 l 257
 729.985351562 881 l 257
-116.209960938 298 m 257
 -138.412109375 237 l 257
 556.587890625 237 l 257
 578.790039062 298 l 257
 -116.209960938 298 l 257
-0.2099609375 298 m 257
 -197.481445312 -244 l 257
 -137.481445312 -244 l 257
 59.7900390625 298 l 257
 -0.2099609375 298 l 257
EndSplineSet
EndChar

StartChar: uni0908
Encoding: 2312 2312 416
GlifName: uni0908
Width: 1024
VWidth: 0
Flags: W
LayerCount: 2
Fore
SplineSet
184.981445312 1550 m 257
 162.415039062 1488 l 257
 1199.41503906 1488 l 257
 1221.98144531 1550 l 257
 184.981445312 1550 l 257
875.337890625 1529 m 257
 749.404296875 1183 l 257
 809.404296875 1183 l 257
 935.337890625 1529 l 257
 875.337890625 1529 l 257
236.139648438 1207 m 257
 213.9375 1146 l 257
 795.9375 1146 l 257
 818.139648438 1207 l 257
 236.139648438 1207 l 257
226.67578125 1181 m 257
 105.837890625 849 l 257
 165.837890625 849 l 257
 286.67578125 1181 l 257
 226.67578125 1181 l 257
117.485351562 881 m 257
 95.646484375 821 l 257
 747.646484375 821 l 257
 769.485351562 881 l 257
 117.485351562 881 l 257
731.485351562 881 m 257
 514.55859375 285 l 257
 574.55859375 285 l 257
 791.485351562 881 l 257
 731.485351562 881 l 257
-116.709960938 298 m 257
 -138.912109375 237 l 257
 559.087890625 237 l 257
 581.290039062 298 l 257
 -116.709960938 298 l 257
-0.7099609375 298 m 257
 -197.981445312 -244 l 257
 -137.981445312 -244 l 257
 59.2900390625 298 l 257
 -0.7099609375 298 l 257
619.811523438 1860 m 257
 737.981445312 1550 l 257
 841.981445312 1550 l 257
 715.282226562 1908 l 257
 619.811523438 1860 l 257
EndSplineSet
EndChar

StartChar: uni0909
Encoding: 2313 2313 417
GlifName: uni0909
Width: 1024
VWidth: 0
Flags: W
LayerCount: 2
Fore
SplineSet
215.077148438 1550 m 257
 192.510742188 1488 l 257
 1217.51074219 1488 l 257
 1240.07714844 1550 l 257
 215.077148438 1550 l 257
830.796875 1530 m 257
 638.256835938 1001 l 257
 697.256835938 1001 l 257
 889.796875 1530 l 257
 830.796875 1530 l 257
268.908203125 1044 m 257
 247.43359375 985 l 257
 889.43359375 985 l 257
 910.908203125 1044 l 257
 268.908203125 1044 l 257
833.708984375 994 m 257
 471.922851562 0 l 257
 530.922851562 0 l 257
 892.708984375 994 l 257
 833.708984375 994 l 257
-193.875 61 m 257
 -216.077148438 0 l 257
 520.922851562 0 l 257
 543.125 61 l 257
 -193.875 61 l 257
-90.1435546875 346 m 257
 -209.162109375 19 l 257
 -150.162109375 19 l 257
 -31.1435546875 346 l 257
 -90.1435546875 346 l 257
EndSplineSet
EndChar

StartChar: uni090A
Encoding: 2314 2314 418
GlifName: uni090A_
Width: 1024
VWidth: 0
Flags: W
LayerCount: 2
Fore
SplineSet
257.077148438 1550 m 257
 234.510742188 1488 l 257
 1259.51074219 1488 l 257
 1282.07714844 1550 l 257
 257.077148438 1550 l 257
583.796875 1530 m 257
 391.256835938 1001 l 257
 452.256835938 1001 l 257
 644.796875 1530 l 257
 583.796875 1530 l 257
226.908203125 1044 m 257
 204.706054688 983 l 257
 1009.70605469 983 l 257
 1031.90820312 1044 l 257
 226.908203125 1044 l 257
683.708984375 994 m 257
 333.93359375 33 l 257
 394.93359375 33 l 257
 744.708984375 994 l 257
 683.708984375 994 l 257
-235.875 61 m 257
 -258.077148438 0 l 257
 382.922851562 0 l 257
 405.125 61 l 257
 -235.875 61 l 257
-132.143554688 346 m 257
 -251.162109375 19 l 257
 -190.162109375 19 l 257
 -71.1435546875 346 l 257
 -132.143554688 346 l 257
964.264648438 1023 m 257
 663.625 197 l 257
 723.625 197 l 257
 1024.26464844 1023 l 257
 964.264648438 1023 l 257
EndSplineSet
EndChar

StartChar: uni090B
Encoding: 2315 2315 419
GlifName: uni090B_
Width: 1024
VWidth: 0
Flags: W
LayerCount: 2
Fore
SplineSet
167.779296875 1550 m 257
 145.212890625 1488 l 257
 1162.21289062 1488 l 257
 1184.77929688 1550 l 257
 167.779296875 1550 l 257
669.591796875 1533 m 257
 111.625 0 l 257
 159.625 0 l 257
 721.958984375 1545 l 257
 669.591796875 1533 l 257
1.24609375 1043 m 257
 -20.591796875 983 l 257
 282.408203125 983 l 257
 304.24609375 1043 l 257
 1.24609375 1043 l 257
304.0546875 471 m 257
 -160.779296875 422 l 257
 -92.5224609375 376 l 257
 319.400390625 417 l 257
 304.0546875 471 l 257
304.24609375 1043 m 257
 282.408203125 983 l 257
 486.92578125 902 l 257
 507.30859375 958 l 257
 304.24609375 1043 l 257
485.106445312 897 m 257
 463.268554688 837 l 257
 804.268554688 837 l 257
 826.106445312 897 l 257
 485.106445312 897 l 257
784.106445312 897 m 257
 554.077148438 265 l 257
 615.077148438 265 l 257
 845.106445312 897 l 257
 784.106445312 897 l 257
575.551757812 324 m 257
 553.712890625 264 l 257
 723.712890625 264 l 257
 745.551757812 324 l 257
 575.551757812 324 l 257
EndSplineSet
EndChar

StartChar: uni090C
Encoding: 2316 2316 420
GlifName: uni090C_
Width: 1024
VWidth: 0
Flags: W
LayerCount: 2
Fore
SplineSet
200.216796875 1550 m 257
 177.650390625 1488 l 257
 1216.65039062 1488 l 257
 1239.21679688 1550 l 257
 200.216796875 1550 l 257
913.216796875 1550 m 257
 625.315429688 759 l 257
 685.315429688 759 l 257
 973.216796875 1550 l 257
 913.216796875 1550 l 257
894.962890625 791 m 257
 -21.037109375 791 l 257
 -42.875 731 l 257
 873.125 731 l 257
 894.962890625 791 l 257
-24.1328125 777 m 257
 -215.216796875 252 l 257
 -155.216796875 252 l 257
 35.8671875 777 l 257
 -24.1328125 777 l 257
402.962890625 791 m 257
 272.661132812 433 l 257
 332.661132812 433 l 257
 462.962890625 791 l 257
 402.962890625 791 l 257
825.327148438 792 m 257
 563.6328125 73 l 257
 623.6328125 73 l 257
 885.327148438 792 l 257
 825.327148438 792 l 257
629.106445312 132 m 257
 606.904296875 71 l 257
 698.904296875 71 l 257
 721.106445312 132 l 257
 629.106445312 132 l 257
EndSplineSet
EndChar

StartChar: uni090D
Encoding: 2317 2317 421
GlifName: uni090D_
Width: 1024
VWidth: 0
Flags: W
LayerCount: 2
Fore
SplineSet
148.112304688 1550 m 257
 125.545898438 1488 l 257
 1160.54589844 1488 l 257
 1183.11230469 1550 l 257
 148.112304688 1550 l 257
1019.29199219 1545 m 257
 740.491210938 779 l 257
 800.491210938 779 l 257
 1079.29199219 1545 l 257
 1019.29199219 1545 l 257
528.329101562 839 m 257
 506.491210938 779 l 257
 800.491210938 779 l 257
 822.329101562 839 l 257
 528.329101562 839 l 257
292.200195312 1542 m 257
 -146.020507812 338 l 257
 -86.0205078125 338 l 257
 352.200195312 1542 l 257
 292.200195312 1542 l 257
-138.740234375 358 m 257
 -160.942382812 297 l 257
 439.057617188 297 l 257
 461.259765625 358 l 257
 -138.740234375 358 l 257
407.259765625 358 m 257
 241.2890625 -98 l 257
 301.2890625 -98 l 257
 467.259765625 358 l 257
 407.259765625 358 l 257
-38.873046875 -38 m 257
 -60.7109375 -98 l 257
 299.2890625 -98 l 257
 321.126953125 -38 l 257
 -38.873046875 -38 l 257
518.03125 2124 m 257
 341.504882812 1639 l 257
 401.504882812 1639 l 257
 578.03125 2124 l 257
 518.03125 2124 l 257
410.435546875 1702 m 257
 388.233398438 1641 l 257
 982.233398438 1641 l 257
 1004.43554688 1702 l 257
 410.435546875 1702 l 257
1124.94238281 2132 m 257
 946.233398438 1641 l 257
 1006.23339844 1641 l 257
 1184.94238281 2132 l 257
 1124.94238281 2132 l 257
EndSplineSet
EndChar

StartChar: uni090E
Encoding: 2318 2318 422
GlifName: uni090E_
Width: 1024
VWidth: 0
Flags: W
LayerCount: 2
Fore
SplineSet
130.51953125 1550 m 257
 107.953125 1488 l 257
 1142.953125 1488 l 257
 1165.51953125 1550 l 257
 130.51953125 1550 l 257
1001.69921875 1545 m 257
 722.8984375 779 l 257
 782.8984375 779 l 257
 1061.69921875 1545 l 257
 1001.69921875 1545 l 257
510.736328125 839 m 257
 488.8984375 779 l 257
 782.8984375 779 l 257
 804.736328125 839 l 257
 510.736328125 839 l 257
274.607421875 1542 m 257
 -163.61328125 338 l 257
 -103.61328125 338 l 257
 334.607421875 1542 l 257
 274.607421875 1542 l 257
-156.33203125 358 m 257
 -178.53515625 297 l 257
 421.46484375 297 l 257
 443.66796875 358 l 257
 -156.33203125 358 l 257
389.66796875 358 m 257
 223.697265625 -98 l 257
 283.697265625 -98 l 257
 449.66796875 358 l 257
 389.66796875 358 l 257
-56.46484375 -38 m 257
 -78.302734375 -98 l 257
 281.697265625 -98 l 257
 303.53515625 -38 l 257
 -56.46484375 -38 l 257
591.873046875 2062 m 257
 504.8828125 1823 l 257
 564.8828125 1823 l 257
 651.873046875 2062 l 257
 591.873046875 2062 l 257
518.53515625 1866 m 257
 497.787109375 1809 l 257
 1181.78710938 1809 l 257
 1202.53515625 1866 l 257
 518.53515625 1866 l 257
1141.62304688 1858 m 257
 1025.88085938 1540 l 257
 1085.88085938 1540 l 257
 1201.62304688 1858 l 257
 1141.62304688 1858 l 257
EndSplineSet
EndChar

StartChar: uni090F
Encoding: 2319 2319 423
GlifName: uni090F_
Width: 1024
VWidth: 0
Flags: W
LayerCount: 2
Fore
SplineSet
149.02734375 1550 m 257
 126.4609375 1488 l 257
 1161.4609375 1488 l 257
 1184.02734375 1550 l 257
 149.02734375 1550 l 257
1020.20703125 1545 m 257
 741.40625 779 l 257
 801.40625 779 l 257
 1080.20703125 1545 l 257
 1020.20703125 1545 l 257
529.244140625 839 m 257
 507.40625 779 l 257
 801.40625 779 l 257
 823.244140625 839 l 257
 529.244140625 839 l 257
293.115234375 1542 m 257
 -145.10546875 338 l 257
 -85.10546875 338 l 257
 353.115234375 1542 l 257
 293.115234375 1542 l 257
-137.825195312 358 m 257
 -160.02734375 297 l 257
 439.97265625 297 l 257
 462.174804688 358 l 257
 -137.825195312 358 l 257
408.174804688 358 m 257
 242.204101562 -98 l 257
 302.204101562 -98 l 257
 468.174804688 358 l 257
 408.174804688 358 l 257
-37.9580078125 -38 m 257
 -59.7958984375 -98 l 257
 300.204101562 -98 l 257
 322.041992188 -38 l 257
 -37.9580078125 -38 l 257
EndSplineSet
EndChar

StartChar: uni0910
Encoding: 2320 2320 424
GlifName: uni0910
Width: 1024
VWidth: 0
Flags: W
LayerCount: 2
Fore
SplineSet
148.845703125 1549 m 257
 127.0078125 1489 l 257
 1162.0078125 1489 l 257
 1183.84570312 1549 l 257
 148.845703125 1549 l 257
1018.38867188 1545 m 257
 739.587890625 779 l 257
 801.587890625 779 l 257
 1080.38867188 1545 l 257
 1018.38867188 1545 l 257
529.791015625 840 m 257
 507.587890625 779 l 257
 801.587890625 779 l 257
 823.791015625 840 l 257
 529.791015625 840 l 257
293.296875 1542 m 257
 -144.923828125 338 l 257
 -84.923828125 338 l 257
 353.296875 1542 l 257
 293.296875 1542 l 257
-137.279296875 359 m 257
 -159.845703125 297 l 257
 440.154296875 297 l 257
 462.720703125 359 l 257
 -137.279296875 359 l 257
422.357421875 358 m 257
 256.38671875 -98 l 257
 314.38671875 -98 l 257
 480.357421875 358 l 257
 422.357421875 358 l 257
-37.412109375 -37 m 257
 -59.61328125 -98 l 257
 300.38671875 -98 l 257
 322.587890625 -37 l 257
 -37.412109375 -37 l 257
860.1640625 1962 m 257
 1008.20898438 1550 l 257
 1080.20898438 1550 l 257
 927.267578125 1998 l 257
 860.1640625 1962 l 257
EndSplineSet
EndChar

StartChar: uni0911
Encoding: 2321 2321 425
GlifName: uni0911
Width: 1024
VWidth: 0
Flags: W
LayerCount: 2
Fore
SplineSet
720.350585938 1548 m 257
 698.512695312 1488 l 257
 1186.51269531 1488 l 257
 1208.35058594 1548 l 257
 720.350585938 1548 l 257
713.064453125 1506 m 257
 164.924804688 0 l 257
 226.924804688 0 l 257
 775.064453125 1506 l 257
 713.064453125 1506 l 257
211.079101562 1550 m 257
 188.512695312 1488 l 257
 548.512695312 1488 l 257
 571.079101562 1550 l 257
 211.079101562 1550 l 257
537.079101562 1550 m 257
 -16.15625 30 l 257
 43.84375 30 l 257
 597.079101562 1550 l 257
 537.079101562 1550 l 257
56.314453125 894 m 257
 34.4755859375 834 l 257
 506.475585938 834 l 257
 528.314453125 894 l 257
 56.314453125 894 l 257
-356.873046875 61 m 257
 -379.075195312 0 l 257
 32.9248046875 0 l 257
 55.126953125 61 l 257
 -356.873046875 61 l 257
980.3359375 1504 m 257
 432.924804688 0 l 257
 492.924804688 0 l 257
 1040.3359375 1504 l 257
 980.3359375 1504 l 257
905.802734375 2085 m 257
 743.471679688 1639 l 257
 805.471679688 1639 l 257
 967.802734375 2085 l 257
 905.802734375 2085 l 257
772.038085938 1701 m 257
 750.200195312 1641 l 257
 1242.20019531 1641 l 257
 1264.03808594 1701 l 257
 772.038085938 1701 l 257
1331.07519531 2083 m 257
 1170.20019531 1641 l 257
 1242.20019531 1641 l 257
 1403.07519531 2083 l 257
 1331.07519531 2083 l 257
EndSplineSet
EndChar

StartChar: uni0912
Encoding: 2322 2322 426
GlifName: uni0912
Width: 1024
VWidth: 0
Flags: W
LayerCount: 2
Fore
SplineSet
767.162109375 1553 m 257
 745.6875 1494 l 257
 1246.6875 1494 l 257
 1268.16210938 1553 l 257
 767.162109375 1553 l 257
955.421875 1518 m 257
 402.916015625 0 l 257
 463.916015625 0 l 257
 1016.421875 1518 l 257
 955.421875 1518 l 257
300.0703125 1550 m 257
 277.138671875 1487 l 257
 600.138671875 1487 l 257
 623.0703125 1550 l 257
 300.0703125 1550 l 257
590.0703125 1550 m 257
 38.291015625 34 l 257
 97.291015625 34 l 257
 649.0703125 1550 l 257
 590.0703125 1550 l 257
145.3046875 894 m 257
 123.830078125 835 l 257
 731.830078125 835 l 257
 753.3046875 894 l 257
 145.3046875 894 l 257
-265.42578125 65 m 257
 -289.083984375 0 l 257
 84.916015625 0 l 257
 108.57421875 65 l 257
 -265.42578125 65 l 257
1138.421875 1518 m 257
 585.916015625 0 l 257
 646.916015625 0 l 257
 1199.421875 1518 l 257
 1138.421875 1518 l 257
702.421875 2062 m 257
 615.43359375 1823 l 257
 676.43359375 1823 l 257
 763.421875 2062 l 257
 702.421875 2062 l 257
630.083984375 1866 m 257
 609.337890625 1809 l 257
 1292.33789062 1809 l 257
 1313.08398438 1866 l 257
 630.083984375 1866 l 257
1251.9921875 1863 m 257
 1136.25 1545 l 257
 1196.25 1545 l 257
 1311.9921875 1863 l 257
 1251.9921875 1863 l 257
EndSplineSet
EndChar

StartChar: uni0913
Encoding: 2323 2323 427
GlifName: uni0913
Width: 1024
VWidth: 0
Flags: W
LayerCount: 2
Fore
SplineSet
796.89453125 1549 m 257
 775.056640625 1489 l 257
 1276.05664062 1489 l 257
 1297.89453125 1549 l 257
 796.89453125 1549 l 257
970.611328125 1518 m 257
 418.10546875 0 l 257
 479.10546875 0 l 257
 1031.61132812 1518 l 257
 970.611328125 1518 l 257
315.259765625 1550 m 257
 292.328125 1487 l 257
 615.328125 1487 l 257
 638.259765625 1550 l 257
 315.259765625 1550 l 257
605.259765625 1550 m 257
 53.48046875 34 l 257
 112.48046875 34 l 257
 664.259765625 1550 l 257
 605.259765625 1550 l 257
160.494140625 894 m 257
 139.01953125 835 l 257
 747.01953125 835 l 257
 768.494140625 894 l 257
 160.494140625 894 l 257
-250.236328125 65 m 257
 -273.89453125 0 l 257
 100.10546875 0 l 257
 123.763671875 65 l 257
 -250.236328125 65 l 257
1153.61132812 1518 m 257
 601.10546875 0 l 257
 662.10546875 0 l 257
 1214.61132812 1518 l 257
 1153.61132812 1518 l 257
1056.79882812 1807 m 257
 1036.61523438 1529 l 257
 1120.25976562 1550 l 257
 1136.71484375 1826 l 257
 1056.79882812 1807 l 257
EndSplineSet
EndChar

StartChar: uni0914
Encoding: 2324 2324 428
GlifName: uni0914
Width: 1024
VWidth: 0
Flags: W
LayerCount: 2
Fore
SplineSet
789.623046875 1553 m 257
 768.1484375 1494 l 257
 1269.1484375 1494 l 257
 1290.62304688 1553 l 257
 789.623046875 1553 l 257
977.883789062 1518 m 257
 425.376953125 0 l 257
 486.376953125 0 l 257
 1038.88378906 1518 l 257
 977.883789062 1518 l 257
322.53125 1550 m 257
 299.600585938 1487 l 257
 622.600585938 1487 l 257
 645.53125 1550 l 257
 322.53125 1550 l 257
612.53125 1550 m 257
 60.751953125 34 l 257
 119.751953125 34 l 257
 671.53125 1550 l 257
 612.53125 1550 l 257
167.766601562 894 m 257
 146.291992188 835 l 257
 754.291992188 835 l 257
 775.766601562 894 l 257
 167.766601562 894 l 257
-242.96484375 65 m 257
 -266.623046875 0 l 257
 107.376953125 0 l 257
 131.03515625 65 l 257
 -242.96484375 65 l 257
1160.88378906 1518 m 257
 608.376953125 0 l 257
 669.376953125 0 l 257
 1221.88378906 1518 l 257
 1160.88378906 1518 l 257
686.512695312 1767 m 257
 976.431640625 1525 l 257
 1045.89160156 1540 l 257
 745.346679688 1816 l 257
 686.512695312 1767 l 257
985.740234375 1905 m 257
 1059.53125 1550 l 257
 1140.53125 1550 l 257
 1050.38769531 1937 l 257
 985.740234375 1905 l 257
EndSplineSet
EndChar

StartChar: uni0915
Encoding: 2325 2325 429
GlifName: uni0915
Width: 1024
VWidth: 0
Flags: W
LayerCount: 2
Fore
SplineSet
104.810546875 1553 m 257
 82.6083984375 1492 l 257
 1106.60839844 1492 l 257
 1128.81054688 1553 l 257
 104.810546875 1553 l 257
686.795898438 1509 m 257
 137.564453125 0 l 257
 197.564453125 0 l 257
 746.795898438 1509 l 257
 686.795898438 1509 l 257
109.6484375 1069 m 257
 87.4462890625 1008 l 257
 446.446289062 1008 l 257
 468.6484375 1069 l 257
 109.6484375 1069 l 257
98.2841796875 1068 m 257
 -104.810546875 510 l 257
 -44.810546875 510 l 257
 158.284179688 1068 l 257
 98.2841796875 1068 l 257
-67.244140625 572 m 257
 -89.4462890625 511 l 257
 370.553710938 511 l 257
 392.755859375 572 l 257
 -67.244140625 572 l 257
526.170898438 999 m 257
 503.96875 938 l 257
 768.96875 938 l 257
 791.170898438 999 l 257
 526.170898438 999 l 257
741.53515625 1000 m 257
 661.09765625 779 l 257
 723.09765625 779 l 257
 803.53515625 1000 l 257
 741.53515625 1000 l 257
EndSplineSet
EndChar

StartChar: uni0915_uni0930_uni094D.vatu
Encoding: 65537 -1 430
GlifName: uni0915_uni0930_uni094D_.vatu
Width: 1024
VWidth: 0
Flags: W
LayerCount: 2
Fore
SplineSet
254.123046875 1553 m 257
 231.920898438 1492 l 257
 1255.92089844 1492 l 257
 1278.12304688 1553 l 257
 254.123046875 1553 l 257
836.108398438 1509 m 257
 286.876953125 0 l 257
 346.876953125 0 l 257
 896.108398438 1509 l 257
 836.108398438 1509 l 257
258.9609375 1069 m 257
 236.758789062 1008 l 257
 580.758789062 1008 l 257
 602.9609375 1069 l 257
 258.9609375 1069 l 257
247.596679688 1068 m 257
 44.501953125 510 l 257
 104.501953125 510 l 257
 307.596679688 1068 l 257
 247.596679688 1068 l 257
82.068359375 572 m 257
 59.8662109375 511 l 257
 519.866210938 511 l 257
 542.068359375 572 l 257
 82.068359375 572 l 257
675.483398438 999 m 257
 653.28125 938 l 257
 918.28125 938 l 257
 940.483398438 999 l 257
 675.483398438 999 l 257
890.84765625 1000 m 257
 810.41015625 779 l 257
 872.41015625 779 l 257
 952.84765625 1000 l 257
 890.84765625 1000 l 257
-254.123046875 0 m 257
 -134.123046875 0 l 257
 421.130859375 215 l 257
 446.608398438 285 l 257
 -254.123046875 0 l 257
EndSplineSet
Ligature2: "rkrfRakarVariantsinDevanagari2lookup0 subtable" uni0915 uni0930_uni094D.blwf
EndChar

StartChar: uni0915_uni094D.half
Encoding: 65538 -1 431
GlifName: uni0915_uni094D_.half
Width: 1024
VWidth: 0
Flags: W
LayerCount: 2
Fore
SplineSet
104.810546875 1553 m 257
 82.6083984375 1492 l 257
 1106.60839844 1492 l 257
 1128.81054688 1553 l 257
 104.810546875 1553 l 257
686.795898438 1509 m 257
 137.564453125 0 l 257
 197.564453125 0 l 257
 746.795898438 1509 l 257
 686.795898438 1509 l 257
109.6484375 1069 m 257
 87.4462890625 1008 l 257
 441.446289062 1008 l 257
 463.6484375 1069 l 257
 109.6484375 1069 l 257
98.2841796875 1068 m 257
 -104.810546875 510 l 257
 -44.810546875 510 l 257
 158.284179688 1068 l 257
 98.2841796875 1068 l 257
-67.244140625 572 m 257
 -89.4462890625 511 l 257
 370.553710938 511 l 257
 392.755859375 572 l 257
 -67.244140625 572 l 257
526.170898438 999 m 257
 503.96875 938 l 257
 911.96875 938 l 257
 934.170898438 999 l 257
 526.170898438 999 l 257
EndSplineSet
Ligature2: "halfHalfFormsinDevanagari2lookup0 subtable" uni0915 uni094D
EndChar

StartChar: uni0915_uni094D.haln
Encoding: 65539 -1 432
GlifName: uni0915_uni094D_.haln
Width: 1024
VWidth: 0
Flags: HW
LayerCount: 2
Fore
SplineSet
602.375 1553 m 257
 580.172851562 1492 l 257
 1604.17285156 1492 l 257
 1626.375 1553 l 257
 602.375 1553 l 257
1184.36035156 1509 m 257
 635.129882812 0 l 257
 695.129882812 0 l 257
 1244.36035156 1509 l 257
 1184.36035156 1509 l 257
607.213867188 1069 m 257
 585.010742188 1008 l 257
 944.010742188 1008 l 257
 966.213867188 1069 l 257
 607.213867188 1069 l 257
595.849609375 1068 m 257
 392.75390625 510 l 257
 452.75390625 510 l 257
 655.849609375 1068 l 257
 595.849609375 1068 l 257
430.3203125 572 m 257
 408.118164062 511 l 257
 868.118164062 511 l 257
 890.3203125 572 l 257
 430.3203125 572 l 257
1023.73535156 999 m 257
 1001.53320312 938 l 257
 1266.53320312 938 l 257
 1288.73535156 999 l 257
 1023.73535156 999 l 257
1239.09960938 1000 m 257
 1158.66210938 779 l 257
 1220.66210938 779 l 257
 1301.09960938 1000 l 257
 1239.09960938 1000 l 257
496.42578125 -16 m 257
 474.223632812 -77 l 257
 818.223632812 -77 l 257
 840.42578125 -16 l 257
 496.42578125 -16 l 257
791.407226562 -71 m 257
 975.109375 -418 l 257
 1024.03613281 -366 l 257
 840.790039062 -15 l 257
 791.407226562 -71 l 257
EndSplineSet
LCarets2: 1 0
Ligature2: "halnHalantFormsinDevanagari2lookup0 subtable" uni0915 uni094D
EndChar

StartChar: uni0915_uni094D_uni0937.akhn
Encoding: 65540 -1 433
GlifName: uni0915_uni094D__uni0937.akhn
Width: 1024
VWidth: 0
Flags: W
LayerCount: 2
Fore
SplineSet
837.8671875 1550 m 257
 816.392578125 1491 l 257
 1175.39257812 1491 l 257
 1196.8671875 1550 l 257
 837.8671875 1550 l 257
1020.671875 1511 m 257
 470.712890625 0 l 257
 529.712890625 0 l 257
 1079.671875 1511 l 257
 1020.671875 1511 l 257
127.07421875 1078 m 257
 105.234375 1018 l 257
 900.234375 1018 l 257
 922.07421875 1078 l 257
 127.07421875 1078 l 257
107.0546875 1023 m 257
 167.0546875 1023 l 257
 312.279296875 1422 l 257
 252.279296875 1422 l 257
 107.0546875 1023 l 257
258.009765625 1435 m 257
 235.80859375 1374 l 257
 675.80859375 1374 l 257
 698.009765625 1435 l 257
 258.009765625 1435 l 257
632.279296875 1422 m 257
 489.603515625 1030 l 257
 549.603515625 1030 l 257
 692.279296875 1422 l 257
 632.279296875 1422 l 257
2.201171875 647 m 257
 62.201171875 647 l 257
 547.875 1028 l 257
 489.875 1028 l 257
 2.201171875 647 l 257
2.201171875 647 m 257
 -160.4921875 200 l 257
 -100.4921875 200 l 257
 62.201171875 647 l 257
 2.201171875 647 l 257
-151.029296875 226 m 257
 -172.8671875 166 l 257
 551.1328125 166 l 257
 572.970703125 226 l 257
 -151.029296875 226 l 257
EndSplineSet
Ligature2: "akhnAkhandinDevanagari2lookup0 subtable" uni0915 uni094D uni0937
EndChar

StartChar: uni0915_uni094D_uni0937.half
Encoding: 65541 -1 434
GlifName: uni0915_uni094D__uni0937.half
Width: 1024
VWidth: 0
Flags: W
LayerCount: 2
Fore
SplineSet
837.8671875 1550 m 257
 816.392578125 1491 l 257
 1175.39257812 1491 l 257
 1196.8671875 1550 l 257
 837.8671875 1550 l 257
127.07421875 1078 m 257
 105.234375 1018 l 257
 1000.234375 1018 l 257
 1022.07421875 1078 l 257
 127.07421875 1078 l 257
107.0546875 1023 m 257
 167.0546875 1023 l 257
 312.279296875 1422 l 257
 252.279296875 1422 l 257
 107.0546875 1023 l 257
258.009765625 1435 m 257
 235.80859375 1374 l 257
 675.80859375 1374 l 257
 698.009765625 1435 l 257
 258.009765625 1435 l 257
632.279296875 1422 m 257
 489.603515625 1030 l 257
 549.603515625 1030 l 257
 692.279296875 1422 l 257
 632.279296875 1422 l 257
2.201171875 647 m 257
 62.201171875 647 l 257
 547.875 1028 l 257
 489.875 1028 l 257
 2.201171875 647 l 257
2.201171875 647 m 257
 -160.4921875 200 l 257
 -100.4921875 200 l 257
 62.201171875 647 l 257
 2.201171875 647 l 257
-151.029296875 226 m 257
 -172.8671875 166 l 257
 651.1328125 166 l 257
 672.970703125 226 l 257
 -151.029296875 226 l 257
EndSplineSet
Ligature2: "halfHalfFormsinDevanagari2lookup0 subtable" uni0915_uni094D_uni0937.akhn uni094D
EndChar

StartChar: uni0915_uni094D_uni0937_uni094D
Encoding: 65542 -1 435
GlifName: uni0915_uni094D__uni0937_uni094D_
Width: 1024
VWidth: 0
Flags: W
LayerCount: 2
Fore
SplineSet
525.580078125 1550 m 257
 504.106445312 1491 l 257
 863.106445312 1491 l 257
 884.580078125 1550 l 257
 525.580078125 1550 l 257
708.385742188 1511 m 257
 158.426757812 0 l 257
 217.426757812 0 l 257
 767.385742188 1511 l 257
 708.385742188 1511 l 257
-185.212890625 1078 m 257
 -207.051757812 1018 l 257
 587.948242188 1018 l 257
 609.787109375 1078 l 257
 -185.212890625 1078 l 257
-205.231445312 1023 m 257
 -145.231445312 1023 l 257
 -0.0068359375 1422 l 257
 -60.0068359375 1422 l 257
 -205.231445312 1023 l 257
-54.2763671875 1435 m 257
 -76.4775390625 1374 l 257
 363.522460938 1374 l 257
 385.723632812 1435 l 257
 -54.2763671875 1435 l 257
319.993164062 1422 m 257
 177.317382812 1030 l 257
 237.317382812 1030 l 257
 379.993164062 1422 l 257
 319.993164062 1422 l 257
-310.084960938 647 m 257
 -250.084960938 647 l 257
 235.588867188 1028 l 257
 177.588867188 1028 l 257
 -310.084960938 647 l 257
-310.084960938 647 m 257
 -472.778320312 200 l 257
 -412.778320312 200 l 257
 -250.084960938 647 l 257
 -310.084960938 647 l 257
-463.314453125 226 m 257
 -485.153320312 166 l 257
 238.846679688 166 l 257
 260.685546875 226 l 257
 -463.314453125 226 l 257
1000.00976562 -16 m 257
 977.807617188 -77 l 257
 1321.80761719 -77 l 257
 1344.00976562 -16 l 257
 1000.00976562 -16 l 257
1294.99121094 -71 m 257
 1478.69335938 -418 l 257
 1527.62011719 -366 l 257
 1344.37402344 -15 l 257
 1294.99121094 -71 l 257
EndSplineSet
Ligature2: "halnHalantFormsinDevanagari2lookup0 subtable" uni0915_uni094D_uni0937.akhn uni094D
EndChar

StartChar: uni0916
Encoding: 2326 2326 436
GlifName: uni0916
Width: 1024
VWidth: 0
Flags: W
LayerCount: 2
Fore
SplineSet
175.884765625 1553 m 257
 155.13671875 1496 l 257
 1181.13671875 1496 l 257
 1201.88476562 1553 l 257
 175.884765625 1553 l 257
993.689453125 1514 m 257
 442.638671875 0 l 257
 504.638671875 0 l 257
 1055.68945312 1514 l 257
 993.689453125 1514 l 257
380.96484375 979 m 257
 359.126953125 919 l 257
 621.126953125 919 l 257
 642.96484375 979 l 257
 380.96484375 979 l 257
350.96484375 979 m 257
 145.322265625 414 l 257
 205.322265625 414 l 257
 410.96484375 979 l 257
 350.96484375 979 l 257
150.78125 429 m 257
 128.580078125 368 l 257
 592.580078125 368 l 257
 614.78125 429 l 257
 150.78125 429 l 257
346.232421875 1510 m 257
 -159.685546875 120 l 257
 -97.685546875 120 l 257
 408.232421875 1510 l 257
 346.232421875 1510 l 257
-113.486328125 714 m 257
 -135.326171875 654 l 257
 94.673828125 654 l 257
 116.513671875 714 l 257
 -113.486328125 714 l 257
-156.044921875 130 m 257
 -177.884765625 70 l 257
 466.115234375 70 l 257
 487.955078125 130 l 257
 -156.044921875 130 l 257
EndSplineSet
EndChar

StartChar: uni0916_uni0930_uni094D.vatu
Encoding: 65543 -1 437
GlifName: uni0916_uni0930_uni094D_.vatu
Width: 1024
VWidth: 0
Flags: W
LayerCount: 2
Fore
SplineSet
-164.123046875 0 m 257
 -44.123046875 0 l 257
 511.130859375 215 l 257
 536.608398438 285 l 257
 -164.123046875 0 l 257
162.123046875 1553 m 257
 141.375976562 1496 l 257
 1167.37597656 1496 l 257
 1188.12304688 1553 l 257
 162.123046875 1553 l 257
979.927734375 1514 m 257
 428.876953125 0 l 257
 490.876953125 0 l 257
 1041.92773438 1514 l 257
 979.927734375 1514 l 257
476.39453125 1279 m 257
 454.556640625 1219 l 257
 716.556640625 1219 l 257
 738.39453125 1279 l 257
 476.39453125 1279 l 257
446.39453125 1279 m 257
 240.751953125 714 l 257
 300.751953125 714 l 257
 506.39453125 1279 l 257
 446.39453125 1279 l 257
246.2109375 729 m 257
 224.008789062 668 l 257
 688.008789062 668 l 257
 710.2109375 729 l 257
 246.2109375 729 l 257
332.471679688 1510 m 257
 -64.255859375 420 l 257
 -2.255859375 420 l 257
 394.471679688 1510 l 257
 332.471679688 1510 l 257
-18.0576171875 1014 m 257
 -39.8955078125 954 l 257
 190.104492188 954 l 257
 211.942382812 1014 l 257
 -18.0576171875 1014 l 257
-60.6162109375 430 m 257
 -82.4541015625 370 l 257
 561.545898438 370 l 257
 583.383789062 430 l 257
 -60.6162109375 430 l 257
EndSplineSet
Ligature2: "rkrfRakarVariantsinDevanagari2lookup0 subtable" uni0916 uni0930_uni094D.blwf
EndChar

StartChar: uni0916_uni094D.half
Encoding: 65544 -1 438
GlifName: uni0916_uni094D_.half
Width: 1024
VWidth: 0
Flags: W
LayerCount: 2
Fore
SplineSet
175.884765625 1553 m 257
 155.13671875 1496 l 257
 1181.13671875 1496 l 257
 1201.88476562 1553 l 257
 175.884765625 1553 l 257
380.96484375 979 m 257
 359.126953125 919 l 257
 796.126953125 919 l 257
 817.96484375 979 l 257
 380.96484375 979 l 257
350.96484375 979 m 257
 145.322265625 414 l 257
 205.322265625 414 l 257
 410.96484375 979 l 257
 350.96484375 979 l 257
150.78125 429 m 257
 128.580078125 368 l 257
 768.580078125 368 l 257
 790.78125 429 l 257
 150.78125 429 l 257
346.232421875 1510 m 257
 -159.685546875 120 l 257
 -97.685546875 120 l 257
 408.232421875 1510 l 257
 346.232421875 1510 l 257
-113.486328125 714 m 257
 -135.326171875 654 l 257
 94.673828125 654 l 257
 116.513671875 714 l 257
 -113.486328125 714 l 257
-156.044921875 130 m 257
 -177.884765625 70 l 257
 642.115234375 70 l 257
 663.955078125 130 l 257
 -156.044921875 130 l 257
EndSplineSet
Ligature2: "halfHalfFormsinDevanagari2lookup0 subtable" uni0916 uni094D
EndChar

StartChar: uni0916_uni094D.haln
Encoding: 65545 -1 439
GlifName: uni0916_uni094D_.haln
Width: 1024
VWidth: 0
Flags: W
LayerCount: 2
Fore
SplineSet
-119.477539062 1553 m 257
 -140.225585938 1496 l 257
 885.774414062 1496 l 257
 906.522460938 1553 l 257
 -119.477539062 1553 l 257
698.327148438 1514 m 257
 147.276367188 0 l 257
 209.276367188 0 l 257
 760.327148438 1514 l 257
 698.327148438 1514 l 257
85.6025390625 979 m 257
 63.7646484375 919 l 257
 325.764648438 919 l 257
 347.602539062 979 l 257
 85.6025390625 979 l 257
55.6025390625 979 m 257
 -150.040039062 414 l 257
 -90.0400390625 414 l 257
 115.602539062 979 l 257
 55.6025390625 979 l 257
-144.581054688 429 m 257
 -166.782226562 368 l 257
 297.217773438 368 l 257
 319.418945312 429 l 257
 -144.581054688 429 l 257
50.8701171875 1510 m 257
 -455.047851562 120 l 257
 -393.047851562 120 l 257
 112.870117188 1510 l 257
 50.8701171875 1510 l 257
-408.848632812 714 m 257
 -430.6875 654 l 257
 -200.6875 654 l 257
 -178.848632812 714 l 257
 -408.848632812 714 l 257
-451.407226562 130 m 257
 -473.24609375 70 l 257
 170.75390625 70 l 257
 192.592773438 130 l 257
 -451.407226562 130 l 257
474.571289062 -16 m 257
 452.369140625 -77 l 257
 796.369140625 -77 l 257
 818.571289062 -16 l 257
 474.571289062 -16 l 257
769.553710938 -71 m 257
 953.255859375 -418 l 257
 1002.18164062 -366 l 257
 818.935546875 -15 l 257
 769.553710938 -71 l 257
EndSplineSet
Ligature2: "halnHalantFormsinDevanagari2lookup0 subtable" uni0916 uni094D
EndChar

StartChar: uni0917
Encoding: 2327 2327 440
GlifName: uni0917
Width: 1024
VWidth: 0
Flags: W
LayerCount: 2
Fore
SplineSet
-62.927734375 853 m 257
 7.072265625 853 l 257
 76.58984375 1044 l 257
 6.58984375 1044 l 257
 -62.927734375 853 l 257
-52.373046875 882 m 257
 -77.8515625 812 l 257
 269.1484375 812 l 257
 294.626953125 882 l 257
 -52.373046875 882 l 257
468.8515625 1553 m 257
 199.1484375 812 l 257
 269.1484375 812 l 257
 538.8515625 1553 l 257
 468.8515625 1553 l 257
1101.8515625 1553 m 257
 350.8515625 1553 l 257
 330.103515625 1496 l 257
 1081.10351562 1496 l 257
 1101.8515625 1553 l 257
939.931640625 1523 m 257
 385.60546875 0 l 257
 455.60546875 0 l 257
 1009.93164062 1523 l 257
 939.931640625 1523 l 257
EndSplineSet
EndChar

StartChar: uni0917_uni0930_uni094D.vatu
Encoding: 65546 -1 441
GlifName: uni0917_uni0930_uni094D_.vatu
Width: 1024
VWidth: 0
Flags: W
LayerCount: 2
Fore
SplineSet
-135.123046875 0 m 257
 -15.123046875 0 l 257
 540.130859375 215 l 257
 565.608398438 285 l 257
 -135.123046875 0 l 257
-5.65625 853 m 257
 64.34375 853 l 257
 133.862304688 1044 l 257
 63.8623046875 1044 l 257
 -5.65625 853 l 257
4.8984375 882 m 257
 -20.5791015625 812 l 257
 326.420898438 812 l 257
 351.8984375 882 l 257
 4.8984375 882 l 257
526.123046875 1553 m 257
 256.420898438 812 l 257
 326.420898438 812 l 257
 596.123046875 1553 l 257
 526.123046875 1553 l 257
1159.12304688 1553 m 257
 408.123046875 1553 l 257
 387.375976562 1496 l 257
 1138.37597656 1496 l 257
 1159.12304688 1553 l 257
997.204101562 1523 m 257
 442.876953125 0 l 257
 512.876953125 0 l 257
 1067.20410156 1523 l 257
 997.204101562 1523 l 257
EndSplineSet
Ligature2: "rkrfRakarVariantsinDevanagari2lookup0 subtable" uni0917 uni0930_uni094D.blwf
EndChar

StartChar: uni0917_uni094D.half
Encoding: 65547 -1 442
GlifName: uni0917_uni094D_.half
Width: 1024
VWidth: 0
Flags: W
LayerCount: 2
Fore
SplineSet
-62.927734375 853 m 257
 7.072265625 853 l 257
 76.58984375 1044 l 257
 6.58984375 1044 l 257
 -62.927734375 853 l 257
-52.373046875 882 m 257
 -77.8515625 812 l 257
 269.1484375 812 l 257
 294.626953125 882 l 257
 -52.373046875 882 l 257
468.8515625 1553 m 257
 199.1484375 812 l 257
 269.1484375 812 l 257
 538.8515625 1553 l 257
 468.8515625 1553 l 257
1101.8515625 1553 m 257
 350.8515625 1553 l 257
 330.103515625 1496 l 257
 1081.10351562 1496 l 257
 1101.8515625 1553 l 257
EndSplineSet
Ligature2: "halfHalfFormsinDevanagari2lookup0 subtable" uni0917 uni094D
EndChar

StartChar: uni0917_uni094D.haln
Encoding: 65548 -1 443
GlifName: uni0917_uni094D_.haln
Width: 1024
VWidth: 0
Flags: W
LayerCount: 2
Fore
SplineSet
-493.323242188 853 m 257
 -423.323242188 853 l 257
 -353.805664062 1044 l 257
 -423.805664062 1044 l 257
 -493.323242188 853 l 257
-482.767578125 882 m 257
 -508.247070312 812 l 257
 -161.247070312 812 l 257
 -135.767578125 882 l 257
 -482.767578125 882 l 257
38.4560546875 1553 m 257
 -231.247070312 812 l 257
 -161.247070312 812 l 257
 108.456054688 1553 l 257
 38.4560546875 1553 l 257
671.456054688 1553 m 257
 -79.5439453125 1553 l 257
 -100.291015625 1496 l 257
 650.708984375 1496 l 257
 671.456054688 1553 l 257
509.536132812 1523 m 257
 -44.7890625 0 l 257
 25.2109375 0 l 257
 579.536132812 1523 l 257
 509.536132812 1523 l 257
298.505859375 -16 m 257
 276.303710938 -77 l 257
 620.303710938 -77 l 257
 642.505859375 -16 l 257
 298.505859375 -16 l 257
593.487304688 -71 m 257
 777.190429688 -418 l 257
 826.116210938 -366 l 257
 642.870117188 -15 l 257
 593.487304688 -71 l 257
EndSplineSet
Ligature2: "halnHalantFormsinDevanagari2lookup0 subtable" uni0917 uni094D
EndChar

StartChar: uni0918
Encoding: 2328 2328 444
GlifName: uni0918
Width: 1024
VWidth: 0
Flags: W
LayerCount: 2
Fore
SplineSet
147.668945312 1553 m 257
 126.55859375 1495 l 257
 1148.55859375 1495 l 257
 1169.66894531 1553 l 257
 147.668945312 1553 l 257
978.385742188 1522 m 257
 429.154296875 13 l 257
 489.154296875 13 l 257
 1038.38574219 1522 l 257
 978.385742188 1522 l 257
307.837890625 1515 m 257
 69.0732421875 859 l 257
 127.073242188 859 l 257
 365.837890625 1515 l 257
 307.837890625 1515 l 257
115.985351562 867 m 257
 94.146484375 807 l 257
 338.146484375 807 l 257
 359.985351562 867 l 257
 115.985351562 867 l 257
-118.1953125 328 m 257
 -139.668945312 269 l 257
 558.331054688 269 l 257
 579.8046875 328 l 257
 -118.1953125 328 l 257
-145.668945312 269 m 257
 -85.6689453125 269 l 257
 112.694335938 814 l 257
 52.6943359375 814 l 257
 -145.668945312 269 l 257
EndSplineSet
EndChar

StartChar: uni0918_uni0930_uni094D.vatu
Encoding: 65549 -1 445
GlifName: uni0918_uni0930_uni094D_.vatu
Width: 1024
VWidth: 0
Flags: W
LayerCount: 2
Fore
SplineSet
-151.123046875 0 m 257
 -31.123046875 0 l 257
 524.130859375 215 l 257
 549.608398438 285 l 257
 -151.123046875 0 l 257
153.123046875 1553 m 257
 132.012695312 1495 l 257
 1154.01269531 1495 l 257
 1175.12304688 1553 l 257
 153.123046875 1553 l 257
983.83984375 1522 m 257
 434.608398438 13 l 257
 494.608398438 13 l 257
 1043.83984375 1522 l 257
 983.83984375 1522 l 257
313.291992188 1515 m 257
 74.52734375 859 l 257
 132.52734375 859 l 257
 371.291992188 1515 l 257
 313.291992188 1515 l 257
121.439453125 867 m 257
 99.6005859375 807 l 257
 343.600585938 807 l 257
 365.439453125 867 l 257
 121.439453125 867 l 257
-112.741210938 328 m 257
 -134.21484375 269 l 257
 563.78515625 269 l 257
 585.258789062 328 l 257
 -112.741210938 328 l 257
-140.21484375 269 m 257
 -80.21484375 269 l 257
 118.1484375 814 l 257
 58.1484375 814 l 257
 -140.21484375 269 l 257
EndSplineSet
Ligature2: "rkrfRakarVariantsinDevanagari2lookup0 subtable" uni0918 uni0930_uni094D.blwf
EndChar

StartChar: uni0918_uni094D.half
Encoding: 65550 -1 446
GlifName: uni0918_uni094D_.half
Width: 1024
VWidth: 0
Flags: W
LayerCount: 2
Fore
SplineSet
147.668945312 1553 m 257
 126.55859375 1495 l 257
 1148.55859375 1495 l 257
 1169.66894531 1553 l 257
 147.668945312 1553 l 257
307.837890625 1515 m 257
 69.0732421875 859 l 257
 127.073242188 859 l 257
 365.837890625 1515 l 257
 307.837890625 1515 l 257
115.985351562 867 m 257
 94.146484375 807 l 257
 338.146484375 807 l 257
 359.985351562 867 l 257
 115.985351562 867 l 257
-118.1953125 328 m 257
 -139.668945312 269 l 257
 758.331054688 269 l 257
 779.8046875 328 l 257
 -118.1953125 328 l 257
-145.668945312 269 m 257
 -85.6689453125 269 l 257
 112.694335938 814 l 257
 52.6943359375 814 l 257
 -145.668945312 269 l 257
EndSplineSet
Ligature2: "halfHalfFormsinDevanagari2lookup0 subtable" uni0918 uni094D
EndChar

StartChar: uni0918_uni094D.haln
Encoding: 65551 -1 447
GlifName: uni0918_uni094D_.haln
Width: 1024
VWidth: 0
Flags: W
LayerCount: 2
Fore
SplineSet
-183.909179688 1553 m 257
 -205.018554688 1495 l 257
 816.981445312 1495 l 257
 838.090820312 1553 l 257
 -183.909179688 1553 l 257
646.80859375 1522 m 257
 97.5771484375 13 l 257
 157.577148438 13 l 257
 706.80859375 1522 l 257
 646.80859375 1522 l 257
-23.7392578125 1515 m 257
 -262.50390625 859 l 257
 -204.50390625 859 l 257
 34.2607421875 1515 l 257
 -23.7392578125 1515 l 257
-215.591796875 867 m 257
 -237.430664062 807 l 257
 6.5693359375 807 l 257
 28.408203125 867 l 257
 -215.591796875 867 l 257
-449.772460938 328 m 257
 -471.24609375 269 l 257
 226.75390625 269 l 257
 248.227539062 328 l 257
 -449.772460938 328 l 257
-477.24609375 269 m 257
 -417.24609375 269 l 257
 -218.8828125 814 l 257
 -278.8828125 814 l 257
 -477.24609375 269 l 257
410.141601562 -16 m 257
 387.939453125 -77 l 257
 731.939453125 -77 l 257
 754.141601562 -16 l 257
 410.141601562 -16 l 257
705.123046875 -71 m 257
 888.825195312 -418 l 257
 937.751953125 -366 l 257
 754.505859375 -15 l 257
 705.123046875 -71 l 257
EndSplineSet
Ligature2: "halnHalantFormsinDevanagari2lookup0 subtable" uni0918 uni094D
EndChar

StartChar: uni0919
Encoding: 2329 2329 448
GlifName: uni0919
Width: 1024
VWidth: 0
Flags: W
LayerCount: 2
Fore
SplineSet
224.623046875 1553 m 257
 203.1484375 1494 l 257
 1228.1484375 1494 l 257
 1249.62304688 1553 l 257
 224.623046875 1553 l 257
872.983398438 1543 m 257
 683.71875 1023 l 257
 743.71875 1023 l 257
 932.983398438 1543 l 257
 872.983398438 1543 l 257
757.6484375 1086 m 257
 294.6484375 1086 l 257
 271.71875 1023 l 257
 734.71875 1023 l 257
 757.6484375 1086 l 257
281.556640625 1083 m 257
 116.314453125 629 l 257
 188.314453125 629 l 257
 353.556640625 1083 l 257
 281.556640625 1083 l 257
140.876953125 680 m 257
 119.038085938 620 l 257
 674.038085938 620 l 257
 695.876953125 680 l 257
 140.876953125 680 l 257
632.876953125 680 m 257
 395.931640625 29 l 257
 458.931640625 29 l 257
 695.876953125 680 l 257
 632.876953125 680 l 257
-203.420898438 61 m 257
 -225.623046875 0 l 257
 449.376953125 0 l 257
 471.579101562 61 l 257
 -203.420898438 61 l 257
-152.100585938 202 m 257
 -222.7109375 8 l 257
 -162.7109375 8 l 257
 -92.1005859375 202 l 257
 -152.100585938 202 l 257
772.233398438 931 m 257
 737.291992188 835 l 257
 833.291992188 835 l 257
 868.233398438 931 l 257
 772.233398438 931 l 257
EndSplineSet
EndChar

StartChar: uni0919_uni0930_uni094D.vatu
Encoding: 65552 -1 449
GlifName: uni0919_uni0930_uni094D_.vatu
Width: 1024
VWidth: 0
Flags: W
LayerCount: 2
Fore
SplineSet
121.240234375 220 m 257
 180.85546875 -119 l 257
 248.85546875 -119 l 257
 189.626953125 287 l 257
 121.240234375 220 l 257
189.626953125 287 m 257
 -213.4140625 -106 l 257
 -145.4140625 -106 l 257
 198.15234375 228 l 257
 189.626953125 287 l 257
212.4140625 1553 m 257
 190.939453125 1494 l 257
 1215.93945312 1494 l 257
 1237.4140625 1553 l 257
 212.4140625 1553 l 257
860.7734375 1543 m 257
 781.79296875 1326 l 257
 841.79296875 1326 l 257
 920.7734375 1543 l 257
 860.7734375 1543 l 257
854.630859375 1386 m 257
 391.630859375 1386 l 257
 369.79296875 1326 l 257
 832.79296875 1326 l 257
 854.630859375 1386 l 257
378.5390625 1383 m 257
 213.294921875 929 l 257
 285.294921875 929 l 257
 450.5390625 1383 l 257
 378.5390625 1383 l 257
237.857421875 980 m 257
 216.01953125 920 l 257
 771.01953125 920 l 257
 792.857421875 980 l 257
 237.857421875 980 l 257
729.857421875 980 m 257
 492.9140625 329 l 257
 555.9140625 329 l 257
 792.857421875 980 l 257
 729.857421875 980 l 257
-106.439453125 361 m 257
 -128.640625 300 l 257
 546.359375 300 l 257
 568.560546875 361 l 257
 -106.439453125 361 l 257
-55.119140625 502 m 257
 -125.73046875 308 l 257
 -65.73046875 308 l 257
 4.880859375 502 l 257
 -55.119140625 502 l 257
869.21484375 1231 m 257
 834.2734375 1135 l 257
 930.2734375 1135 l 257
 965.21484375 1231 l 257
 869.21484375 1231 l 257
EndSplineSet
Ligature2: "rkrfRakarVariantsinDevanagari2lookup0 subtable" uni0919 uni0930_uni094D.blwf
EndChar

StartChar: uni0919_uni094D.half
Encoding: 65553 -1 450
GlifName: uni0919_uni094D_.half
Width: 1024
VWidth: 0
Flags: W
LayerCount: 2
Fore
SplineSet
186.3125 1550 m 257
 164.837890625 1491 l 257
 1186.83789062 1491 l 257
 1208.3125 1550 l 257
 186.3125 1550 l 257
832.764648438 1543 m 257
 643.5 1023 l 257
 703.5 1023 l 257
 892.764648438 1543 l 257
 832.764648438 1543 l 257
716.337890625 1083 m 257
 242.337890625 1083 l 257
 220.5 1023 l 257
 694.5 1023 l 257
 716.337890625 1083 l 257
241.337890625 1083 m 257
 76.095703125 629 l 257
 143.095703125 629 l 257
 308.337890625 1083 l 257
 241.337890625 1083 l 257
98.2978515625 690 m 257
 72.8193359375 620 l 257
 633.819335938 620 l 257
 659.297851562 690 l 257
 98.2978515625 690 l 257
593.658203125 680 m 257
 438.606445312 254 l 257
 500.606445312 254 l 257
 655.658203125 680 l 257
 593.658203125 680 l 257
-162.474609375 284 m 257
 -184.3125 224 l 257
 490.6875 224 l 257
 512.525390625 284 l 257
 -162.474609375 284 l 257
-62.3828125 559 m 257
 -181.037109375 233 l 257
 -120.037109375 233 l 257
 -1.3828125 559 l 257
 -62.3828125 559 l 257
787.481445312 968 m 257
 759.091796875 890 l 257
 834.091796875 890 l 257
 862.481445312 968 l 257
 787.481445312 968 l 257
13.5703125 144 m 257
 -132.631835938 83 l 257
 224.368164062 83 l 257
 370.5703125 144 l 257
 13.5703125 144 l 257
224.368164062 83 m 257
 487.393554688 -112 l 257
 532.037109375 -91 l 257
 370.5703125 144 l 257
 224.368164062 83 l 257
EndSplineSet
Ligature2: "halfHalfFormsinDevanagari2lookup0 subtable" uni0919 uni094D
EndChar

StartChar: uni0919_uni094D.haln
Encoding: 65554 -1 451
GlifName: uni0919_uni094D_.haln
Width: 1024
VWidth: 0
Flags: W
LayerCount: 2
Fore
SplineSet
-58.0009765625 1553 m 257
 -79.474609375 1494 l 257
 945.525390625 1494 l 257
 966.999023438 1553 l 257
 -58.0009765625 1553 l 257
590.359375 1543 m 257
 401.095703125 1023 l 257
 461.095703125 1023 l 257
 650.359375 1543 l 257
 590.359375 1543 l 257
475.025390625 1086 m 257
 12.025390625 1086 l 257
 -10.904296875 1023 l 257
 452.095703125 1023 l 257
 475.025390625 1086 l 257
-1.06640625 1083 m 257
 -166.30859375 629 l 257
 -94.30859375 629 l 257
 70.93359375 1083 l 257
 -1.06640625 1083 l 257
-141.74609375 680 m 257
 -163.584960938 620 l 257
 391.415039062 620 l 257
 413.25390625 680 l 257
 -141.74609375 680 l 257
350.25390625 680 m 257
 113.309570312 29 l 257
 176.309570312 29 l 257
 413.25390625 680 l 257
 350.25390625 680 l 257
-486.043945312 61 m 257
 -508.24609375 0 l 257
 166.75390625 0 l 257
 188.956054688 61 l 257
 -486.043945312 61 l 257
-434.723632812 202 m 257
 -505.333984375 8 l 257
 -445.333984375 8 l 257
 -374.723632812 202 l 257
 -434.723632812 202 l 257
489.610351562 931 m 257
 454.668945312 835 l 257
 550.668945312 835 l 257
 585.610351562 931 l 257
 489.610351562 931 l 257
536.049804688 -16 m 257
 513.84765625 -77 l 257
 857.84765625 -77 l 257
 880.049804688 -16 l 257
 536.049804688 -16 l 257
831.03125 -71 m 257
 1014.73339844 -418 l 257
 1063.66015625 -366 l 257
 880.4140625 -15 l 257
 831.03125 -71 l 257
EndSplineSet
Ligature2: "halnHalantFormsinDevanagari2lookup0 subtable" uni0919 uni094D
EndChar

StartChar: uni091A
Encoding: 2330 2330 452
GlifName: uni091A_
Width: 1024
VWidth: 0
Flags: W
LayerCount: 2
Fore
SplineSet
102.672851562 1553 m 257
 82.2900390625 1497 l 257
 1105.29003906 1497 l 257
 1125.67285156 1553 l 257
 102.672851562 1553 l 257
880.672851562 1553 m 257
 315.426757812 0 l 257
 374.426757812 0 l 257
 939.672851562 1553 l 257
 880.672851562 1553 l 257
494.658203125 421 m 257
 516.1328125 480 l 257
 9.1328125 480 l 257
 -12.341796875 421 l 257
 494.658203125 421 l 257
139.0703125 837 m 257
 -12.341796875 421 l 257
 46.658203125 421 l 257
 198.0703125 837 l 257
 139.0703125 837 l 257
-79.470703125 852 m 257
 -101.672851562 791 l 257
 323.327148438 791 l 257
 345.529296875 852 l 257
 -79.470703125 852 l 257
EndSplineSet
EndChar

StartChar: uni091A_uni0930_uni094D.vatu
Encoding: 65555 -1 453
GlifName: uni091A__uni0930_uni094D_.vatu
Width: 1024
VWidth: 0
Flags: W
LayerCount: 2
Fore
SplineSet
-178.123046875 0 m 257
 -58.123046875 0 l 257
 497.130859375 215 l 257
 522.608398438 285 l 257
 -178.123046875 0 l 257
179.123046875 1553 m 257
 158.740234375 1497 l 257
 1181.74023438 1497 l 257
 1202.12304688 1553 l 257
 179.123046875 1553 l 257
957.123046875 1553 m 257
 391.876953125 0 l 257
 450.876953125 0 l 257
 1016.12304688 1553 l 257
 957.123046875 1553 l 257
571.108398438 421 m 257
 592.583007812 480 l 257
 85.5830078125 480 l 257
 64.1083984375 421 l 257
 571.108398438 421 l 257
215.520507812 837 m 257
 64.1083984375 421 l 257
 123.108398438 421 l 257
 274.520507812 837 l 257
 215.520507812 837 l 257
-3.0205078125 852 m 257
 -25.22265625 791 l 257
 399.77734375 791 l 257
 421.979492188 852 l 257
 -3.0205078125 852 l 257
EndSplineSet
Ligature2: "rkrfRakarVariantsinDevanagari2lookup0 subtable" uni091A uni0930_uni094D.blwf
EndChar

StartChar: uni091A_uni094D.half
Encoding: 65556 -1 454
GlifName: uni091A__uni094D_.half
Width: 1024
VWidth: 0
Flags: W
LayerCount: 2
Fore
SplineSet
102.672851562 1553 m 257
 82.2900390625 1497 l 257
 1105.29003906 1497 l 257
 1125.67285156 1553 l 257
 102.672851562 1553 l 257
794.658203125 421 m 257
 816.1328125 480 l 257
 9.1328125 480 l 257
 -12.341796875 421 l 257
 794.658203125 421 l 257
139.0703125 837 m 257
 -12.341796875 421 l 257
 46.658203125 421 l 257
 198.0703125 837 l 257
 139.0703125 837 l 257
-79.470703125 852 m 257
 -101.672851562 791 l 257
 323.327148438 791 l 257
 345.529296875 852 l 257
 -79.470703125 852 l 257
EndSplineSet
Ligature2: "halfHalfFormsinDevanagari2lookup0 subtable" uni091A uni094D
EndChar

StartChar: uni091A_uni094D.haln
Encoding: 65557 -1 455
GlifName: uni091A__uni094D_.haln
Width: 1024
VWidth: 0
Flags: W
LayerCount: 2
Fore
SplineSet
-301.231445312 1553 m 257
 -321.614257812 1497 l 257
 701.385742188 1497 l 257
 721.768554688 1553 l 257
 -301.231445312 1553 l 257
476.768554688 1553 m 257
 -88.4775390625 0 l 257
 -29.4775390625 0 l 257
 535.768554688 1553 l 257
 476.768554688 1553 l 257
90.75390625 421 m 257
 112.228515625 480 l 257
 -394.771484375 480 l 257
 -416.24609375 421 l 257
 90.75390625 421 l 257
-264.833984375 837 m 257
 -416.24609375 421 l 257
 -357.24609375 421 l 257
 -205.833984375 837 l 257
 -264.833984375 837 l 257
-483.375 852 m 257
 -505.577148438 791 l 257
 -80.5771484375 791 l 257
 -58.375 852 l 257
 -483.375 852 l 257
292.817382812 -16 m 257
 270.615234375 -77 l 257
 614.615234375 -77 l 257
 636.817382812 -16 l 257
 292.817382812 -16 l 257
587.798828125 -71 m 257
 771.501953125 -418 l 257
 820.427734375 -366 l 257
 637.181640625 -15 l 257
 587.798828125 -71 l 257
EndSplineSet
Ligature2: "halnHalantFormsinDevanagari2lookup0 subtable" uni091A uni094D
EndChar

StartChar: uni091B
Encoding: 2331 2331 456
GlifName: uni091B_
Width: 1024
VWidth: 0
Flags: W
LayerCount: 2
Fore
SplineSet
212.123046875 1553 m 257
 191.012695312 1495 l 257
 1214.01269531 1495 l 257
 1235.12304688 1553 l 257
 212.123046875 1553 l 257
594.435546875 1128 m 257
 209.435546875 1128 l 257
 187.9609375 1069 l 257
 572.9609375 1069 l 257
 594.435546875 1128 l 257
200.435546875 1128 m 257
 -14.306640625 538 l 257
 45.693359375 538 l 257
 260.435546875 1128 l 257
 200.435546875 1128 l 257
19.96875 547 m 257
 -1.869140625 487 l 257
 361.130859375 487 l 257
 382.96875 547 l 257
 19.96875 547 l 257
-28.7744140625 501 m 257
 -211.123046875 0 l 257
 -151.123046875 0 l 257
 31.2255859375 501 l 257
 -28.7744140625 501 l 257
-133.6484375 59 m 257
 -155.123046875 0 l 257
 479.876953125 0 l 257
 501.3515625 59 l 257
 -133.6484375 59 l 257
423.060546875 6 m 257
 482.060546875 6 l 257
 1031.29199219 1515 l 257
 972.291992188 1515 l 257
 423.060546875 6 l 257
629.166992188 869 m 257
 606.96484375 808 l 257
 944.96484375 808 l 257
 967.166992188 869 l 257
 629.166992188 869 l 257
907.802734375 868 m 257
 763.306640625 471 l 257
 822.306640625 471 l 257
 966.802734375 868 l 257
 907.802734375 868 l 257
EndSplineSet
EndChar

StartChar: uni091B_uni0930_uni094D.vatu
Encoding: 65558 -1 457
GlifName: uni091B__uni0930_uni094D_.vatu
Width: 1024
VWidth: 0
Flags: W
LayerCount: 2
Fore
SplineSet
-178.123046875 0 m 257
 -58.123046875 0 l 257
 497.130859375 215 l 257
 522.608398438 285 l 257
 -178.123046875 0 l 257
179.123046875 1553 m 257
 158.012695312 1495 l 257
 1181.01269531 1495 l 257
 1202.12304688 1553 l 257
 179.123046875 1553 l 257
670.625976562 1428 m 257
 285.625976562 1428 l 257
 264.15234375 1369 l 257
 649.15234375 1369 l 257
 670.625976562 1428 l 257
276.625976562 1428 m 257
 61.8837890625 838 l 257
 121.883789062 838 l 257
 336.625976562 1428 l 257
 276.625976562 1428 l 257
96.16015625 847 m 257
 74.3212890625 787 l 257
 437.321289062 787 l 257
 459.16015625 847 l 257
 96.16015625 847 l 257
47.4169921875 801 m 257
 -134.931640625 300 l 257
 -74.931640625 300 l 257
 107.416992188 801 l 257
 47.4169921875 801 l 257
-57.4580078125 359 m 257
 -78.931640625 300 l 257
 556.068359375 300 l 257
 577.541992188 359 l 257
 -57.4580078125 359 l 257
387.876953125 0 m 257
 446.876953125 0 l 257
 992.104492188 1498 l 257
 933.104492188 1498 l 257
 387.876953125 0 l 257
705.358398438 1169 m 257
 683.15625 1108 l 257
 1021.15625 1108 l 257
 1043.35839844 1169 l 257
 705.358398438 1169 l 257
983.994140625 1168 m 257
 839.498046875 771 l 257
 898.498046875 771 l 257
 1042.99414062 1168 l 257
 983.994140625 1168 l 257
EndSplineSet
Ligature2: "rkrfRakarVariantsinDevanagari2lookup0 subtable" uni091B uni0930_uni094D.blwf
EndChar

StartChar: uni091B_uni094D.half
Encoding: 65559 -1 458
GlifName: uni091B__uni094D_.half
Width: 1024
VWidth: 0
Flags: W
LayerCount: 2
Fore
SplineSet
212.123046875 1553 m 257
 191.012695312 1495 l 257
 1214.01269531 1495 l 257
 1235.12304688 1553 l 257
 212.123046875 1553 l 257
594.435546875 1128 m 257
 209.435546875 1128 l 257
 187.9609375 1069 l 257
 572.9609375 1069 l 257
 594.435546875 1128 l 257
200.435546875 1128 m 257
 -14.306640625 538 l 257
 45.693359375 538 l 257
 260.435546875 1128 l 257
 200.435546875 1128 l 257
19.96875 547 m 257
 -1.869140625 487 l 257
 361.130859375 487 l 257
 382.96875 547 l 257
 19.96875 547 l 257
-28.7744140625 501 m 257
 -211.123046875 0 l 257
 -151.123046875 0 l 257
 31.2255859375 501 l 257
 -28.7744140625 501 l 257
-133.6484375 59 m 257
 -155.123046875 0 l 257
 779.876953125 0 l 257
 801.3515625 59 l 257
 -133.6484375 59 l 257
EndSplineSet
Ligature2: "halfHalfFormsinDevanagari2lookup0 subtable" uni091B uni094D
EndChar

StartChar: uni091B_uni094D.haln
Encoding: 65560 -1 459
GlifName: uni091B__uni094D_.haln
Width: 1024
VWidth: 0
Flags: W
LayerCount: 2
Fore
SplineSet
-70.5009765625 1553 m 257
 -91.611328125 1495 l 257
 931.388671875 1495 l 257
 952.499023438 1553 l 257
 -70.5009765625 1553 l 257
311.8125 1128 m 257
 -73.1875 1128 l 257
 -94.662109375 1069 l 257
 290.337890625 1069 l 257
 311.8125 1128 l 257
-82.1875 1128 m 257
 -296.930664062 538 l 257
 -236.930664062 538 l 257
 -22.1875 1128 l 257
 -82.1875 1128 l 257
-262.654296875 547 m 257
 -284.4921875 487 l 257
 78.5078125 487 l 257
 100.345703125 547 l 257
 -262.654296875 547 l 257
-311.397460938 501 m 257
 -493.74609375 0 l 257
 -433.74609375 0 l 257
 -251.397460938 501 l 257
 -311.397460938 501 l 257
-416.271484375 59 m 257
 -437.74609375 0 l 257
 197.25390625 0 l 257
 218.728515625 59 l 257
 -416.271484375 59 l 257
140.4375 6 m 257
 199.4375 6 l 257
 748.668945312 1515 l 257
 689.668945312 1515 l 257
 140.4375 6 l 257
346.543945312 869 m 257
 324.341796875 808 l 257
 662.341796875 808 l 257
 684.543945312 869 l 257
 346.543945312 869 l 257
625.1796875 868 m 257
 480.68359375 471 l 257
 539.68359375 471 l 257
 684.1796875 868 l 257
 625.1796875 868 l 257
378.549804688 -7 m 257
 356.34765625 -68 l 257
 700.34765625 -68 l 257
 722.549804688 -7 l 257
 378.549804688 -7 l 257
673.532226562 -62 m 257
 857.234375 -409 l 257
 906.161132812 -357 l 257
 722.913085938 -6 l 257
 673.532226562 -62 l 257
EndSplineSet
Ligature2: "halnHalantFormsinDevanagari2lookup0 subtable" uni091B uni094D
EndChar

StartChar: uni091C
Encoding: 2332 2332 460
GlifName: uni091C_
Width: 1024
VWidth: 0
Flags: W
LayerCount: 2
Fore
SplineSet
135.12890625 1550 m 257
 114.018554688 1492 l 257
 1172.01855469 1492 l 257
 1193.12890625 1550 l 257
 135.12890625 1550 l 257
985.12890625 1550 m 257
 416.607421875 -12 l 257
 477.607421875 -12 l 257
 1046.12890625 1550 l 257
 985.12890625 1550 l 257
418.989257812 860 m 257
 397.514648438 801 l 257
 733.514648438 801 l 257
 754.989257812 860 l 257
 418.989257812 860 l 257
408.989257812 860 m 257
 282.327148438 512 l 257
 342.327148438 512 l 257
 468.989257812 860 l 257
 408.989257812 860 l 257
-147.654296875 567 m 257
 -169.12890625 508 l 257
 340.87109375 508 l 257
 362.345703125 567 l 257
 -147.654296875 567 l 257
-89.4189453125 727 m 257
 -168.764648438 509 l 257
 -108.764648438 509 l 257
 -29.4189453125 727 l 257
 -89.4189453125 727 l 257
EndSplineSet
EndChar

StartChar: uni091C_uni0930_uni094D.vatu
Encoding: 65561 -1 461
GlifName: uni091C__uni0930_uni094D_.vatu
Width: 1024
VWidth: 0
Flags: W
LayerCount: 2
Fore
SplineSet
-186.577148438 0 m 257
 -66.5771484375 0 l 257
 535.676757812 215 l 257
 561.154296875 285 l 257
 -186.577148438 0 l 257
152.577148438 1550 m 257
 131.466796875 1492 l 257
 1189.46679688 1492 l 257
 1210.57714844 1550 l 257
 152.577148438 1550 l 257
1002.57714844 1550 m 257
 434.055664062 -12 l 257
 495.055664062 -12 l 257
 1063.57714844 1550 l 257
 1002.57714844 1550 l 257
436.4375 860 m 257
 414.962890625 801 l 257
 750.962890625 801 l 257
 772.4375 860 l 257
 436.4375 860 l 257
426.4375 860 m 257
 299.775390625 512 l 257
 359.775390625 512 l 257
 486.4375 860 l 257
 426.4375 860 l 257
-130.206054688 567 m 257
 -151.680664062 508 l 257
 358.319335938 508 l 257
 379.793945312 567 l 257
 -130.206054688 567 l 257
-71.970703125 727 m 257
 -151.31640625 509 l 257
 -91.31640625 509 l 257
 -11.970703125 727 l 257
 -71.970703125 727 l 257
EndSplineSet
Ligature2: "rkrfRakarVariantsinDevanagari2lookup0 subtable" uni091C uni0930_uni094D.blwf
EndChar

StartChar: uni091C_uni094D.half
Encoding: 65562 -1 462
GlifName: uni091C__uni094D_.half
Width: 1024
VWidth: 0
Flags: W
LayerCount: 2
Fore
SplineSet
135.12890625 1550 m 257
 114.018554688 1492 l 257
 1172.01855469 1492 l 257
 1193.12890625 1550 l 257
 135.12890625 1550 l 257
418.989257812 860 m 257
 397.514648438 801 l 257
 1033.51464844 801 l 257
 1054.98925781 860 l 257
 418.989257812 860 l 257
408.989257812 860 m 257
 282.327148438 512 l 257
 342.327148438 512 l 257
 468.989257812 860 l 257
 408.989257812 860 l 257
-147.654296875 567 m 257
 -169.12890625 508 l 257
 340.87109375 508 l 257
 362.345703125 567 l 257
 -147.654296875 567 l 257
-89.4189453125 727 m 257
 -168.764648438 509 l 257
 -108.764648438 509 l 257
 -29.4189453125 727 l 257
 -89.4189453125 727 l 257
EndSplineSet
Ligature2: "halfHalfFormsinDevanagari2lookup0 subtable" uni091C uni094D
EndChar

StartChar: uni091C_uni094D.haln
Encoding: 65563 -1 463
GlifName: uni091C__uni094D_.haln
Width: 1024
VWidth: 0
Flags: W
LayerCount: 2
Fore
SplineSet
-239.396484375 1550 m 257
 -260.506835938 1492 l 257
 797.493164062 1492 l 257
 818.603515625 1550 l 257
 -239.396484375 1550 l 257
610.603515625 1550 m 257
 42.08203125 -12 l 257
 103.08203125 -12 l 257
 671.603515625 1550 l 257
 610.603515625 1550 l 257
44.4638671875 860 m 257
 22.9892578125 801 l 257
 358.989257812 801 l 257
 380.463867188 860 l 257
 44.4638671875 860 l 257
34.4638671875 860 m 257
 -92.197265625 512 l 257
 -32.197265625 512 l 257
 94.4638671875 860 l 257
 34.4638671875 860 l 257
-522.1796875 567 m 257
 -543.653320312 508 l 257
 -33.6533203125 508 l 257
 -12.1796875 567 l 257
 -522.1796875 567 l 257
-463.944335938 727 m 257
 -543.290039062 509 l 257
 -483.290039062 509 l 257
 -403.944335938 727 l 257
 -463.944335938 727 l 257
372.744140625 -16 m 257
 350.541992188 -77 l 257
 694.541992188 -77 l 257
 716.744140625 -16 l 257
 372.744140625 -16 l 257
667.7265625 -71 m 257
 851.428710938 -418 l 257
 900.35546875 -366 l 257
 717.108398438 -15 l 257
 667.7265625 -71 l 257
EndSplineSet
Ligature2: "halnHalantFormsinDevanagari2lookup0 subtable" uni091C uni094D
EndChar

StartChar: uni091C_uni094D_uni091E.akhn
Encoding: 65564 -1 464
GlifName: uni091C__uni094D__uni091E_.akhn
Width: 1024
VWidth: 0
Flags: W
LayerCount: 2
Fore
SplineSet
181.7890625 1550 m 257
 159.22265625 1488 l 257
 1196.22265625 1488 l 257
 1218.7890625 1550 l 257
 181.7890625 1550 l 257
1011.7890625 1550 m 257
 443.267578125 -12 l 257
 503.267578125 -12 l 257
 1071.7890625 1550 l 257
 1011.7890625 1550 l 257
340.6484375 860 m 257
 318.810546875 800 l 257
 758.810546875 800 l 257
 780.6484375 860 l 257
 340.6484375 860 l 257
294.6484375 860 m 257
 131.953125 413 l 257
 190.953125 413 l 257
 353.6484375 860 l 257
 294.6484375 860 l 257
-172.5859375 428 m 257
 -194.7890625 367 l 257
 174.2109375 367 l 257
 196.4140625 428 l 257
 -172.5859375 428 l 257
-194.423828125 368 m 257
 -153.068359375 75 l 257
 -64.068359375 75 l 257
 -120.423828125 368 l 257
 -194.423828125 368 l 257
EndSplineSet
Ligature2: "akhnAkhandinDevanagari2lookup0 subtable" uni091C uni094D uni091E
EndChar

StartChar: uni091C_uni094D_uni091E.half
Encoding: 65565 -1 465
GlifName: uni091C__uni094D__uni091E_.half
Width: 1024
VWidth: 0
Flags: W
LayerCount: 2
Fore
SplineSet
81.7890625 1550 m 257
 59.22265625 1488 l 257
 1096.22265625 1488 l 257
 1118.7890625 1550 l 257
 81.7890625 1550 l 257
440.6484375 860 m 257
 418.810546875 800 l 257
 858.810546875 800 l 257
 880.6484375 860 l 257
 440.6484375 860 l 257
394.6484375 860 m 257
 231.953125 413 l 257
 290.953125 413 l 257
 453.6484375 860 l 257
 394.6484375 860 l 257
-72.5859375 428 m 257
 -94.7890625 367 l 257
 274.2109375 367 l 257
 296.4140625 428 l 257
 -72.5859375 428 l 257
-94.423828125 368 m 257
 -53.068359375 75 l 257
 35.931640625 75 l 257
 -20.423828125 368 l 257
 -94.423828125 368 l 257
EndSplineSet
Ligature2: "halfHalfFormsinDevanagari2lookup0 subtable" uni091C_uni094D_uni091E.akhn uni094D
EndChar

StartChar: uni091C_uni094D_uni091E_uni094D
Encoding: 65566 -1 466
GlifName: uni091C__uni094D__uni091E__uni094D_
Width: 1024
VWidth: 0
Flags: W
LayerCount: 2
Fore
SplineSet
-134.797851562 1550 m 257
 -157.364257812 1488 l 257
 879.635742188 1488 l 257
 902.202148438 1550 l 257
 -134.797851562 1550 l 257
695.202148438 1550 m 257
 126.680664062 -12 l 257
 186.680664062 -12 l 257
 755.202148438 1550 l 257
 695.202148438 1550 l 257
24.0615234375 860 m 257
 2.224609375 800 l 257
 442.224609375 800 l 257
 464.061523438 860 l 257
 24.0615234375 860 l 257
-21.9384765625 860 m 257
 -184.6328125 413 l 257
 -125.6328125 413 l 257
 37.0615234375 860 l 257
 -21.9384765625 860 l 257
-489.171875 428 m 257
 -511.375 367 l 257
 -142.375 367 l 257
 -120.171875 428 l 257
 -489.171875 428 l 257
-511.010742188 368 m 257
 -469.654296875 75 l 257
 -380.654296875 75 l 257
 -437.010742188 368 l 257
 -511.010742188 368 l 257
842.709960938 -16 m 257
 820.5078125 -77 l 257
 1164.5078125 -77 l 257
 1186.70996094 -16 l 257
 842.709960938 -16 l 257
1137.69140625 -71 m 257
 1321.39355469 -418 l 257
 1370.3203125 -366 l 257
 1187.07324219 -15 l 257
 1137.69140625 -71 l 257
EndSplineSet
Ligature2: "halnHalantFormsinDevanagari2lookup0 subtable" uni091C_uni094D_uni091E.akhn uni094D
EndChar

StartChar: uni091D
Encoding: 2333 2333 467
GlifName: uni091D_
Width: 1024
VWidth: 0
Flags: W
LayerCount: 2
Fore
SplineSet
230.556640625 1553 m 257
 209.08203125 1494 l 257
 1249.08203125 1494 l 257
 1270.55664062 1553 l 257
 230.556640625 1553 l 257
1066.55664062 1553 m 257
 499.490234375 -5 l 257
 561.490234375 -5 l 257
 1128.55664062 1553 l 257
 1066.55664062 1553 l 257
828.732421875 1537 m 257
 641.65234375 1023 l 257
 701.65234375 1023 l 257
 888.732421875 1537 l 257
 828.732421875 1537 l 257
201.854492188 1084 m 257
 179.65234375 1023 l 257
 701.65234375 1023 l 257
 723.854492188 1084 l 257
 201.854492188 1084 l 257
202.217773438 1085 m 257
 44.2548828125 651 l 257
 104.254882812 651 l 257
 262.217773438 1085 l 257
 202.217773438 1085 l 257
61.361328125 698 m 257
 39.5234375 638 l 257
 789.5234375 638 l 257
 811.361328125 698 l 257
 61.361328125 698 l 257
492.814453125 691 m 257
 243.858398438 7 l 257
 303.858398438 7 l 257
 552.814453125 691 l 257
 492.814453125 691 l 257
-169.759765625 63 m 257
 -192.689453125 0 l 257
 301.310546875 0 l 257
 324.240234375 63 l 257
 -169.759765625 63 l 257
-169.759765625 63 m 257
 -246.556640625 -148 l 257
 -186.556640625 -148 l 257
 -109.759765625 63 l 257
 -169.759765625 63 l 257
EndSplineSet
EndChar

StartChar: uni091D_uni0930_uni094D.vatu
Encoding: 65567 -1 468
GlifName: uni091D__uni0930_uni094D_.vatu
Width: 1024
VWidth: 0
Flags: W
LayerCount: 2
Fore
SplineSet
85.310546875 0 m 257
 205.310546875 0 l 257
 626.564453125 215 l 257
 652.041992188 285 l 257
 85.310546875 0 l 257
230.556640625 1553 m 257
 209.08203125 1494 l 257
 1249.08203125 1494 l 257
 1270.55664062 1553 l 257
 230.556640625 1553 l 257
1066.55664062 1553 m 257
 499.490234375 -5 l 257
 561.490234375 -5 l 257
 1128.55664062 1553 l 257
 1066.55664062 1553 l 257
828.732421875 1537 m 257
 641.65234375 1023 l 257
 701.65234375 1023 l 257
 888.732421875 1537 l 257
 828.732421875 1537 l 257
201.854492188 1084 m 257
 179.65234375 1023 l 257
 701.65234375 1023 l 257
 723.854492188 1084 l 257
 201.854492188 1084 l 257
202.217773438 1085 m 257
 44.2548828125 651 l 257
 104.254882812 651 l 257
 262.217773438 1085 l 257
 202.217773438 1085 l 257
61.361328125 698 m 257
 39.5234375 638 l 257
 789.5234375 638 l 257
 811.361328125 698 l 257
 61.361328125 698 l 257
226.814453125 691 m 257
 -22.1416015625 7 l 257
 37.8583984375 7 l 257
 286.814453125 691 l 257
 226.814453125 691 l 257
-169.759765625 63 m 257
 -192.689453125 0 l 257
 35.310546875 0 l 257
 58.240234375 63 l 257
 -169.759765625 63 l 257
-169.759765625 63 m 257
 -246.556640625 -148 l 257
 -186.556640625 -148 l 257
 -109.759765625 63 l 257
 -169.759765625 63 l 257
EndSplineSet
Ligature2: "rkrfRakarVariantsinDevanagari2lookup0 subtable" uni091D uni0930_uni094D.blwf
EndChar

StartChar: uni091D_uni094D.half
Encoding: 65568 -1 469
GlifName: uni091D__uni094D_.half
Width: 1024
VWidth: 0
Flags: W
LayerCount: 2
Fore
SplineSet
230.556640625 1553 m 257
 209.08203125 1494 l 257
 1249.08203125 1494 l 257
 1270.55664062 1553 l 257
 230.556640625 1553 l 257
828.732421875 1537 m 257
 641.65234375 1023 l 257
 701.65234375 1023 l 257
 888.732421875 1537 l 257
 828.732421875 1537 l 257
201.854492188 1084 m 257
 179.65234375 1023 l 257
 701.65234375 1023 l 257
 723.854492188 1084 l 257
 201.854492188 1084 l 257
202.217773438 1085 m 257
 44.2548828125 651 l 257
 104.254882812 651 l 257
 262.217773438 1085 l 257
 202.217773438 1085 l 257
61.361328125 698 m 257
 39.5234375 638 l 257
 989.5234375 638 l 257
 1011.36132812 698 l 257
 61.361328125 698 l 257
492.814453125 691 m 257
 243.858398438 7 l 257
 303.858398438 7 l 257
 552.814453125 691 l 257
 492.814453125 691 l 257
-169.759765625 63 m 257
 -192.689453125 0 l 257
 301.310546875 0 l 257
 324.240234375 63 l 257
 -169.759765625 63 l 257
-169.759765625 63 m 257
 -246.556640625 -148 l 257
 -186.556640625 -148 l 257
 -109.759765625 63 l 257
 -169.759765625 63 l 257
EndSplineSet
Ligature2: "halfHalfFormsinDevanagari2lookup0 subtable" uni091D uni094D
EndChar

StartChar: uni091D_uni094D.haln
Encoding: 65569 -1 470
GlifName: uni091D__uni094D_.haln
Width: 1024
VWidth: 0
Flags: W
LayerCount: 2
Fore
SplineSet
-25.1328125 1553 m 257
 -46.607421875 1494 l 257
 993.392578125 1494 l 257
 1014.8671875 1553 l 257
 -25.1328125 1553 l 257
810.8671875 1553 m 257
 243.801757812 -5 l 257
 305.801757812 -5 l 257
 872.8671875 1553 l 257
 810.8671875 1553 l 257
573.04296875 1537 m 257
 385.962890625 1023 l 257
 445.962890625 1023 l 257
 633.04296875 1537 l 257
 573.04296875 1537 l 257
-53.8349609375 1084 m 257
 -76.037109375 1023 l 257
 445.962890625 1023 l 257
 468.165039062 1084 l 257
 -53.8349609375 1084 l 257
-53.470703125 1085 m 257
 -211.43359375 651 l 257
 -151.43359375 651 l 257
 6.529296875 1085 l 257
 -53.470703125 1085 l 257
-194.327148438 698 m 257
 -216.166015625 638 l 257
 533.833984375 638 l 257
 555.672851562 698 l 257
 -194.327148438 698 l 257
237.125 691 m 257
 -11.8310546875 7 l 257
 48.1689453125 7 l 257
 297.125 691 l 257
 237.125 691 l 257
-425.448242188 63 m 257
 -448.37890625 0 l 257
 45.62109375 0 l 257
 68.5517578125 63 l 257
 -425.448242188 63 l 257
-425.448242188 63 m 257
 -502.24609375 -148 l 257
 -442.24609375 -148 l 257
 -365.448242188 63 l 257
 -425.448242188 63 l 257
576.916992188 -16 m 257
 554.71484375 -77 l 257
 898.71484375 -77 l 257
 920.916992188 -16 l 257
 576.916992188 -16 l 257
871.8984375 -71 m 257
 1055.60058594 -418 l 257
 1104.52734375 -366 l 257
 921.280273438 -15 l 257
 871.8984375 -71 l 257
EndSplineSet
Ligature2: "halnHalantFormsinDevanagari2lookup0 subtable" uni091D uni094D
EndChar

StartChar: uni091E
Encoding: 2334 2334 471
GlifName: uni091E_
Width: 1024
VWidth: 0
Flags: W
LayerCount: 2
Fore
SplineSet
197.306640625 1553 m 257
 175.46875 1493 l 257
 1209.46875 1493 l 257
 1231.30664062 1553 l 257
 197.306640625 1553 l 257
1071.84765625 1538 m 257
 509.1484375 -8 l 257
 569.1484375 -8 l 257
 1131.84765625 1538 l 257
 1071.84765625 1538 l 257
463.6484375 672 m 257
 441.810546875 612 l 257
 755.810546875 612 l 257
 777.6484375 672 l 257
 463.6484375 672 l 257
70.47265625 960 m 257
 48.634765625 900 l 257
 545.634765625 900 l 257
 567.47265625 960 l 257
 70.47265625 960 l 257
537.47265625 960 m 257
 303.076171875 316 l 257
 363.076171875 316 l 257
 597.47265625 960 l 257
 537.47265625 960 l 257
-185.46875 320 m 257
 -207.306640625 260 l 257
 342.693359375 260 l 257
 364.53125 320 l 257
 -185.46875 320 l 257
EndSplineSet
EndChar

StartChar: uni091E_uni0930_uni094D.vatu
Encoding: 65570 -1 472
GlifName: uni091E__uni0930_uni094D_.vatu
Width: 1024
VWidth: 0
Flags: W
LayerCount: 2
Fore
SplineSet
-73.939453125 0 m 257
 46.060546875 0 l 257
 601.314453125 215 l 257
 626.79296875 285 l 257
 -73.939453125 0 l 257
197.306640625 1553 m 257
 175.46875 1493 l 257
 1209.46875 1493 l 257
 1231.30664062 1553 l 257
 197.306640625 1553 l 257
1071.84765625 1538 m 257
 509.1484375 -8 l 257
 569.1484375 -8 l 257
 1131.84765625 1538 l 257
 1071.84765625 1538 l 257
463.6484375 672 m 257
 441.810546875 612 l 257
 755.810546875 612 l 257
 777.6484375 672 l 257
 463.6484375 672 l 257
70.47265625 960 m 257
 48.634765625 900 l 257
 545.634765625 900 l 257
 567.47265625 960 l 257
 70.47265625 960 l 257
537.47265625 960 m 257
 303.076171875 316 l 257
 363.076171875 316 l 257
 597.47265625 960 l 257
 537.47265625 960 l 257
-185.46875 320 m 257
 -207.306640625 260 l 257
 342.693359375 260 l 257
 364.53125 320 l 257
 -185.46875 320 l 257
EndSplineSet
Ligature2: "rkrfRakarVariantsinDevanagari2lookup0 subtable" uni091E uni0930_uni094D.blwf
EndChar

StartChar: uni091E_uni094D.half
Encoding: 65571 -1 473
GlifName: uni091E__uni094D_.half
Width: 1024
VWidth: 0
Flags: W
LayerCount: 2
Fore
SplineSet
197.306640625 1553 m 257
 175.46875 1493 l 257
 1209.46875 1493 l 257
 1231.30664062 1553 l 257
 197.306640625 1553 l 257
463.6484375 672 m 257
 441.810546875 612 l 257
 955.810546875 612 l 257
 977.6484375 672 l 257
 463.6484375 672 l 257
70.47265625 960 m 257
 48.634765625 900 l 257
 545.634765625 900 l 257
 567.47265625 960 l 257
 70.47265625 960 l 257
537.47265625 960 m 257
 303.076171875 316 l 257
 363.076171875 316 l 257
 597.47265625 960 l 257
 537.47265625 960 l 257
-185.46875 320 m 257
 -207.306640625 260 l 257
 342.693359375 260 l 257
 364.53125 320 l 257
 -185.46875 320 l 257
EndSplineSet
Ligature2: "halfHalfFormsinDevanagari2lookup0 subtable" uni091E uni094D
EndChar

StartChar: uni091E_uni094D.haln
Encoding: 65572 -1 474
GlifName: uni091E__uni094D_.haln
Width: 1024
VWidth: 0
Flags: W
LayerCount: 2
Fore
SplineSet
-132.6328125 1553 m 257
 -154.470703125 1493 l 257
 879.529296875 1493 l 257
 901.3671875 1553 l 257
 -132.6328125 1553 l 257
741.908203125 1538 m 257
 179.209960938 -8 l 257
 239.209960938 -8 l 257
 801.908203125 1538 l 257
 741.908203125 1538 l 257
133.708984375 672 m 257
 111.87109375 612 l 257
 425.87109375 612 l 257
 447.708984375 672 l 257
 133.708984375 672 l 257
-259.465820312 960 m 257
 -281.3046875 900 l 257
 215.6953125 900 l 257
 237.534179688 960 l 257
 -259.465820312 960 l 257
207.534179688 960 m 257
 -26.86328125 316 l 257
 33.13671875 316 l 257
 267.534179688 960 l 257
 207.534179688 960 l 257
-515.408203125 320 m 257
 -537.245117188 260 l 257
 12.7548828125 260 l 257
 34.591796875 320 l 257
 -515.408203125 320 l 257
466.41796875 -16 m 257
 444.215820312 -77 l 257
 788.215820312 -77 l 257
 810.41796875 -16 l 257
 466.41796875 -16 l 257
761.399414062 -71 m 257
 945.1015625 -418 l 257
 994.028320312 -366 l 257
 810.78125 -15 l 257
 761.399414062 -71 l 257
EndSplineSet
Ligature2: "halnHalantFormsinDevanagari2lookup0 subtable" uni091E uni094D
EndChar

StartChar: uni091F
Encoding: 2335 2335 475
GlifName: uni091F_
Width: 1024
VWidth: 0
Flags: W
LayerCount: 2
Fore
SplineSet
243.123046875 1553 m 257
 221.6484375 1494 l 257
 1235.6484375 1494 l 257
 1257.12304688 1553 l 257
 243.123046875 1553 l 257
933.0234375 1528 m 257
 736.479492188 988 l 257
 796.479492188 988 l 257
 993.0234375 1528 l 257
 933.0234375 1528 l 257
809.21875 1023 m 257
 160.21875 1023 l 257
 138.379882812 963 l 257
 787.379882812 963 l 257
 809.21875 1023 l 257
139.21875 1023 m 257
 -231.302734375 5 l 257
 -171.302734375 5 l 257
 199.21875 1023 l 257
 139.21875 1023 l 257
-211.28515625 60 m 257
 -233.123046875 0 l 257
 479.876953125 0 l 257
 501.71484375 60 l 257
 -211.28515625 60 l 257
EndSplineSet
EndChar

StartChar: uni091F_uni0930_uni094D.vatu
Encoding: 65573 -1 476
GlifName: uni091F__uni0930_uni094D_.vatu
Width: 1024
VWidth: 0
Flags: W
LayerCount: 2
Fore
SplineSet
124.240234375 220 m 257
 183.85546875 -119 l 257
 251.85546875 -119 l 257
 192.626953125 287 l 257
 124.240234375 220 l 257
192.626953125 287 m 257
 -210.4140625 -106 l 257
 -142.4140625 -106 l 257
 201.15234375 228 l 257
 192.626953125 287 l 257
220.4140625 1553 m 257
 198.939453125 1494 l 257
 1212.93945312 1494 l 257
 1234.4140625 1553 l 257
 220.4140625 1553 l 257
910.314453125 1528 m 257
 713.76953125 988 l 257
 773.76953125 988 l 257
 970.314453125 1528 l 257
 910.314453125 1528 l 257
786.509765625 1023 m 257
 137.509765625 1023 l 257
 115.669921875 963 l 257
 764.669921875 963 l 257
 786.509765625 1023 l 257
116.509765625 1023 m 257
 -144.822265625 305 l 257
 -84.822265625 305 l 257
 176.509765625 1023 l 257
 116.509765625 1023 l 257
-124.802734375 360 m 257
 -146.640625 300 l 257
 566.359375 300 l 257
 588.197265625 360 l 257
 -124.802734375 360 l 257
EndSplineSet
Ligature2: "rkrfRakarVariantsinDevanagari2lookup0 subtable" uni091F uni0930_uni094D.blwf
EndChar

StartChar: uni091F_uni094D.haln
Encoding: 65574 -1 477
GlifName: uni091F__uni094D_.haln
Width: 1024
VWidth: 0
Flags: W
LayerCount: 2
Fore
SplineSet
-39.5009765625 1553 m 257
 -60.974609375 1494 l 257
 953.025390625 1494 l 257
 974.499023438 1553 l 257
 -39.5009765625 1553 l 257
650.400390625 1528 m 257
 453.856445312 988 l 257
 513.856445312 988 l 257
 710.400390625 1528 l 257
 650.400390625 1528 l 257
526.595703125 1023 m 257
 -122.404296875 1023 l 257
 -144.243164062 963 l 257
 504.756835938 963 l 257
 526.595703125 1023 l 257
-143.404296875 1023 m 257
 -513.92578125 5 l 257
 -453.92578125 5 l 257
 -83.404296875 1023 l 257
 -143.404296875 1023 l 257
-493.908203125 60 m 257
 -515.74609375 0 l 257
 197.25390625 0 l 257
 219.091796875 60 l 257
 -493.908203125 60 l 257
549.549804688 -16 m 257
 527.34765625 -77 l 257
 871.34765625 -77 l 257
 893.549804688 -16 l 257
 549.549804688 -16 l 257
844.53125 -71 m 257
 1028.23339844 -418 l 257
 1077.16015625 -366 l 257
 893.9140625 -15 l 257
 844.53125 -71 l 257
EndSplineSet
Ligature2: "halnHalantFormsinDevanagari2lookup0 subtable" uni091F uni094D
EndChar

StartChar: uni0920
Encoding: 2336 2336 478
GlifName: uni0920
Width: 1024
VWidth: 0
Flags: W
LayerCount: 2
Fore
SplineSet
245.577148438 1550 m 257
 223.73828125 1490 l 257
 1248.73828125 1490 l 257
 1270.57714844 1550 l 257
 245.577148438 1550 l 257
828.017578125 1510 m 257
 650.764648438 1023 l 257
 709.764648438 1023 l 257
 887.017578125 1510 l 257
 828.017578125 1510 l 257
137.764648438 1023 m 257
 115.92578125 963 l 257
 993.92578125 963 l 257
 1015.76464844 1023 l 257
 137.764648438 1023 l 257
124.764648438 1023 m 257
 -242.845703125 13 l 257
 -180.845703125 13 l 257
 186.764648438 1023 l 257
 124.764648438 1023 l 257
936.756835938 1001 m 257
 572.422851562 0 l 257
 643.422851562 0 l 257
 1007.75683594 1001 l 257
 936.756835938 1001 l 257
-225.466796875 58 m 257
 -246.577148438 0 l 257
 623.422851562 0 l 257
 644.533203125 58 l 257
 -225.466796875 58 l 257
EndSplineSet
EndChar

StartChar: uni0920_uni0930_uni094D.vatu
Encoding: 65575 -1 479
GlifName: uni0920_uni0930_uni094D_.vatu
Width: 1024
VWidth: 0
Flags: W
LayerCount: 2
Fore
SplineSet
202.446289062 220 m 257
 262.060546875 -119 l 257
 330.060546875 -119 l 257
 270.83203125 287 l 257
 202.446289062 220 l 257
270.83203125 287 m 257
 -132.208007812 -106 l 257
 -64.2080078125 -106 l 257
 279.358398438 228 l 257
 270.83203125 287 l 257
191.52734375 1550 m 257
 169.688476562 1490 l 257
 1194.68847656 1490 l 257
 1216.52734375 1550 l 257
 191.52734375 1550 l 257
686.967773438 1510 m 257
 509.71484375 1023 l 257
 568.71484375 1023 l 257
 745.967773438 1510 l 257
 686.967773438 1510 l 257
83.71484375 1023 m 257
 61.8759765625 963 l 257
 939.875976562 963 l 257
 961.71484375 1023 l 257
 83.71484375 1023 l 257
70.71484375 1023 m 257
 -187.704101562 313 l 257
 -125.704101562 313 l 257
 132.71484375 1023 l 257
 70.71484375 1023 l 257
882.70703125 1001 m 257
 626.8359375 298 l 257
 697.8359375 298 l 257
 953.70703125 1001 l 257
 882.70703125 1001 l 257
-170.325195312 358 m 257
 -192.52734375 297 l 257
 677.47265625 297 l 257
 699.674804688 358 l 257
 -170.325195312 358 l 257
EndSplineSet
Ligature2: "rkrfRakarVariantsinDevanagari2lookup0 subtable" uni0920 uni0930_uni094D.blwf
EndChar

StartChar: uni0920_uni094D.haln
Encoding: 65576 -1 480
GlifName: uni0920_uni094D_.haln
Width: 1024
VWidth: 0
Flags: W
LayerCount: 2
Fore
SplineSet
-36.5009765625 1550 m 257
 -58.3388671875 1490 l 257
 966.661132812 1490 l 257
 988.499023438 1550 l 257
 -36.5009765625 1550 l 257
545.940429688 1510 m 257
 368.6875 1023 l 257
 427.6875 1023 l 257
 604.940429688 1510 l 257
 545.940429688 1510 l 257
-144.3125 1023 m 257
 -166.151367188 963 l 257
 711.848632812 963 l 257
 733.6875 1023 l 257
 -144.3125 1023 l 257
-157.3125 1023 m 257
 -524.922851562 13 l 257
 -462.922851562 13 l 257
 -95.3125 1023 l 257
 -157.3125 1023 l 257
654.6796875 1001 m 257
 290.345703125 0 l 257
 361.345703125 0 l 257
 725.6796875 1001 l 257
 654.6796875 1001 l 257
-507.543945312 58 m 257
 -528.654296875 0 l 257
 341.345703125 0 l 257
 362.456054688 58 l 257
 -507.543945312 58 l 257
558.641601562 -16 m 257
 536.439453125 -77 l 257
 880.439453125 -77 l 257
 902.641601562 -16 l 257
 558.641601562 -16 l 257
853.623046875 -71 m 257
 1037.32519531 -418 l 257
 1086.25195312 -366 l 257
 903.005859375 -15 l 257
 853.623046875 -71 l 257
EndSplineSet
Ligature2: "halnHalantFormsinDevanagari2lookup0 subtable" uni0920 uni094D
EndChar

StartChar: uni0921
Encoding: 2337 2337 481
GlifName: uni0921
Width: 1024
VWidth: 0
Flags: W
LayerCount: 2
Fore
SplineSet
249.712890625 1548 m 257
 227.875 1488 l 257
 1253.875 1488 l 257
 1275.71289062 1548 l 257
 249.712890625 1548 l 257
467.37890625 1091 m 257
 281.025390625 579 l 257
 341.025390625 579 l 257
 527.37890625 1091 l 257
 467.37890625 1091 l 257
287.577148438 597 m 257
 266.103515625 538 l 257
 809.103515625 538 l 257
 830.577148438 597 l 257
 287.577148438 597 l 257
754.926757812 554 m 257
 555.107421875 5 l 257
 615.107421875 5 l 257
 814.926757812 554 l 257
 754.926757812 554 l 257
-229.875 60 m 257
 -251.712890625 0 l 257
 613.287109375 0 l 257
 635.125 60 l 257
 -229.875 60 l 257
-131.23828125 331 m 257
 -249.892578125 5 l 257
 -188.892578125 5 l 257
 -70.23828125 331 l 257
 -131.23828125 331 l 257
483.029296875 1134 m 257
 461.19140625 1074 l 257
 1004.19140625 1074 l 257
 1026.02929688 1134 l 257
 483.029296875 1134 l 257
1098.33398438 1503 m 257
 950.926757812 1098 l 257
 1012.92675781 1098 l 257
 1160.33398438 1503 l 257
 1098.33398438 1503 l 257
EndSplineSet
EndChar

StartChar: uni0921_uni0930_uni094D.vatu
Encoding: 65577 -1 482
GlifName: uni0921_uni0930_uni094D_.vatu
Width: 1024
VWidth: 0
Flags: W
LayerCount: 2
Fore
SplineSet
158.75 136 m 257
 233.287109375 -162 l 257
 308.56640625 -142 l 257
 222.76953125 191 l 257
 158.75 136 l 257
222.76953125 191 m 257
 -154.4296875 -131 l 257
 -94.072265625 -152 l 257
 235.298828125 143 l 257
 222.76953125 191 l 257
209.67578125 1548 m 257
 187.837890625 1488 l 257
 1213.83789062 1488 l 257
 1235.67578125 1548 l 257
 209.67578125 1548 l 257
427.341796875 1091 m 257
 321.0625 799 l 257
 381.0625 799 l 257
 487.341796875 1091 l 257
 427.341796875 1091 l 257
327.61328125 817 m 257
 306.140625 758 l 257
 849.140625 758 l 257
 870.61328125 817 l 257
 327.61328125 817 l 257
794.962890625 774 m 257
 595.14453125 225 l 257
 655.14453125 225 l 257
 854.962890625 774 l 257
 794.962890625 774 l 257
-189.837890625 280 m 257
 -211.67578125 220 l 257
 653.32421875 220 l 257
 675.162109375 280 l 257
 -189.837890625 280 l 257
-91.201171875 551 m 257
 -209.85546875 225 l 257
 -148.85546875 225 l 257
 -30.201171875 551 l 257
 -91.201171875 551 l 257
442.9921875 1134 m 257
 421.154296875 1074 l 257
 964.154296875 1074 l 257
 985.9921875 1134 l 257
 442.9921875 1134 l 257
1058.296875 1503 m 257
 910.890625 1098 l 257
 972.890625 1098 l 257
 1120.296875 1503 l 257
 1058.296875 1503 l 257
EndSplineSet
Ligature2: "rkrfRakarVariantsinDevanagari2lookup0 subtable" uni0921 uni0930_uni094D.blwf
EndChar

StartChar: uni0921_uni094D.haln
Encoding: 65578 -1 483
GlifName: uni0921_uni094D_.haln
Width: 1024
VWidth: 0
Flags: W
LayerCount: 2
Fore
SplineSet
-32 1548 m 257
 -53.8388671875 1488 l 257
 972.161132812 1488 l 257
 994 1548 l 257
 -32 1548 l 257
185.665039062 1091 m 257
 -0.6875 579 l 257
 59.3125 579 l 257
 245.665039062 1091 l 257
 185.665039062 1091 l 257
5.8642578125 597 m 257
 -15.6103515625 538 l 257
 527.389648438 538 l 257
 548.864257812 597 l 257
 5.8642578125 597 l 257
473.213867188 554 m 257
 273.393554688 5 l 257
 333.393554688 5 l 257
 533.213867188 554 l 257
 473.213867188 554 l 257
-511.587890625 60 m 257
 -533.42578125 0 l 257
 331.57421875 0 l 257
 353.412109375 60 l 257
 -511.587890625 60 l 257
-412.952148438 331 m 257
 -531.606445312 5 l 257
 -470.606445312 5 l 257
 -351.952148438 331 l 257
 -412.952148438 331 l 257
201.31640625 1134 m 257
 179.477539062 1074 l 257
 722.477539062 1074 l 257
 744.31640625 1134 l 257
 201.31640625 1134 l 257
816.62109375 1503 m 257
 669.212890625 1098 l 257
 731.212890625 1098 l 257
 878.62109375 1503 l 257
 816.62109375 1503 l 257
563.869140625 -16 m 257
 541.666992188 -77 l 257
 885.666992188 -77 l 257
 907.869140625 -16 l 257
 563.869140625 -16 l 257
858.8515625 -71 m 257
 1042.55371094 -418 l 257
 1091.48046875 -366 l 257
 908.233398438 -15 l 257
 858.8515625 -71 l 257
EndSplineSet
Ligature2: "halnHalantFormsinDevanagari2lookup0 subtable" uni0921 uni094D
EndChar

StartChar: uni0922
Encoding: 2338 2338 484
GlifName: uni0922
Width: 1024
VWidth: 0
Flags: W
LayerCount: 2
Fore
SplineSet
232.577148438 1550 m 257
 210.010742188 1488 l 257
 1234.01074219 1488 l 257
 1256.57714844 1550 l 257
 232.577148438 1550 l 257
911.569335938 1528 m 257
 715.025390625 988 l 257
 797.025390625 988 l 257
 993.569335938 1528 l 257
 911.569335938 1528 l 257
809.764648438 1023 m 257
 160.764648438 1023 l 257
 138.5625 962 l 257
 787.5625 962 l 257
 809.764648438 1023 l 257
139.764648438 1023 m 257
 -230.756835938 5 l 257
 -170.756835938 5 l 257
 199.764648438 1023 l 257
 139.764648438 1023 l 257
-210.739257812 60 m 257
 -232.577148438 0 l 257
 480.422851562 0 l 257
 502.260742188 60 l 257
 -210.739257812 60 l 257
620.422851562 544 m 257
 422.422851562 0 l 257
 482.422851562 0 l 257
 680.422851562 544 l 257
 620.422851562 544 l 257
551.514648438 547 m 257
 529.676757812 487 l 257
 657.676757812 487 l 257
 679.514648438 547 l 257
 551.514648438 547 l 257
EndSplineSet
EndChar

StartChar: uni0922_uni0930_uni094D.vatu
Encoding: 65579 -1 485
GlifName: uni0922_uni0930_uni094D_.vatu
Width: 1024
VWidth: 0
Flags: W
LayerCount: 2
Fore
SplineSet
147.287109375 220 m 257
 206.900390625 -119 l 257
 274.900390625 -119 l 257
 215.671875 287 l 257
 147.287109375 220 l 257
215.671875 287 m 257
 -187.3671875 -106 l 257
 -119.3671875 -106 l 257
 224.19921875 228 l 257
 215.671875 287 l 257
187.3671875 1550 m 257
 164.80078125 1488 l 257
 1188.80078125 1488 l 257
 1211.3671875 1550 l 257
 187.3671875 1550 l 257
866.359375 1528 m 257
 669.81640625 988 l 257
 751.81640625 988 l 257
 948.359375 1528 l 257
 866.359375 1528 l 257
764.5546875 1023 m 257
 115.5546875 1023 l 257
 93.353515625 962 l 257
 742.353515625 962 l 257
 764.5546875 1023 l 257
94.5546875 1023 m 257
 -166.775390625 305 l 257
 -106.775390625 305 l 257
 154.5546875 1023 l 257
 94.5546875 1023 l 257
-146.7578125 360 m 257
 -168.595703125 300 l 257
 544.404296875 300 l 257
 566.2421875 360 l 257
 -146.7578125 360 l 257
684.404296875 844 m 257
 485.67578125 298 l 257
 545.67578125 298 l 257
 744.404296875 844 l 257
 684.404296875 844 l 257
615.49609375 847 m 257
 593.658203125 787 l 257
 721.658203125 787 l 257
 743.49609375 847 l 257
 615.49609375 847 l 257
EndSplineSet
Ligature2: "rkrfRakarVariantsinDevanagari2lookup0 subtable" uni0922 uni0930_uni094D.blwf
EndChar

